<?xml version="1.0" encoding="us-ascii" standalone="no"?><svg xmlns="http://www.w3.org/2000/svg" xmlns:xlink="http://www.w3.org/1999/xlink" contentStyleType="text/css" height="1629px" preserveAspectRatio="none" style="width:1169px;height:1629px;background:#FFFFFF;" version="1.1" viewBox="0 0 1169 1629" width="1169px" zoomAndPan="magnify"><defs/><g><text fill="#000000" font-family="sans-serif" font-size="14" font-weight="bold" lengthAdjust="spacing" textLength="355.4375" x="402.7813" y="29.5332">Login e Refresh &#8212; Token Opaco + Cookie HttpOnly</text><line style="stroke:#181818;stroke-width:0.5;stroke-dasharray:5.0,5.0;" x1="56" x2="56" y1="124.8281" y2="1532.7031"/><line style="stroke:#181818;stroke-width:0.5;stroke-dasharray:5.0,5.0;" x1="202.5" x2="202.5" y1="124.8281" y2="1532.7031"/><line style="stroke:#181818;stroke-width:0.5;stroke-dasharray:5.0,5.0;" x1="471.5" x2="471.5" y1="124.8281" y2="1532.7031"/><line style="stroke:#181818;stroke-width:0.5;stroke-dasharray:5.0,5.0;" x1="711" x2="711" y1="124.8281" y2="1532.7031"/><line style="stroke:#181818;stroke-width:0.5;stroke-dasharray:5.0,5.0;" x1="961" x2="961" y1="124.8281" y2="1532.7031"/><line style="stroke:#181818;stroke-width:0.5;stroke-dasharray:5.0,5.0;" x1="1097" x2="1097" y1="124.8281" y2="1532.7031"/><text fill="#000000" font-family="sans-serif" font-size="14" lengthAdjust="spacing" textLength="96" x="5" y="121.752">Usu&#225;rio interno</text><ellipse cx="56" cy="55.7188" fill="#E2E2F0" rx="8" ry="8" style="stroke:#181818;stroke-width:0.5;"/><path d="M56,63.7188 L56,90.7188 M43,71.7188 L69,71.7188 M56,90.7188 L43,105.7188 M56,90.7188 L69,105.7188 " fill="none" style="stroke:#181818;stroke-width:0.5;"/><text fill="#000000" font-family="sans-serif" font-size="14" lengthAdjust="spacing" textLength="96" x="5" y="1546.2363">Usu&#225;rio interno</text><ellipse cx="56" cy="1557.8125" fill="#E2E2F0" rx="8" ry="8" style="stroke:#181818;stroke-width:0.5;"/><path d="M56,1565.8125 L56,1592.8125 M43,1573.8125 L69,1573.8125 M56,1592.8125 L43,1607.8125 M56,1592.8125 L69,1607.8125 " fill="none" style="stroke:#181818;stroke-width:0.5;"/><rect fill="#E2E2F0" height="31.6094" rx="2.5" ry="2.5" style="stroke:#181818;stroke-width:0.5;" width="141" x="132.5" y="92.2188"/><text fill="#000000" font-family="sans-serif" font-size="14" lengthAdjust="spacing" textLength="127" x="139.5" y="113.752">Frontend React/Vite</text><rect fill="#E2E2F0" height="31.6094" rx="2.5" ry="2.5" style="stroke:#181818;stroke-width:0.5;" width="141" x="132.5" y="1531.7031"/><text fill="#000000" font-family="sans-serif" font-size="14" lengthAdjust="spacing" textLength="127" x="139.5" y="1553.2363">Frontend React/Vite</text><rect fill="#E2E2F0" height="49.2188" rx="2.5" ry="2.5" style="stroke:#181818;stroke-width:0.5;" width="89" x="427.5" y="74.6094"/><text fill="#000000" font-family="sans-serif" font-size="14" lengthAdjust="spacing" textLength="75" x="434.5" y="96.1426">API Express</text><text fill="#000000" font-family="sans-serif" font-size="14" lengthAdjust="spacing" textLength="32" x="456" y="113.752">/auth</text><rect fill="#E2E2F0" height="49.2188" rx="2.5" ry="2.5" style="stroke:#181818;stroke-width:0.5;" width="89" x="427.5" y="1531.7031"/><text fill="#000000" font-family="sans-serif" font-size="14" lengthAdjust="spacing" textLength="75" x="434.5" y="1553.2363">API Express</text><text fill="#000000" font-family="sans-serif" font-size="14" lengthAdjust="spacing" textLength="32" x="456" y="1570.8457">/auth</text><rect fill="#E2E2F0" height="31.6094" rx="2.5" ry="2.5" style="stroke:#181818;stroke-width:0.5;" width="90" x="666" y="92.2188"/><text fill="#000000" font-family="sans-serif" font-size="14" lengthAdjust="spacing" textLength="76" x="673" y="113.752">AuthService</text><rect fill="#E2E2F0" height="31.6094" rx="2.5" ry="2.5" style="stroke:#181818;stroke-width:0.5;" width="90" x="666" y="1531.7031"/><text fill="#000000" font-family="sans-serif" font-size="14" lengthAdjust="spacing" textLength="76" x="673" y="1553.2363">AuthService</text><text fill="#000000" font-family="sans-serif" font-size="14" lengthAdjust="spacing" textLength="78" x="919" y="104.1426">SQLite atual</text><text fill="#000000" font-family="sans-serif" font-size="14" lengthAdjust="spacing" textLength="128" x="894" y="121.752">(PostgreSQL futuro)</text><path d="M943,53.6094 C943,43.6094 961,43.6094 961,43.6094 C961,43.6094 979,43.6094 979,53.6094 L979,79.6094 C979,89.6094 961,89.6094 961,89.6094 C961,89.6094 943,89.6094 943,79.6094 L943,53.6094 " fill="#E2E2F0" style="stroke:#181818;stroke-width:1.5;"/><path d="M943,53.6094 C943,63.6094 961,63.6094 961,63.6094 C961,63.6094 979,63.6094 979,53.6094 " fill="none" style="stroke:#181818;stroke-width:1.5;"/><text fill="#000000" font-family="sans-serif" font-size="14" lengthAdjust="spacing" textLength="78" x="919" y="1546.2363">SQLite atual</text><text fill="#000000" font-family="sans-serif" font-size="14" lengthAdjust="spacing" textLength="128" x="894" y="1563.8457">(PostgreSQL futuro)</text><path d="M943,1576.9219 C943,1566.9219 961,1566.9219 961,1566.9219 C961,1566.9219 979,1566.9219 979,1576.9219 L979,1602.9219 C979,1612.9219 961,1612.9219 961,1612.9219 C961,1612.9219 943,1612.9219 943,1602.9219 L943,1576.9219 " fill="#E2E2F0" style="stroke:#181818;stroke-width:1.5;"/><path d="M943,1576.9219 C943,1586.9219 961,1586.9219 961,1586.9219 C961,1586.9219 979,1586.9219 979,1576.9219 " fill="none" style="stroke:#181818;stroke-width:1.5;"/><rect fill="#E2E2F0" height="31.6094" rx="2.5" ry="2.5" style="stroke:#181818;stroke-width:0.5;" width="119" x="1038" y="92.2188"/><text fill="#000000" font-family="sans-serif" font-size="14" lengthAdjust="spacing" textLength="105" x="1045" y="113.752">Auditoria t&#233;cnica</text><rect fill="#E2E2F0" height="31.6094" rx="2.5" ry="2.5" style="stroke:#181818;stroke-width:0.5;" width="119" x="1038" y="1531.7031"/><text fill="#000000" font-family="sans-serif" font-size="14" lengthAdjust="spacing" textLength="105" x="1045" y="1553.2363">Auditoria t&#233;cnica</text><polygon fill="#181818" points="191,153.1797,201,157.1797,191,161.1797,195,157.1797" style="stroke:#181818;stroke-width:1.0;"/><line style="stroke:#181818;stroke-width:1.0;" x1="56" x2="197" y1="157.1797" y2="157.1797"/><text fill="#000000" font-family="sans-serif" font-size="13" font-weight="bold" lengthAdjust="spacing" textLength="7" x="63" y="152.3232">1</text><text fill="#000000" font-family="sans-serif" font-size="13" lengthAdjust="spacing" textLength="112" x="74" y="152.3232">informa login/senha</text><polygon fill="#181818" points="460,183.5313,470,187.5313,460,191.5313,464,187.5313" style="stroke:#181818;stroke-width:1.0;"/><line style="stroke:#181818;stroke-width:1.0;" x1="203" x2="466" y1="187.5313" y2="187.5313"/><text fill="#000000" font-family="sans-serif" font-size="13" font-weight="bold" lengthAdjust="spacing" textLength="7" x="210" y="182.6748">2</text><text fill="#000000" font-family="sans-serif" font-size="13" lengthAdjust="spacing" textLength="99" x="221" y="182.6748">POST /auth/login</text><polygon fill="#181818" points="699,213.8828,709,217.8828,699,221.8828,703,217.8828" style="stroke:#181818;stroke-width:1.0;"/><line style="stroke:#181818;stroke-width:1.0;" x1="472" x2="705" y1="217.8828" y2="217.8828"/><text fill="#000000" font-family="sans-serif" font-size="13" font-weight="bold" lengthAdjust="spacing" textLength="7" x="479" y="213.0264">3</text><text fill="#000000" font-family="sans-serif" font-size="13" lengthAdjust="spacing" textLength="106" x="490" y="213.0264">login(payload, req)</text><polygon fill="#181818" points="949,244.2344,959,248.2344,949,252.2344,953,248.2344" style="stroke:#181818;stroke-width:1.0;"/><line style="stroke:#181818;stroke-width:1.0;" x1="711" x2="955" y1="248.2344" y2="248.2344"/><text fill="#000000" font-family="sans-serif" font-size="13" font-weight="bold" lengthAdjust="spacing" textLength="7" x="718" y="243.3779">4</text><text fill="#000000" font-family="sans-serif" font-size="13" lengthAdjust="spacing" textLength="127" x="729" y="243.3779">busca usuario_interno</text><line style="stroke:#181818;stroke-width:1.0;" x1="711" x2="753" y1="278.5859" y2="278.5859"/><line style="stroke:#181818;stroke-width:1.0;" x1="753" x2="753" y1="278.5859" y2="291.5859"/><line style="stroke:#181818;stroke-width:1.0;" x1="712" x2="753" y1="291.5859" y2="291.5859"/><polygon fill="#181818" points="722,287.5859,712,291.5859,722,295.5859,718,291.5859" style="stroke:#181818;stroke-width:1.0;"/><text fill="#000000" font-family="sans-serif" font-size="13" font-weight="bold" lengthAdjust="spacing" textLength="7" x="718" y="273.7295">5</text><text fill="#000000" font-family="sans-serif" font-size="13" lengthAdjust="spacing" textLength="122" x="729" y="273.7295">valida senha e status</text><line style="stroke:#181818;stroke-width:1.0;" x1="711" x2="753" y1="321.9375" y2="321.9375"/><line style="stroke:#181818;stroke-width:1.0;" x1="753" x2="753" y1="321.9375" y2="334.9375"/><line style="stroke:#181818;stroke-width:1.0;" x1="712" x2="753" y1="334.9375" y2="334.9375"/><polygon fill="#181818" points="722,330.9375,712,334.9375,722,338.9375,718,334.9375" style="stroke:#181818;stroke-width:1.0;"/><text fill="#000000" font-family="sans-serif" font-size="13" font-weight="bold" lengthAdjust="spacing" textLength="7" x="718" y="317.0811">6</text><text fill="#000000" font-family="sans-serif" font-size="13" lengthAdjust="spacing" textLength="146" x="729" y="317.0811">gera access token opaco</text><polygon fill="#181818" points="949,361.2891,959,365.2891,949,369.2891,953,365.2891" style="stroke:#181818;stroke-width:1.0;"/><line style="stroke:#181818;stroke-width:1.0;" x1="711" x2="955" y1="365.2891" y2="365.2891"/><text fill="#000000" font-family="sans-serif" font-size="13" font-weight="bold" lengthAdjust="spacing" textLength="7" x="718" y="360.4326">7</text><text fill="#000000" font-family="sans-serif" font-size="13" lengthAdjust="spacing" textLength="182" x="729" y="360.4326">grava auth_session.token_hash</text><line style="stroke:#181818;stroke-width:1.0;" x1="711" x2="753" y1="395.6406" y2="395.6406"/><line style="stroke:#181818;stroke-width:1.0;" x1="753" x2="753" y1="395.6406" y2="408.6406"/><line style="stroke:#181818;stroke-width:1.0;" x1="712" x2="753" y1="408.6406" y2="408.6406"/><polygon fill="#181818" points="722,404.6406,712,408.6406,722,412.6406,718,408.6406" style="stroke:#181818;stroke-width:1.0;"/><text fill="#000000" font-family="sans-serif" font-size="13" font-weight="bold" lengthAdjust="spacing" textLength="7" x="718" y="390.7842">8</text><text fill="#000000" font-family="sans-serif" font-size="13" lengthAdjust="spacing" textLength="143" x="729" y="390.7842">gera refresh token opaco</text><polygon fill="#181818" points="949,434.9922,959,438.9922,949,442.9922,953,438.9922" style="stroke:#181818;stroke-width:1.0;"/><line style="stroke:#181818;stroke-width:1.0;" x1="711" x2="955" y1="438.9922" y2="438.9922"/><text fill="#000000" font-family="sans-serif" font-size="13" font-weight="bold" lengthAdjust="spacing" textLength="7" x="718" y="434.1357">9</text><text fill="#000000" font-family="sans-serif" font-size="13" lengthAdjust="spacing" textLength="215" x="729" y="434.1357">grava auth_refresh_token.token_hash</text><polygon fill="#181818" points="1085.5,465.3438,1095.5,469.3438,1085.5,473.3438,1089.5,469.3438" style="stroke:#181818;stroke-width:1.0;"/><line style="stroke:#181818;stroke-width:1.0;" x1="711" x2="1091.5" y1="469.3438" y2="469.3438"/><text fill="#000000" font-family="sans-serif" font-size="13" font-weight="bold" lengthAdjust="spacing" textLength="14" x="718" y="464.4873">10</text><text fill="#000000" font-family="sans-serif" font-size="13" lengthAdjust="spacing" textLength="59" x="736" y="464.4873">auth_login</text><polygon fill="#181818" points="483,495.6953,473,499.6953,483,503.6953,479,499.6953" style="stroke:#181818;stroke-width:1.0;"/><line style="stroke:#181818;stroke-width:1.0;stroke-dasharray:2.0,2.0;" x1="477" x2="710" y1="499.6953" y2="499.6953"/><text fill="#000000" font-family="sans-serif" font-size="13" font-weight="bold" lengthAdjust="spacing" textLength="14" x="489" y="494.8389">11</text><text fill="#000000" font-family="sans-serif" font-size="13" lengthAdjust="spacing" textLength="173" x="507" y="494.8389">access token + refreshCookie</text><polygon fill="#181818" points="214,542.3984,204,546.3984,214,550.3984,210,546.3984" style="stroke:#181818;stroke-width:1.0;"/><line style="stroke:#181818;stroke-width:1.0;stroke-dasharray:2.0,2.0;" x1="208" x2="471" y1="546.3984" y2="546.3984"/><text fill="#000000" font-family="sans-serif" font-size="13" font-weight="bold" lengthAdjust="spacing" textLength="14" x="220" y="533.3662">12</text><text fill="#000000" font-family="sans-serif" font-size="13" lengthAdjust="spacing" textLength="103" x="238" y="525.1904">JSON com bearer</text><text fill="#000000" font-family="sans-serif" font-size="13" lengthAdjust="spacing" textLength="191" x="238" y="541.542">Set-Cookie academia_sa_refresh</text><path d="M477,559.3984 L477,650.3984 L671,650.3984 L671,569.3984 L661,559.3984 L477,559.3984 " fill="#FEFFDD" style="stroke:#181818;stroke-width:0.5;"/><path d="M661,559.3984 L661,569.3984 L671,569.3984 L661,559.3984 " fill="#FEFFDD" style="stroke:#181818;stroke-width:0.5;"/><text fill="#000000" font-family="sans-serif" font-size="13" lengthAdjust="spacing" textLength="44" x="483" y="577.8936">Cookie:</text><text fill="#000000" font-family="sans-serif" font-size="13" lengthAdjust="spacing" textLength="51" x="483" y="594.2451">HttpOnly</text><text fill="#000000" font-family="sans-serif" font-size="13" lengthAdjust="spacing" textLength="86" x="483" y="610.5967">SameSite=Lax</text><text fill="#000000" font-family="sans-serif" font-size="13" lengthAdjust="spacing" textLength="173" x="483" y="626.9482">Secure apenas em production</text><text fill="#000000" font-family="sans-serif" font-size="13" lengthAdjust="spacing" textLength="62" x="483" y="643.2998">path=/auth</text><polygon fill="#181818" points="460,690.8594,470,694.8594,460,698.8594,464,694.8594" style="stroke:#181818;stroke-width:1.0;"/><line style="stroke:#181818;stroke-width:1.0;" x1="203" x2="466" y1="694.8594" y2="694.8594"/><text fill="#000000" font-family="sans-serif" font-size="13" font-weight="bold" lengthAdjust="spacing" textLength="14" x="210" y="681.8271">13</text><text fill="#000000" font-family="sans-serif" font-size="13" lengthAdjust="spacing" textLength="81" x="228" y="673.6514">GET /auth/me</text><text fill="#000000" font-family="sans-serif" font-size="13" lengthAdjust="spacing" textLength="168" x="228" y="690.0029">Authorization: Bearer access</text><polygon fill="#181818" points="699,721.2109,709,725.2109,699,729.2109,703,725.2109" style="stroke:#181818;stroke-width:1.0;"/><line style="stroke:#181818;stroke-width:1.0;" x1="472" x2="705" y1="725.2109" y2="725.2109"/><text fill="#000000" font-family="sans-serif" font-size="13" font-weight="bold" lengthAdjust="spacing" textLength="14" x="479" y="720.3545">14</text><text fill="#000000" font-family="sans-serif" font-size="13" lengthAdjust="spacing" textLength="172" x="497" y="720.3545">resolveSessionToken(access)</text><polygon fill="#181818" points="949,751.5625,959,755.5625,949,759.5625,953,755.5625" style="stroke:#181818;stroke-width:1.0;"/><line style="stroke:#181818;stroke-width:1.0;" x1="711" x2="955" y1="755.5625" y2="755.5625"/><text fill="#000000" font-family="sans-serif" font-size="13" font-weight="bold" lengthAdjust="spacing" textLength="14" x="718" y="750.7061">15</text><text fill="#000000" font-family="sans-serif" font-size="13" lengthAdjust="spacing" textLength="167" x="736" y="750.7061">valida hash em auth_session</text><polygon fill="#181818" points="214,781.9141,204,785.9141,214,789.9141,210,785.9141" style="stroke:#181818;stroke-width:1.0;"/><line style="stroke:#181818;stroke-width:1.0;stroke-dasharray:2.0,2.0;" x1="208" x2="471" y1="785.9141" y2="785.9141"/><text fill="#000000" font-family="sans-serif" font-size="13" font-weight="bold" lengthAdjust="spacing" textLength="14" x="220" y="781.0576">16</text><text fill="#000000" font-family="sans-serif" font-size="13" lengthAdjust="spacing" textLength="113" x="238" y="781.0576">usu&#225;rio autenticado</text><rect fill="#EEEEEE" height="3" style="stroke:#EEEEEE;stroke-width:1.0;" width="1162" x="0" y="815.0898"/><line style="stroke:#000000;stroke-width:1.0;" x1="0" x2="1162" y1="815.0898" y2="815.0898"/><line style="stroke:#000000;stroke-width:1.0;" x1="0" x2="1162" y1="818.0898" y2="818.0898"/><rect fill="#EEEEEE" height="24.3516" style="stroke:#000000;stroke-width:2.0;" width="89" x="536.5" y="803.9141"/><text fill="#000000" font-family="sans-serif" font-size="13" font-weight="bold" lengthAdjust="spacing" textLength="71" x="542.5" y="821.4092">Renova&#231;&#227;o</text><polygon fill="#181818" points="460,872.9688,470,876.9688,460,880.9688,464,876.9688" style="stroke:#181818;stroke-width:1.0;"/><line style="stroke:#181818;stroke-width:1.0;" x1="203" x2="466" y1="876.9688" y2="876.9688"/><text fill="#000000" font-family="sans-serif" font-size="13" font-weight="bold" lengthAdjust="spacing" textLength="14" x="210" y="863.9365">17</text><text fill="#000000" font-family="sans-serif" font-size="13" lengthAdjust="spacing" textLength="111" x="228" y="855.7607">POST /auth/refresh</text><text fill="#000000" font-family="sans-serif" font-size="13" lengthAdjust="spacing" textLength="95" x="228" y="872.1123">Cookie HttpOnly</text><polygon fill="#181818" points="699,903.3203,709,907.3203,699,911.3203,703,907.3203" style="stroke:#181818;stroke-width:1.0;"/><line style="stroke:#181818;stroke-width:1.0;" x1="472" x2="705" y1="907.3203" y2="907.3203"/><text fill="#000000" font-family="sans-serif" font-size="13" font-weight="bold" lengthAdjust="spacing" textLength="14" x="479" y="902.4639">18</text><text fill="#000000" font-family="sans-serif" font-size="13" lengthAdjust="spacing" textLength="65" x="497" y="902.4639">refresh(req)</text><polygon fill="#181818" points="949,933.6719,959,937.6719,949,941.6719,953,937.6719" style="stroke:#181818;stroke-width:1.0;"/><line style="stroke:#181818;stroke-width:1.0;" x1="711" x2="955" y1="937.6719" y2="937.6719"/><text fill="#000000" font-family="sans-serif" font-size="13" font-weight="bold" lengthAdjust="spacing" textLength="14" x="718" y="932.8154">19</text><text fill="#000000" font-family="sans-serif" font-size="13" lengthAdjust="spacing" textLength="105" x="736" y="932.8154">valida refresh ativo</text><line style="stroke:#181818;stroke-width:1.0;" x1="711" x2="753" y1="968.0234" y2="968.0234"/><line style="stroke:#181818;stroke-width:1.0;" x1="753" x2="753" y1="968.0234" y2="981.0234"/><line style="stroke:#181818;stroke-width:1.0;" x1="712" x2="753" y1="981.0234" y2="981.0234"/><polygon fill="#181818" points="722,977.0234,712,981.0234,722,985.0234,718,981.0234" style="stroke:#181818;stroke-width:1.0;"/><text fill="#000000" font-family="sans-serif" font-size="13" font-weight="bold" lengthAdjust="spacing" textLength="14" x="718" y="963.167">20</text><text fill="#000000" font-family="sans-serif" font-size="13" lengthAdjust="spacing" textLength="176" x="736" y="963.167">gera novo access token opaco</text><polygon fill="#181818" points="949,1023.7266,959,1027.7266,949,1031.7266,953,1027.7266" style="stroke:#181818;stroke-width:1.0;"/><line style="stroke:#181818;stroke-width:1.0;" x1="711" x2="955" y1="1027.7266" y2="1027.7266"/><text fill="#000000" font-family="sans-serif" font-size="13" font-weight="bold" lengthAdjust="spacing" textLength="14" x="718" y="1014.6943">21</text><text fill="#000000" font-family="sans-serif" font-size="13" lengthAdjust="spacing" textLength="197" x="736" y="1006.5186">atualiza auth_session.token_hash</text><text fill="#000000" font-family="sans-serif" font-size="13" lengthAdjust="spacing" textLength="180" x="736" y="1022.8701">(access anterior deixa de valer)</text><line style="stroke:#181818;stroke-width:1.0;" x1="711" x2="753" y1="1058.0781" y2="1058.0781"/><line style="stroke:#181818;stroke-width:1.0;" x1="753" x2="753" y1="1058.0781" y2="1071.0781"/><line style="stroke:#181818;stroke-width:1.0;" x1="712" x2="753" y1="1071.0781" y2="1071.0781"/><polygon fill="#181818" points="722,1067.0781,712,1071.0781,722,1075.0781,718,1071.0781" style="stroke:#181818;stroke-width:1.0;"/><text fill="#000000" font-family="sans-serif" font-size="13" font-weight="bold" lengthAdjust="spacing" textLength="14" x="718" y="1053.2217">22</text><text fill="#000000" font-family="sans-serif" font-size="13" lengthAdjust="spacing" textLength="173" x="736" y="1053.2217">gera novo refresh token opaco</text><polygon fill="#181818" points="949,1113.7813,959,1117.7813,949,1121.7813,953,1117.7813" style="stroke:#181818;stroke-width:1.0;"/><line style="stroke:#181818;stroke-width:1.0;" x1="711" x2="955" y1="1117.7813" y2="1117.7813"/><text fill="#000000" font-family="sans-serif" font-size="13" font-weight="bold" lengthAdjust="spacing" textLength="14" x="718" y="1104.749">23</text><text fill="#000000" font-family="sans-serif" font-size="13" lengthAdjust="spacing" textLength="165" x="736" y="1096.5732">refresh antigo -&gt; rotacionado</text><text fill="#000000" font-family="sans-serif" font-size="13" lengthAdjust="spacing" textLength="115" x="736" y="1112.9248">novo refresh -&gt; ativo</text><polygon fill="#181818" points="1085.5,1144.1328,1095.5,1148.1328,1085.5,1152.1328,1089.5,1148.1328" style="stroke:#181818;stroke-width:1.0;"/><line style="stroke:#181818;stroke-width:1.0;" x1="711" x2="1091.5" y1="1148.1328" y2="1148.1328"/><text fill="#000000" font-family="sans-serif" font-size="13" font-weight="bold" lengthAdjust="spacing" textLength="14" x="718" y="1143.2764">24</text><text fill="#000000" font-family="sans-serif" font-size="13" lengthAdjust="spacing" textLength="71" x="736" y="1143.2764">auth_refresh</text><polygon fill="#181818" points="483,1174.4844,473,1178.4844,483,1182.4844,479,1178.4844" style="stroke:#181818;stroke-width:1.0;"/><line style="stroke:#181818;stroke-width:1.0;stroke-dasharray:2.0,2.0;" x1="477" x2="710" y1="1178.4844" y2="1178.4844"/><text fill="#000000" font-family="sans-serif" font-size="13" font-weight="bold" lengthAdjust="spacing" textLength="14" x="489" y="1173.6279">25</text><text fill="#000000" font-family="sans-serif" font-size="13" lengthAdjust="spacing" textLength="197" x="507" y="1173.6279">novo access + novo refreshCookie</text><polygon fill="#181818" points="214,1221.1875,204,1225.1875,214,1229.1875,210,1225.1875" style="stroke:#181818;stroke-width:1.0;"/><line style="stroke:#181818;stroke-width:1.0;stroke-dasharray:2.0,2.0;" x1="208" x2="471" y1="1225.1875" y2="1225.1875"/><text fill="#000000" font-family="sans-serif" font-size="13" font-weight="bold" lengthAdjust="spacing" textLength="14" x="220" y="1212.1553">26</text><text fill="#000000" font-family="sans-serif" font-size="13" lengthAdjust="spacing" textLength="133" x="238" y="1203.9795">JSON com novo bearer</text><text fill="#000000" font-family="sans-serif" font-size="13" lengthAdjust="spacing" textLength="137" x="238" y="1220.3311">Set-Cookie novo refresh</text><rect fill="#EEEEEE" height="3" style="stroke:#EEEEEE;stroke-width:1.0;" width="1162" x="0" y="1254.3633"/><line style="stroke:#000000;stroke-width:1.0;" x1="0" x2="1162" y1="1254.3633" y2="1254.3633"/><line style="stroke:#000000;stroke-width:1.0;" x1="0" x2="1162" y1="1257.3633" y2="1257.3633"/><rect fill="#EEEEEE" height="24.3516" style="stroke:#000000;stroke-width:2.0;" width="129" x="516.5" y="1243.1875"/><text fill="#000000" font-family="sans-serif" font-size="13" font-weight="bold" lengthAdjust="spacing" textLength="111" x="522.5" y="1260.6826">Reuso bloqueado</text><polygon fill="#181818" points="460,1312.2422,470,1316.2422,460,1320.2422,464,1316.2422" style="stroke:#181818;stroke-width:1.0;"/><line style="stroke:#181818;stroke-width:1.0;" x1="203" x2="466" y1="1316.2422" y2="1316.2422"/><text fill="#000000" font-family="sans-serif" font-size="13" font-weight="bold" lengthAdjust="spacing" textLength="14" x="210" y="1303.21">27</text><text fill="#000000" font-family="sans-serif" font-size="13" lengthAdjust="spacing" textLength="111" x="228" y="1295.0342">POST /auth/refresh</text><text fill="#000000" font-family="sans-serif" font-size="13" lengthAdjust="spacing" textLength="150" x="228" y="1311.3857">Cookie antigo rotacionado</text><polygon fill="#181818" points="699,1342.5938,709,1346.5938,699,1350.5938,703,1346.5938" style="stroke:#181818;stroke-width:1.0;"/><line style="stroke:#181818;stroke-width:1.0;" x1="472" x2="705" y1="1346.5938" y2="1346.5938"/><text fill="#000000" font-family="sans-serif" font-size="13" font-weight="bold" lengthAdjust="spacing" textLength="14" x="479" y="1341.7373">28</text><text fill="#000000" font-family="sans-serif" font-size="13" lengthAdjust="spacing" textLength="65" x="497" y="1341.7373">refresh(req)</text><polygon fill="#181818" points="949,1372.9453,959,1376.9453,949,1380.9453,953,1376.9453" style="stroke:#181818;stroke-width:1.0;"/><line style="stroke:#181818;stroke-width:1.0;" x1="711" x2="955" y1="1376.9453" y2="1376.9453"/><text fill="#000000" font-family="sans-serif" font-size="13" font-weight="bold" lengthAdjust="spacing" textLength="14" x="718" y="1372.0889">29</text><text fill="#000000" font-family="sans-serif" font-size="13" lengthAdjust="spacing" textLength="141" x="736" y="1372.0889">detecta refresh n&#227;o ativo</text><polygon fill="#181818" points="949,1403.2969,959,1407.2969,949,1411.2969,953,1407.2969" style="stroke:#181818;stroke-width:1.0;"/><line style="stroke:#181818;stroke-width:1.0;" x1="711" x2="955" y1="1407.2969" y2="1407.2969"/><text fill="#000000" font-family="sans-serif" font-size="13" font-weight="bold" lengthAdjust="spacing" textLength="14" x="718" y="1402.4404">30</text><text fill="#000000" font-family="sans-serif" font-size="13" lengthAdjust="spacing" textLength="178" x="736" y="1402.4404">marca refresh como reutilizado</text><polygon fill="#181818" points="949,1450,959,1454,949,1458,953,1454" style="stroke:#181818;stroke-width:1.0;"/><line style="stroke:#181818;stroke-width:1.0;" x1="711" x2="955" y1="1454" y2="1454"/><text fill="#000000" font-family="sans-serif" font-size="13" font-weight="bold" lengthAdjust="spacing" textLength="14" x="718" y="1440.9678">31</text><text fill="#000000" font-family="sans-serif" font-size="13" lengthAdjust="spacing" textLength="182" x="736" y="1432.792">revoga fam&#237;lia de refresh tokens</text><text fill="#000000" font-family="sans-serif" font-size="13" lengthAdjust="spacing" textLength="123" x="736" y="1449.1436">e sess&#227;o relacionada</text><polygon fill="#181818" points="1085.5,1480.3516,1095.5,1484.3516,1085.5,1488.3516,1089.5,1484.3516" style="stroke:#181818;stroke-width:1.0;"/><line style="stroke:#181818;stroke-width:1.0;" x1="711" x2="1091.5" y1="1484.3516" y2="1484.3516"/><text fill="#000000" font-family="sans-serif" font-size="13" font-weight="bold" lengthAdjust="spacing" textLength="14" x="718" y="1479.4951">32</text><text fill="#000000" font-family="sans-serif" font-size="13" lengthAdjust="spacing" textLength="167" x="736" y="1479.4951">auth_refresh_reuse_detected</text><polygon fill="#181818" points="214,1510.7031,204,1514.7031,214,1518.7031,210,1514.7031" style="stroke:#181818;stroke-width:1.0;"/><line style="stroke:#181818;stroke-width:1.0;stroke-dasharray:2.0,2.0;" x1="208" x2="471" y1="1514.7031" y2="1514.7031"/><text fill="#000000" font-family="sans-serif" font-size="13" font-weight="bold" lengthAdjust="spacing" textLength="14" x="220" y="1509.8467">33</text><text fill="#000000" font-family="sans-serif" font-size="13" lengthAdjust="spacing" textLength="227" x="238" y="1509.8467">401 REFRESH_TOKEN_REUTILIZADO</text><!--SRC=[bLNDRXen4BxxAKQSYDAKLke9YKf9GvgqgAGiwQ52MWsx0rZPjOdjfKbFVOY-GDL3rKEVWZVfatHi5i9ko4yl86O-Zx_vvXlZfCi8Udeg5H0CQ6B8pk3lj-ymr9Uae3_7HCC-lD7wKXASEZVlg-n6OE6qAl8n6M4lfPgZmHpi35FzHQefJ32p90GcJXjeNDXY-SD83L8vCaet02rSM3xBvvnCv1oLWyQ9qPnNATFWWwrFqb50hkDLzE7v6NIlvypNZbIB-Sm2cCCr76SYCWkPhAhvto95XsEq18teOu_l0NG5PYFLFDVMJGrn52Q5AupU2uUEZ-f5KycjIGIt_9qecM1PcyD2-DRWuFM6EBIvyuasEKBcbMvPKZCKcpH3VJTjEEz7GmYzj09G-B3FSeJJ8TQSuqscCNq6XgxsH4WnvFY80UF29WY5BP3LZakrDv2ooW8pcI843ZnpwxXtMmTDoI1Wah2wu88Jj7T2zRgfmGMZE1HR1agjdWTiF4CxsrdHb0PxIiaI6mVixiAiDfy9w5AlaDheMMbWVttxoiihRQjJUXVrFq2YSnWJ6Z8Z5P4xAAsF2QQKIumjhga9fTawHavd3lGaM6y5RelDeaIOKyGEw_JmMaIK58PBpKcnMoY7kT5faJXMZltbPfqmU-79-D9YXqNUTjSEoMcaVBzimw_eIxJXAD0kswwPXmdhR47HQb1XkvihOCr4fJ-yr9xYzdXtQLQibvk1f7X5-0qGejFXBLPwWSjVovyQEfs7tLuAEbBrTwRUGu0rxpg_9Bts5-knq3iTo9pqeyOEhm6hUf-tHslf0FsEINxaKfBNo9-U2Pcz- -z-T0KsFR2OK-t3HZjCc04hErAL8foijxgr4skRrhPYMuBz2gadR4Q0xrYFxJBb-0lBo4nV5SJ4_zi2PVjRlJ_P32avIjoj6vItO5MdWClH9BSexivtK3ZfHv_UcSf2Jv7_sFBbdqo6ILScoNz2_9QofFukGrb96X-S37yNbk8LNqft2V_gnKiOT4y6tUWq7lRVTp_4W-x5yAntzldmkFyF]--></g></svg>