<?xml version="1.0" encoding="us-ascii" standalone="no"?><svg xmlns="http://www.w3.org/2000/svg" xmlns:xlink="http://www.w3.org/1999/xlink" contentStyleType="text/css" height="843px" preserveAspectRatio="none" style="width:1176px;height:843px;background:#FFFFFF;" version="1.1" viewBox="0 0 1176 843" width="1176px" zoomAndPan="magnify"><defs/><g><text fill="#000000" font-family="sans-serif" font-size="14" font-weight="bold" lengthAdjust="spacing" textLength="369.4375" x="405.0313" y="29.5332">Pagamento de Mensalidade &#8212; Sequ&#234;ncia Conceitual</text><line style="stroke:#181818;stroke-width:0.5;stroke-dasharray:5.0,5.0;" x1="67" x2="67" y1="124.8281" y2="746.5625"/><line style="stroke:#181818;stroke-width:0.5;stroke-dasharray:5.0,5.0;" x1="212.5" x2="212.5" y1="124.8281" y2="746.5625"/><line style="stroke:#181818;stroke-width:0.5;stroke-dasharray:5.0,5.0;" x1="428" x2="428" y1="124.8281" y2="746.5625"/><line style="stroke:#181818;stroke-width:0.5;stroke-dasharray:5.0,5.0;" x1="630.5" x2="630.5" y1="124.8281" y2="746.5625"/><line style="stroke:#181818;stroke-width:0.5;stroke-dasharray:5.0,5.0;" x1="831" x2="831" y1="124.8281" y2="746.5625"/><line style="stroke:#181818;stroke-width:0.5;stroke-dasharray:5.0,5.0;" x1="964" x2="964" y1="124.8281" y2="746.5625"/><line style="stroke:#181818;stroke-width:0.5;stroke-dasharray:5.0,5.0;" x1="1108.5" x2="1108.5" y1="124.8281" y2="746.5625"/><text fill="#000000" font-family="sans-serif" font-size="14" lengthAdjust="spacing" textLength="118" x="5" y="121.752">Usu&#225;rio autorizado</text><ellipse cx="67" cy="55.7188" fill="#E2E2F0" rx="8" ry="8" style="stroke:#181818;stroke-width:0.5;"/><path d="M67,63.7188 L67,90.7188 M54,71.7188 L80,71.7188 M67,90.7188 L54,105.7188 M67,90.7188 L80,105.7188 " fill="none" style="stroke:#181818;stroke-width:0.5;"/><text fill="#000000" font-family="sans-serif" font-size="14" lengthAdjust="spacing" textLength="118" x="5" y="760.0957">Usu&#225;rio autorizado</text><ellipse cx="67" cy="771.6719" fill="#E2E2F0" rx="8" ry="8" style="stroke:#181818;stroke-width:0.5;"/><path d="M67,779.6719 L67,806.6719 M54,787.6719 L80,787.6719 M67,806.6719 L54,821.6719 M67,806.6719 L80,821.6719 " fill="none" style="stroke:#181818;stroke-width:0.5;"/><rect fill="#E2E2F0" height="31.6094" rx="2.5" ry="2.5" style="stroke:#181818;stroke-width:0.5;" width="141" x="142.5" y="92.2188"/><text fill="#000000" font-family="sans-serif" font-size="14" lengthAdjust="spacing" textLength="127" x="149.5" y="113.752">Frontend React/Vite</text><rect fill="#E2E2F0" height="31.6094" rx="2.5" ry="2.5" style="stroke:#181818;stroke-width:0.5;" width="141" x="142.5" y="745.5625"/><text fill="#000000" font-family="sans-serif" font-size="14" lengthAdjust="spacing" textLength="127" x="149.5" y="767.0957">Frontend React/Vite</text><rect fill="#E2E2F0" height="49.2188" rx="2.5" ry="2.5" style="stroke:#181818;stroke-width:0.5;" width="130" x="363" y="74.6094"/><text fill="#000000" font-family="sans-serif" font-size="14" lengthAdjust="spacing" textLength="116" x="370" y="96.1426">Rota pagamentos/</text><text fill="#000000" font-family="sans-serif" font-size="14" lengthAdjust="spacing" textLength="87" x="384.5" y="113.752">mensalidades</text><rect fill="#E2E2F0" height="49.2188" rx="2.5" ry="2.5" style="stroke:#181818;stroke-width:0.5;" width="130" x="363" y="745.5625"/><text fill="#000000" font-family="sans-serif" font-size="14" lengthAdjust="spacing" textLength="116" x="370" y="767.0957">Rota pagamentos/</text><text fill="#000000" font-family="sans-serif" font-size="14" lengthAdjust="spacing" textLength="87" x="384.5" y="784.7051">mensalidades</text><rect fill="#E2E2F0" height="31.6094" rx="2.5" ry="2.5" style="stroke:#181818;stroke-width:0.5;" width="141" x="560.5" y="92.2188"/><text fill="#000000" font-family="sans-serif" font-size="14" lengthAdjust="spacing" textLength="127" x="567.5" y="113.752">MensalidadeService</text><rect fill="#E2E2F0" height="31.6094" rx="2.5" ry="2.5" style="stroke:#181818;stroke-width:0.5;" width="141" x="560.5" y="745.5625"/><text fill="#000000" font-family="sans-serif" font-size="14" lengthAdjust="spacing" textLength="127" x="567.5" y="767.0957">MensalidadeService</text><rect fill="#E2E2F0" height="31.6094" rx="2.5" ry="2.5" style="stroke:#181818;stroke-width:0.5;" width="128" x="767" y="92.2188"/><text fill="#000000" font-family="sans-serif" font-size="14" lengthAdjust="spacing" textLength="114" x="774" y="113.752">FinanceiroService</text><rect fill="#E2E2F0" height="31.6094" rx="2.5" ry="2.5" style="stroke:#181818;stroke-width:0.5;" width="128" x="767" y="745.5625"/><text fill="#000000" font-family="sans-serif" font-size="14" lengthAdjust="spacing" textLength="114" x="774" y="767.0957">FinanceiroService</text><rect fill="#E2E2F0" height="31.6094" rx="2.5" ry="2.5" style="stroke:#181818;stroke-width:0.5;" width="119" x="905" y="92.2188"/><text fill="#000000" font-family="sans-serif" font-size="14" lengthAdjust="spacing" textLength="105" x="912" y="113.752">Auditoria t&#233;cnica</text><rect fill="#E2E2F0" height="31.6094" rx="2.5" ry="2.5" style="stroke:#181818;stroke-width:0.5;" width="119" x="905" y="745.5625"/><text fill="#000000" font-family="sans-serif" font-size="14" lengthAdjust="spacing" textLength="105" x="912" y="767.0957">Auditoria t&#233;cnica</text><text fill="#000000" font-family="sans-serif" font-size="14" lengthAdjust="spacing" textLength="122" x="1044.5" y="104.1426">Banco SQLite atual</text><text fill="#000000" font-family="sans-serif" font-size="14" lengthAdjust="spacing" textLength="128" x="1041.5" y="121.752">(PostgreSQL futuro)</text><path d="M1090.5,53.6094 C1090.5,43.6094 1108.5,43.6094 1108.5,43.6094 C1108.5,43.6094 1126.5,43.6094 1126.5,53.6094 L1126.5,79.6094 C1126.5,89.6094 1108.5,89.6094 1108.5,89.6094 C1108.5,89.6094 1090.5,89.6094 1090.5,79.6094 L1090.5,53.6094 " fill="#E2E2F0" style="stroke:#181818;stroke-width:1.5;"/><path d="M1090.5,53.6094 C1090.5,63.6094 1108.5,63.6094 1108.5,63.6094 C1108.5,63.6094 1126.5,63.6094 1126.5,53.6094 " fill="none" style="stroke:#181818;stroke-width:1.5;"/><text fill="#000000" font-family="sans-serif" font-size="14" lengthAdjust="spacing" textLength="122" x="1044.5" y="760.0957">Banco SQLite atual</text><text fill="#000000" font-family="sans-serif" font-size="14" lengthAdjust="spacing" textLength="128" x="1041.5" y="777.7051">(PostgreSQL futuro)</text><path d="M1090.5,790.7813 C1090.5,780.7813 1108.5,780.7813 1108.5,780.7813 C1108.5,780.7813 1126.5,780.7813 1126.5,790.7813 L1126.5,816.7813 C1126.5,826.7813 1108.5,826.7813 1108.5,826.7813 C1108.5,826.7813 1090.5,826.7813 1090.5,816.7813 L1090.5,790.7813 " fill="#E2E2F0" style="stroke:#181818;stroke-width:1.5;"/><path d="M1090.5,790.7813 C1090.5,800.7813 1108.5,800.7813 1108.5,800.7813 C1108.5,800.7813 1126.5,800.7813 1126.5,790.7813 " fill="none" style="stroke:#181818;stroke-width:1.5;"/><polygon fill="#181818" points="201,153.1797,211,157.1797,201,161.1797,205,157.1797" style="stroke:#181818;stroke-width:1.0;"/><line style="stroke:#181818;stroke-width:1.0;" x1="67" x2="207" y1="157.1797" y2="157.1797"/><text fill="#000000" font-family="sans-serif" font-size="13" font-weight="bold" lengthAdjust="spacing" textLength="7" x="74" y="152.3232">1</text><text fill="#000000" font-family="sans-serif" font-size="13" lengthAdjust="spacing" textLength="111" x="85" y="152.3232">registra pagamento</text><polygon fill="#181818" points="416,199.8828,426,203.8828,416,207.8828,420,203.8828" style="stroke:#181818;stroke-width:1.0;"/><line style="stroke:#181818;stroke-width:1.0;" x1="213" x2="422" y1="203.8828" y2="203.8828"/><text fill="#000000" font-family="sans-serif" font-size="13" font-weight="bold" lengthAdjust="spacing" textLength="7" x="220" y="190.8506">2</text><text fill="#000000" font-family="sans-serif" font-size="13" lengthAdjust="spacing" textLength="180" x="231" y="182.6748">POST pagamento/mensalidade</text><text fill="#000000" font-family="sans-serif" font-size="13" lengthAdjust="spacing" textLength="74" x="231" y="199.0264">Bearer token</text><line style="stroke:#181818;stroke-width:1.0;" x1="428" x2="470" y1="250.5859" y2="250.5859"/><line style="stroke:#181818;stroke-width:1.0;" x1="470" x2="470" y1="250.5859" y2="263.5859"/><line style="stroke:#181818;stroke-width:1.0;" x1="429" x2="470" y1="263.5859" y2="263.5859"/><polygon fill="#181818" points="439,259.5859,429,263.5859,439,267.5859,435,263.5859" style="stroke:#181818;stroke-width:1.0;"/><text fill="#000000" font-family="sans-serif" font-size="13" font-weight="bold" lengthAdjust="spacing" textLength="7" x="435" y="237.5537">3</text><text fill="#000000" font-family="sans-serif" font-size="13" lengthAdjust="spacing" textLength="114" x="446" y="229.3779">valida autentica&#231;&#227;o,</text><text fill="#000000" font-family="sans-serif" font-size="13" lengthAdjust="spacing" textLength="117" x="446" y="245.7295">permiss&#227;o e escopo</text><polygon fill="#181818" points="619,289.9375,629,293.9375,619,297.9375,623,293.9375" style="stroke:#181818;stroke-width:1.0;"/><line style="stroke:#181818;stroke-width:1.0;" x1="428" x2="625" y1="293.9375" y2="293.9375"/><text fill="#000000" font-family="sans-serif" font-size="13" font-weight="bold" lengthAdjust="spacing" textLength="7" x="435" y="289.0811">4</text><text fill="#000000" font-family="sans-serif" font-size="13" lengthAdjust="spacing" textLength="168" x="446" y="289.0811">registrar pagamento(payload)</text><polygon fill="#181818" points="1096.5,320.2891,1106.5,324.2891,1096.5,328.2891,1100.5,324.2891" style="stroke:#181818;stroke-width:1.0;"/><line style="stroke:#181818;stroke-width:1.0;" x1="631" x2="1102.5" y1="324.2891" y2="324.2891"/><text fill="#000000" font-family="sans-serif" font-size="13" font-weight="bold" lengthAdjust="spacing" textLength="7" x="638" y="319.4326">5</text><text fill="#000000" font-family="sans-serif" font-size="13" lengthAdjust="spacing" textLength="182" x="649" y="319.4326">busca mensalidade/aluno/plano</text><line style="stroke:#181818;stroke-width:1.0;" x1="631" x2="673" y1="370.9922" y2="370.9922"/><line style="stroke:#181818;stroke-width:1.0;" x1="673" x2="673" y1="370.9922" y2="383.9922"/><line style="stroke:#181818;stroke-width:1.0;" x1="632" x2="673" y1="383.9922" y2="383.9922"/><polygon fill="#181818" points="642,379.9922,632,383.9922,642,387.9922,638,383.9922" style="stroke:#181818;stroke-width:1.0;"/><text fill="#000000" font-family="sans-serif" font-size="13" font-weight="bold" lengthAdjust="spacing" textLength="7" x="638" y="357.96">6</text><text fill="#000000" font-family="sans-serif" font-size="13" lengthAdjust="spacing" textLength="145" x="649" y="349.7842">valida status, vencimento</text><text fill="#000000" font-family="sans-serif" font-size="13" lengthAdjust="spacing" textLength="124" x="649" y="366.1357">e fechamento mensal</text><polygon fill="#181818" points="1096.5,410.3438,1106.5,414.3438,1096.5,418.3438,1100.5,414.3438" style="stroke:#181818;stroke-width:1.0;"/><line style="stroke:#181818;stroke-width:1.0;" x1="631" x2="1102.5" y1="414.3438" y2="414.3438"/><text fill="#000000" font-family="sans-serif" font-size="13" font-weight="bold" lengthAdjust="spacing" textLength="7" x="638" y="409.4873">7</text><text fill="#000000" font-family="sans-serif" font-size="13" lengthAdjust="spacing" textLength="237" x="649" y="409.4873">grava pagamento com snapshot hist&#243;rico</text><polygon fill="#181818" points="1096.5,440.6953,1106.5,444.6953,1096.5,448.6953,1100.5,444.6953" style="stroke:#181818;stroke-width:1.0;"/><line style="stroke:#181818;stroke-width:1.0;" x1="631" x2="1102.5" y1="444.6953" y2="444.6953"/><text fill="#000000" font-family="sans-serif" font-size="13" font-weight="bold" lengthAdjust="spacing" textLength="7" x="638" y="439.8389">8</text><text fill="#000000" font-family="sans-serif" font-size="13" lengthAdjust="spacing" textLength="180" x="649" y="439.8389">atualiza status da mensalidade</text><polygon fill="#181818" points="819,487.3984,829,491.3984,819,495.3984,823,491.3984" style="stroke:#181818;stroke-width:1.0;"/><line style="stroke:#181818;stroke-width:1.0;" x1="631" x2="825" y1="491.3984" y2="491.3984"/><text fill="#000000" font-family="sans-serif" font-size="13" font-weight="bold" lengthAdjust="spacing" textLength="7" x="638" y="478.3662">9</text><text fill="#000000" font-family="sans-serif" font-size="13" lengthAdjust="spacing" textLength="165" x="649" y="470.1904">reflete lan&#231;amento financeiro</text><text fill="#000000" font-family="sans-serif" font-size="13" lengthAdjust="spacing" textLength="95" x="649" y="486.542">quando aplic&#225;vel</text><polygon fill="#181818" points="1096.5,517.75,1106.5,521.75,1096.5,525.75,1100.5,521.75" style="stroke:#181818;stroke-width:1.0;"/><line style="stroke:#181818;stroke-width:1.0;" x1="831" x2="1102.5" y1="521.75" y2="521.75"/><text fill="#000000" font-family="sans-serif" font-size="13" font-weight="bold" lengthAdjust="spacing" textLength="14" x="838" y="516.8936">10</text><text fill="#000000" font-family="sans-serif" font-size="13" lengthAdjust="spacing" textLength="199" x="856" y="516.8936">grava/atualiza registros financeiros</text><polygon fill="#181818" points="952.5,564.4531,962.5,568.4531,952.5,572.4531,956.5,568.4531" style="stroke:#181818;stroke-width:1.0;"/><line style="stroke:#181818;stroke-width:1.0;" x1="631" x2="958.5" y1="568.4531" y2="568.4531"/><text fill="#000000" font-family="sans-serif" font-size="13" font-weight="bold" lengthAdjust="spacing" textLength="14" x="638" y="555.4209">11</text><text fill="#000000" font-family="sans-serif" font-size="13" lengthAdjust="spacing" textLength="159" x="656" y="547.2451">registra ator, m&#243;dulo, a&#231;&#227;o,</text><text fill="#000000" font-family="sans-serif" font-size="13" lengthAdjust="spacing" textLength="143" x="656" y="563.5967">antes/depois e metadata</text><polygon fill="#181818" points="1096.5,594.8047,1106.5,598.8047,1096.5,602.8047,1100.5,598.8047" style="stroke:#181818;stroke-width:1.0;"/><line style="stroke:#181818;stroke-width:1.0;" x1="964.5" x2="1102.5" y1="598.8047" y2="598.8047"/><text fill="#000000" font-family="sans-serif" font-size="13" font-weight="bold" lengthAdjust="spacing" textLength="14" x="971.5" y="593.9482">12</text><text fill="#000000" font-family="sans-serif" font-size="13" lengthAdjust="spacing" textLength="102" x="989.5" y="593.9482">INSERT audit_log</text><polygon fill="#181818" points="439,625.1563,429,629.1563,439,633.1563,435,629.1563" style="stroke:#181818;stroke-width:1.0;"/><line style="stroke:#181818;stroke-width:1.0;stroke-dasharray:2.0,2.0;" x1="433" x2="630" y1="629.1563" y2="629.1563"/><text fill="#000000" font-family="sans-serif" font-size="13" font-weight="bold" lengthAdjust="spacing" textLength="14" x="445" y="624.2998">13</text><text fill="#000000" font-family="sans-serif" font-size="13" lengthAdjust="spacing" textLength="139" x="463" y="624.2998">resultado do pagamento</text><polygon fill="#181818" points="224,655.5078,214,659.5078,224,663.5078,220,659.5078" style="stroke:#181818;stroke-width:1.0;"/><line style="stroke:#181818;stroke-width:1.0;stroke-dasharray:2.0,2.0;" x1="218" x2="427" y1="659.5078" y2="659.5078"/><text fill="#000000" font-family="sans-serif" font-size="13" font-weight="bold" lengthAdjust="spacing" textLength="14" x="230" y="654.6514">14</text><text fill="#000000" font-family="sans-serif" font-size="13" lengthAdjust="spacing" textLength="125" x="248" y="654.6514">pagamento registrado</text><path d="M562,672.5078 L562,731.5078 L900,731.5078 L900,682.5078 L890,672.5078 L562,672.5078 " fill="#FEFFDD" style="stroke:#181818;stroke-width:0.5;"/><path d="M890,672.5078 L890,682.5078 L900,682.5078 L890,672.5078 " fill="#FEFFDD" style="stroke:#181818;stroke-width:0.5;"/><text fill="#000000" font-family="sans-serif" font-size="13" lengthAdjust="spacing" textLength="300" x="568" y="691.0029">Status de fechamento mensal e revers&#227;o controlada</text><text fill="#000000" font-family="sans-serif" font-size="13" lengthAdjust="spacing" textLength="261" x="568" y="707.3545">est&#227;o documentados como cobertura parcial:</text><text fill="#000000" font-family="sans-serif" font-size="13" lengthAdjust="spacing" textLength="317" x="568" y="723.7061">devem ser validados em todas as opera&#231;&#245;es sens&#237;veis.</text><!--SRC=[RLHBRXD14DttAKfU9PB1-ooGC049YK-m4rQMKAMdRBVIxfhqPn2iE0GNYBA8G68LSOAv2IUXUloP7YkI5tRvlQxtgbvtDD4INE0AD-GYGqNmdbn0QogKx_z-_8GvtQRsjzC6uHKxJIOcj0fJP9Ssr-HLk36kHeyR26ki-AjnArYY3QGKwiWUHbSXjNVUC6IMDzy5DG8CS1M4BjHejAdHHHYzyUmYkGfc9Dp9PnEfG-xhG_IC8qAz5nyc2xVfnOUEEECKQSWg3Cx9DqPlMnJb8qt6OVRjkOJtrI7wPQfCDeaGsr_Q6OqTl2kh2YDUOo0OJONCCF_qJXm2vf4ktCa5XxZo95LOffWydtRSywbIULJmxCLX4706dbOcH5zCG1t-5MJdN60N7-UNFMHIJ6ZXfeHUperyGqvj2GMpwN1vQS8K8-r3Uy_ZXQl9Rqm8yWC8A6YkkIUNyUar-bx1IOtVB6DrgageCC-dGhXEGICK8YTea-D9RT7nCMFOQoStH1bd64D3ajckuy8HB4clTndV7lvazvN7ffWdQ9PGEwp3cYEinKdxw8tc9xdT4YNREm5G3MmSK_huT5DQMfBnYSVsOTTwUG0it6r2LydjgQtHxLr3LXNqWVR9GSLkyXoAayAnYYwLPPHGeZk6JVjO9SjZEAnSearXKb7D9iZIDnGnPrbj3zXBUFjX_dfsAO6HuXVBgs6x8bcUGh9oX3muNCHt5w9XpFjjx5LMh9HZGN8ZuIrwZ8jBETzjuOdLYm5FGkqIhAMHPojs5Cb-xxCadJ9S-eISW8oHTqxkOuw6buVGdgbA3f1iIFzjx39M2f4hkR3oORaaUNf_AGZAXVPFGoOyLzbJrluV]--></g></svg>