<?xml version="1.0" encoding="us-ascii" standalone="no"?><svg xmlns="http://www.w3.org/2000/svg" xmlns:xlink="http://www.w3.org/1999/xlink" contentStyleType="text/css" height="906px" preserveAspectRatio="none" style="width:1441px;height:906px;background:#FFFFFF;" version="1.1" viewBox="0 0 1441 906" width="1441px" zoomAndPan="magnify"><defs/><g><text fill="#000000" font-family="sans-serif" font-size="14" font-weight="bold" lengthAdjust="spacing" textLength="241" x="601" y="29.5332">Verifica&#231;&#227;o e Libera&#231;&#227;o de Acesso</text><rect fill="none" height="216.2969" style="stroke:#000000;stroke-width:1.5;" width="1125" x="309" y="487.6953"/><line style="stroke:#181818;stroke-width:0.5;stroke-dasharray:5.0,5.0;" x1="63" x2="63" y1="138.8281" y2="806.3984"/><line style="stroke:#181818;stroke-width:0.5;stroke-dasharray:5.0,5.0;" x1="189" x2="189" y1="138.8281" y2="806.3984"/><line style="stroke:#181818;stroke-width:0.5;stroke-dasharray:5.0,5.0;" x1="391" x2="391" y1="138.8281" y2="806.3984"/><line style="stroke:#181818;stroke-width:0.5;stroke-dasharray:5.0,5.0;" x1="581.5" x2="581.5" y1="138.8281" y2="806.3984"/><line style="stroke:#181818;stroke-width:0.5;stroke-dasharray:5.0,5.0;" x1="796" x2="796" y1="138.8281" y2="806.3984"/><line style="stroke:#181818;stroke-width:0.5;stroke-dasharray:5.0,5.0;" x1="1073" x2="1073" y1="138.8281" y2="806.3984"/><line style="stroke:#181818;stroke-width:0.5;stroke-dasharray:5.0,5.0;" x1="1220" x2="1220" y1="138.8281" y2="806.3984"/><line style="stroke:#181818;stroke-width:0.5;stroke-dasharray:5.0,5.0;" x1="1357" x2="1357" y1="138.8281" y2="806.3984"/><text fill="#000000" font-family="sans-serif" font-size="14" lengthAdjust="spacing" textLength="111" x="5" y="135.752">operador_acesso</text><ellipse cx="63.5" cy="69.7188" fill="#E2E2F0" rx="8" ry="8" style="stroke:#181818;stroke-width:0.5;"/><path d="M63.5,77.7188 L63.5,104.7188 M50.5,85.7188 L76.5,85.7188 M63.5,104.7188 L50.5,119.7188 M63.5,104.7188 L76.5,119.7188 " fill="none" style="stroke:#181818;stroke-width:0.5;"/><text fill="#000000" font-family="sans-serif" font-size="14" lengthAdjust="spacing" textLength="111" x="5" y="819.9316">operador_acesso</text><ellipse cx="63.5" cy="831.5078" fill="#E2E2F0" rx="8" ry="8" style="stroke:#181818;stroke-width:0.5;"/><path d="M63.5,839.5078 L63.5,866.5078 M50.5,847.5078 L76.5,847.5078 M63.5,866.5078 L50.5,881.5078 M63.5,866.5078 L76.5,881.5078 " fill="none" style="stroke:#181818;stroke-width:0.5;"/><text fill="#000000" font-family="sans-serif" font-size="14" lengthAdjust="spacing" textLength="108" x="132" y="118.1426">Integra&#231;&#227;o futura</text><text fill="#000000" font-family="sans-serif" font-size="14" lengthAdjust="spacing" textLength="98" x="137" y="135.752">catraca/c&#226;mera</text><ellipse cx="189" cy="52.1094" fill="#E2E2F0" rx="8" ry="8" style="stroke:#181818;stroke-width:0.5;"/><path d="M189,60.1094 L189,87.1094 M176,68.1094 L202,68.1094 M189,87.1094 L176,102.1094 M189,87.1094 L202,102.1094 " fill="none" style="stroke:#181818;stroke-width:0.5;"/><text fill="#000000" font-family="sans-serif" font-size="14" lengthAdjust="spacing" textLength="108" x="132" y="819.9316">Integra&#231;&#227;o futura</text><text fill="#000000" font-family="sans-serif" font-size="14" lengthAdjust="spacing" textLength="98" x="137" y="837.541">catraca/c&#226;mera</text><ellipse cx="189" cy="849.1172" fill="#E2E2F0" rx="8" ry="8" style="stroke:#181818;stroke-width:0.5;"/><path d="M189,857.1172 L189,884.1172 M176,865.1172 L202,865.1172 M189,884.1172 L176,899.1172 M189,884.1172 L202,899.1172 " fill="none" style="stroke:#181818;stroke-width:0.5;"/><rect fill="#E2E2F0" height="31.6094" rx="2.5" ry="2.5" style="stroke:#181818;stroke-width:0.5;" width="144" x="319" y="106.2188"/><text fill="#000000" font-family="sans-serif" font-size="14" lengthAdjust="spacing" textLength="130" x="326" y="127.752">Frontend/Dispositivo</text><rect fill="#E2E2F0" height="31.6094" rx="2.5" ry="2.5" style="stroke:#181818;stroke-width:0.5;" width="144" x="319" y="805.3984"/><text fill="#000000" font-family="sans-serif" font-size="14" lengthAdjust="spacing" textLength="130" x="326" y="826.9316">Frontend/Dispositivo</text><rect fill="#E2E2F0" height="49.2188" rx="2.5" ry="2.5" style="stroke:#181818;stroke-width:0.5;" width="89" x="537.5" y="88.6094"/><text fill="#000000" font-family="sans-serif" font-size="14" lengthAdjust="spacing" textLength="75" x="544.5" y="110.1426">API Express</text><text fill="#000000" font-family="sans-serif" font-size="14" lengthAdjust="spacing" textLength="56" x="554" y="127.752">/acessos</text><rect fill="#E2E2F0" height="49.2188" rx="2.5" ry="2.5" style="stroke:#181818;stroke-width:0.5;" width="89" x="537.5" y="805.3984"/><text fill="#000000" font-family="sans-serif" font-size="14" lengthAdjust="spacing" textLength="75" x="544.5" y="826.9316">API Express</text><text fill="#000000" font-family="sans-serif" font-size="14" lengthAdjust="spacing" textLength="56" x="554" y="844.541">/acessos</text><rect fill="#E2E2F0" height="31.6094" rx="2.5" ry="2.5" style="stroke:#181818;stroke-width:0.5;" width="106" x="743" y="106.2188"/><text fill="#000000" font-family="sans-serif" font-size="14" lengthAdjust="spacing" textLength="92" x="750" y="127.752">AccessService</text><rect fill="#E2E2F0" height="31.6094" rx="2.5" ry="2.5" style="stroke:#181818;stroke-width:0.5;" width="106" x="743" y="805.3984"/><text fill="#000000" font-family="sans-serif" font-size="14" lengthAdjust="spacing" textLength="92" x="750" y="826.9316">AccessService</text><text fill="#000000" font-family="sans-serif" font-size="14" lengthAdjust="spacing" textLength="150" x="995" y="118.1426">Alunos / Mensalidades /</text><text fill="#000000" font-family="sans-serif" font-size="14" lengthAdjust="spacing" textLength="105" x="1017.5" y="135.752">V&#237;nculos / Status</text><path d="M1055,67.6094 C1055,57.6094 1073,57.6094 1073,57.6094 C1073,57.6094 1091,57.6094 1091,67.6094 L1091,93.6094 C1091,103.6094 1073,103.6094 1073,103.6094 C1073,103.6094 1055,103.6094 1055,93.6094 L1055,67.6094 " fill="#E2E2F0" style="stroke:#181818;stroke-width:1.5;"/><path d="M1055,67.6094 C1055,77.6094 1073,77.6094 1073,77.6094 C1073,77.6094 1091,77.6094 1091,67.6094 " fill="none" style="stroke:#181818;stroke-width:1.5;"/><text fill="#000000" font-family="sans-serif" font-size="14" lengthAdjust="spacing" textLength="150" x="995" y="819.9316">Alunos / Mensalidades /</text><text fill="#000000" font-family="sans-serif" font-size="14" lengthAdjust="spacing" textLength="105" x="1017.5" y="837.541">V&#237;nculos / Status</text><path d="M1055,850.6172 C1055,840.6172 1073,840.6172 1073,840.6172 C1073,840.6172 1091,840.6172 1091,850.6172 L1091,876.6172 C1091,886.6172 1073,886.6172 1073,886.6172 C1073,886.6172 1055,886.6172 1055,876.6172 L1055,850.6172 " fill="#E2E2F0" style="stroke:#181818;stroke-width:1.5;"/><path d="M1055,850.6172 C1055,860.6172 1073,860.6172 1073,860.6172 C1073,860.6172 1091,860.6172 1091,850.6172 " fill="none" style="stroke:#181818;stroke-width:1.5;"/><rect fill="#E2E2F0" height="31.6094" rx="2.5" ry="2.5" style="stroke:#181818;stroke-width:0.5;" width="119" x="1161" y="106.2188"/><text fill="#000000" font-family="sans-serif" font-size="14" lengthAdjust="spacing" textLength="105" x="1168" y="127.752">Auditoria t&#233;cnica</text><rect fill="#E2E2F0" height="31.6094" rx="2.5" ry="2.5" style="stroke:#181818;stroke-width:0.5;" width="119" x="1161" y="805.3984"/><text fill="#000000" font-family="sans-serif" font-size="14" lengthAdjust="spacing" textLength="105" x="1168" y="826.9316">Auditoria t&#233;cnica</text><text fill="#000000" font-family="sans-serif" font-size="14" lengthAdjust="spacing" textLength="122" x="1293" y="118.1426">Banco SQLite atual</text><text fill="#000000" font-family="sans-serif" font-size="14" lengthAdjust="spacing" textLength="128" x="1290" y="135.752">(PostgreSQL futuro)</text><path d="M1339,67.6094 C1339,57.6094 1357,57.6094 1357,57.6094 C1357,57.6094 1375,57.6094 1375,67.6094 L1375,93.6094 C1375,103.6094 1357,103.6094 1357,103.6094 C1357,103.6094 1339,103.6094 1339,93.6094 L1339,67.6094 " fill="#E2E2F0" style="stroke:#181818;stroke-width:1.5;"/><path d="M1339,67.6094 C1339,77.6094 1357,77.6094 1357,77.6094 C1357,77.6094 1375,77.6094 1375,67.6094 " fill="none" style="stroke:#181818;stroke-width:1.5;"/><text fill="#000000" font-family="sans-serif" font-size="14" lengthAdjust="spacing" textLength="122" x="1293" y="819.9316">Banco SQLite atual</text><text fill="#000000" font-family="sans-serif" font-size="14" lengthAdjust="spacing" textLength="128" x="1290" y="837.541">(PostgreSQL futuro)</text><path d="M1339,850.6172 C1339,840.6172 1357,840.6172 1357,840.6172 C1357,840.6172 1375,840.6172 1375,850.6172 L1375,876.6172 C1375,886.6172 1357,886.6172 1357,886.6172 C1357,886.6172 1339,886.6172 1339,876.6172 L1339,850.6172 " fill="#E2E2F0" style="stroke:#181818;stroke-width:1.5;"/><path d="M1339,850.6172 C1339,860.6172 1357,860.6172 1357,860.6172 C1357,860.6172 1375,860.6172 1375,850.6172 " fill="none" style="stroke:#181818;stroke-width:1.5;"/><polygon fill="#181818" points="379,167.1797,389,171.1797,379,175.1797,383,171.1797" style="stroke:#181818;stroke-width:1.0;"/><line style="stroke:#181818;stroke-width:1.0;" x1="63.5" x2="385" y1="171.1797" y2="171.1797"/><text fill="#000000" font-family="sans-serif" font-size="13" font-weight="bold" lengthAdjust="spacing" textLength="7" x="70.5" y="166.3232">1</text><text fill="#000000" font-family="sans-serif" font-size="13" lengthAdjust="spacing" textLength="148" x="81.5" y="166.3232">consulta ou libera acesso</text><polygon fill="#181818" points="379,197.5313,389,201.5313,379,205.5313,383,201.5313" style="stroke:#181818;stroke-width:1.0;"/><line style="stroke:#181818;stroke-width:1.0;" x1="189" x2="385" y1="201.5313" y2="201.5313"/><text fill="#000000" font-family="sans-serif" font-size="13" font-weight="bold" lengthAdjust="spacing" textLength="7" x="196" y="196.6748">2</text><text fill="#000000" font-family="sans-serif" font-size="13" lengthAdjust="spacing" textLength="167" x="207" y="196.6748">evento futuro de identifica&#231;&#227;o</text><polygon fill="#181818" points="570,244.2344,580,248.2344,570,252.2344,574,248.2344" style="stroke:#181818;stroke-width:1.0;"/><line style="stroke:#181818;stroke-width:1.0;" x1="391" x2="576" y1="248.2344" y2="248.2344"/><text fill="#000000" font-family="sans-serif" font-size="13" font-weight="bold" lengthAdjust="spacing" textLength="7" x="398" y="235.2021">3</text><text fill="#000000" font-family="sans-serif" font-size="13" lengthAdjust="spacing" textLength="111" x="409" y="227.0264">POST/GET acesso</text><text fill="#000000" font-family="sans-serif" font-size="13" lengthAdjust="spacing" textLength="156" x="409" y="243.3779">Bearer ou integra&#231;&#227;o futura</text><line style="stroke:#181818;stroke-width:1.0;" x1="582" x2="624" y1="294.9375" y2="294.9375"/><line style="stroke:#181818;stroke-width:1.0;" x1="624" x2="624" y1="294.9375" y2="307.9375"/><line style="stroke:#181818;stroke-width:1.0;" x1="583" x2="624" y1="307.9375" y2="307.9375"/><polygon fill="#181818" points="593,303.9375,583,307.9375,593,311.9375,589,307.9375" style="stroke:#181818;stroke-width:1.0;"/><text fill="#000000" font-family="sans-serif" font-size="13" font-weight="bold" lengthAdjust="spacing" textLength="7" x="589" y="281.9053">4</text><text fill="#000000" font-family="sans-serif" font-size="13" lengthAdjust="spacing" textLength="114" x="600" y="273.7295">valida autentica&#231;&#227;o,</text><text fill="#000000" font-family="sans-serif" font-size="13" lengthAdjust="spacing" textLength="117" x="600" y="290.0811">permiss&#227;o e escopo</text><polygon fill="#181818" points="784,334.2891,794,338.2891,784,342.2891,788,338.2891" style="stroke:#181818;stroke-width:1.0;"/><line style="stroke:#181818;stroke-width:1.0;" x1="582" x2="790" y1="338.2891" y2="338.2891"/><text fill="#000000" font-family="sans-serif" font-size="13" font-weight="bold" lengthAdjust="spacing" textLength="7" x="589" y="333.4326">5</text><text fill="#000000" font-family="sans-serif" font-size="13" lengthAdjust="spacing" textLength="179" x="600" y="333.4326">avaliar acesso(aluno, contexto)</text><polygon fill="#181818" points="1061,364.6406,1071,368.6406,1061,372.6406,1065,368.6406" style="stroke:#181818;stroke-width:1.0;"/><line style="stroke:#181818;stroke-width:1.0;" x1="796" x2="1067" y1="368.6406" y2="368.6406"/><text fill="#000000" font-family="sans-serif" font-size="13" font-weight="bold" lengthAdjust="spacing" textLength="7" x="803" y="363.7842">6</text><text fill="#000000" font-family="sans-serif" font-size="13" lengthAdjust="spacing" textLength="135" x="814" y="363.7842">consulta aluno e status</text><polygon fill="#181818" points="1061,394.9922,1071,398.9922,1061,402.9922,1065,398.9922" style="stroke:#181818;stroke-width:1.0;"/><line style="stroke:#181818;stroke-width:1.0;" x1="796" x2="1067" y1="398.9922" y2="398.9922"/><text fill="#000000" font-family="sans-serif" font-size="13" font-weight="bold" lengthAdjust="spacing" textLength="7" x="803" y="394.1357">7</text><text fill="#000000" font-family="sans-serif" font-size="13" lengthAdjust="spacing" textLength="133" x="814" y="394.1357">consulta mensalidades</text><polygon fill="#181818" points="1061,425.3438,1071,429.3438,1061,433.3438,1065,429.3438" style="stroke:#181818;stroke-width:1.0;"/><line style="stroke:#181818;stroke-width:1.0;" x1="796" x2="1067" y1="429.3438" y2="429.3438"/><text fill="#000000" font-family="sans-serif" font-size="13" font-weight="bold" lengthAdjust="spacing" textLength="7" x="803" y="424.4873">8</text><text fill="#000000" font-family="sans-serif" font-size="13" lengthAdjust="spacing" textLength="242" x="814" y="424.4873">consulta v&#237;nculos respons&#225;vel/dependente</text><line style="stroke:#181818;stroke-width:1.0;" x1="796" x2="838" y1="459.6953" y2="459.6953"/><line style="stroke:#181818;stroke-width:1.0;" x1="838" x2="838" y1="459.6953" y2="472.6953"/><line style="stroke:#181818;stroke-width:1.0;" x1="797" x2="838" y1="472.6953" y2="472.6953"/><polygon fill="#181818" points="807,468.6953,797,472.6953,807,476.6953,803,472.6953" style="stroke:#181818;stroke-width:1.0;"/><text fill="#000000" font-family="sans-serif" font-size="13" font-weight="bold" lengthAdjust="spacing" textLength="7" x="803" y="454.8389">9</text><text fill="#000000" font-family="sans-serif" font-size="13" lengthAdjust="spacing" textLength="138" x="814" y="454.8389">aplica regras de acesso</text><path d="M309,487.6953 L370,487.6953 L370,496.0469 L360,506.0469 L309,506.0469 L309,487.6953 " fill="#EEEEEE" style="stroke:#000000;stroke-width:1.5;"/><rect fill="none" height="216.2969" style="stroke:#000000;stroke-width:1.5;" width="1125" x="309" y="487.6953"/><text fill="#000000" font-family="sans-serif" font-size="13" font-weight="bold" lengthAdjust="spacing" textLength="16" x="324" y="502.1904">alt</text><text fill="#000000" font-family="sans-serif" font-size="11" font-weight="bold" lengthAdjust="spacing" textLength="105" x="385" y="501.1143">[acesso permitido]</text><polygon fill="#181818" points="1345,524.3984,1355,528.3984,1345,532.3984,1349,528.3984" style="stroke:#181818;stroke-width:1.0;"/><line style="stroke:#181818;stroke-width:1.0;" x1="796" x2="1351" y1="528.3984" y2="528.3984"/><text fill="#000000" font-family="sans-serif" font-size="13" font-weight="bold" lengthAdjust="spacing" textLength="14" x="803" y="523.542">10</text><text fill="#000000" font-family="sans-serif" font-size="13" lengthAdjust="spacing" textLength="138" x="821" y="523.542">registra acesso liberado</text><polygon fill="#181818" points="1208.5,554.75,1218.5,558.75,1208.5,562.75,1212.5,558.75" style="stroke:#181818;stroke-width:1.0;"/><line style="stroke:#181818;stroke-width:1.0;" x1="796" x2="1214.5" y1="558.75" y2="558.75"/><text fill="#000000" font-family="sans-serif" font-size="13" font-weight="bold" lengthAdjust="spacing" textLength="14" x="803" y="553.8936">11</text><text fill="#000000" font-family="sans-serif" font-size="13" lengthAdjust="spacing" textLength="148" x="821" y="553.8936">registra evento de acesso</text><polygon fill="#181818" points="402,585.1016,392,589.1016,402,593.1016,398,589.1016" style="stroke:#181818;stroke-width:1.0;"/><line style="stroke:#181818;stroke-width:1.0;stroke-dasharray:2.0,2.0;" x1="396" x2="581" y1="589.1016" y2="589.1016"/><text fill="#000000" font-family="sans-serif" font-size="13" font-weight="bold" lengthAdjust="spacing" textLength="14" x="408" y="584.2451">12</text><text fill="#000000" font-family="sans-serif" font-size="13" lengthAdjust="spacing" textLength="102" x="426" y="584.2451">permitido/liberado</text><line style="stroke:#000000;stroke-width:1.0;stroke-dasharray:2.0,2.0;" x1="309" x2="1434" y1="598.1016" y2="598.1016"/><text fill="#000000" font-family="sans-serif" font-size="11" font-weight="bold" lengthAdjust="spacing" textLength="109" x="314" y="609.5205">[acesso bloqueado]</text><polygon fill="#181818" points="1345,631.2891,1355,635.2891,1345,639.2891,1349,635.2891" style="stroke:#181818;stroke-width:1.0;"/><line style="stroke:#181818;stroke-width:1.0;" x1="796" x2="1351" y1="635.2891" y2="635.2891"/><text fill="#000000" font-family="sans-serif" font-size="13" font-weight="bold" lengthAdjust="spacing" textLength="14" x="803" y="630.4326">13</text><text fill="#000000" font-family="sans-serif" font-size="13" lengthAdjust="spacing" textLength="246" x="821" y="630.4326">registra tentativa/bloqueio quando aplic&#225;vel</text><polygon fill="#181818" points="1208.5,661.6406,1218.5,665.6406,1208.5,669.6406,1212.5,665.6406" style="stroke:#181818;stroke-width:1.0;"/><line style="stroke:#181818;stroke-width:1.0;" x1="796" x2="1214.5" y1="665.6406" y2="665.6406"/><text fill="#000000" font-family="sans-serif" font-size="13" font-weight="bold" lengthAdjust="spacing" textLength="14" x="803" y="660.7842">14</text><text fill="#000000" font-family="sans-serif" font-size="13" lengthAdjust="spacing" textLength="154" x="821" y="660.7842">registra motivo do bloqueio</text><polygon fill="#181818" points="402,691.9922,392,695.9922,402,699.9922,398,695.9922" style="stroke:#181818;stroke-width:1.0;"/><line style="stroke:#181818;stroke-width:1.0;stroke-dasharray:2.0,2.0;" x1="396" x2="581" y1="695.9922" y2="695.9922"/><text fill="#000000" font-family="sans-serif" font-size="13" font-weight="bold" lengthAdjust="spacing" textLength="14" x="408" y="691.1357">15</text><text fill="#000000" font-family="sans-serif" font-size="13" lengthAdjust="spacing" textLength="112" x="426" y="691.1357">bloqueado + motivo</text><path d="M801,715.9922 L801,790.9922 L1062,790.9922 L1062,725.9922 L1052,715.9922 L801,715.9922 " fill="#FEFFDD" style="stroke:#181818;stroke-width:0.5;"/><path d="M1052,715.9922 L1052,725.9922 L1062,725.9922 L1052,715.9922 " fill="#FEFFDD" style="stroke:#181818;stroke-width:0.5;"/><text fill="#000000" font-family="sans-serif" font-size="13" lengthAdjust="spacing" textLength="134" x="807" y="734.4873">Regras documentadas:</text><text fill="#000000" font-family="sans-serif" font-size="13" lengthAdjust="spacing" textLength="226" x="807" y="750.8389">- mensalidade vencida bloqueia acesso</text><text fill="#000000" font-family="sans-serif" font-size="13" lengthAdjust="spacing" textLength="240" x="807" y="767.1904">- dia do vencimento ainda permite acesso</text><text fill="#000000" font-family="sans-serif" font-size="13" lengthAdjust="spacing" textLength="186" x="807" y="783.542">- status/v&#237;nculos afetam decis&#227;o</text><!--SRC=[VLHDJnin4BtxLumuWTfexnmg4Q0L4XMqGPmYLOCz2QFkseljJVaxRGzL3_qL-MCTVsIpq2edsF5xVZFlZHCvjWJtv7d56hU_jZyT45pp0_dwPGZED8NW50xHsQ6J8nM-iktHOmVX4OtxndODAsm3AOKwEWz7hfSRZFDVC9EF00FSrDeESsKZhNSwgo4E7fTMO_IeiT7R7vt0C_6yr9H8HjRSeurmzDuxuLlJN73eNU38co9ptZBP-19yTdi5by-zbrwMjYazXOoMarTGdKuNv3UigK1oHHcC-8211D8ErWLeu2FPW2qRD2IVItk__MFrqEQpHSGu58qBcJgyKXaCYmcC4BU_jHNpYrGgJvJcQBM3nQThZWHo7xPBUtphGbnxacfnpPqKbRbIEujXzgxw0AUWdGr36n7S06sE5ee3gXhx0aqR-LlpoF6paS9-FrH52YUvUWgtDukxviFbNRrqQUU4ddnIutyJLeaqSZVPFP3LIXfLuUtIoXWTXr3MaO9slHk9EGtXOYAZhxB7c49vcuQDz1pTYQf0eMJ_fqPahDmSSaQ7aDqauKEupPYyx5WlrUtt3RMDeLvML6QZ2Na_GT_ApC8GZqAokiQYi8trVyXEH3PE0Kpqvq8N7eSufbcpVONC6pK5rtptQf2pc4rtO1HjnZj9NlTEwA5rJmFXmPvIe2Xl4fk2PWTF0rhZojJPdiEDTYuzQJ0xFVvlgsClyAOob3Ykb7NoOZol7oEurUu9VwvEEprqgJ-3uLJDfY63kAFJIbRDyQdCmCY7o6H0bpr4je8iPj4UMBQgsQy4hYZARwKXpMcbKuEG-liB]--></g></svg>