<?xml version="1.0" encoding="us-ascii" standalone="no"?><svg xmlns="http://www.w3.org/2000/svg" xmlns:xlink="http://www.w3.org/1999/xlink" contentStyleType="text/css" height="897px" preserveAspectRatio="none" style="width:838px;height:897px;background:#FFFFFF;" version="1.1" viewBox="0 0 838 897" width="838px" zoomAndPan="magnify"><defs/><g><text fill="#000000" font-family="sans-serif" font-size="14" font-weight="bold" lengthAdjust="spacing" textLength="385.4375" x="219.2813" y="24.5332">Modelo Conceitual de Dom&#237;nio &#8212; Sistema Academia SA</text><!--class Rede--><g id="elem_Rede"><rect codeLine="6" fill="#F1F1F1" height="92.8281" id="Rede" rx="2.5" ry="2.5" style="stroke:#181818;stroke-width:0.5;" width="66" x="326.5" y="54.1094"/><ellipse cx="341.5" cy="70.1094" fill="#ADD1B2" rx="11" ry="11" style="stroke:#181818;stroke-width:1.0;"/><path d="M344.2656,65.9844 Q344.4219,65.7656 344.6094,65.6563 Q344.7969,65.5469 345.0156,65.5469 Q345.3906,65.5469 345.625,65.8125 Q345.8594,66.0625 345.8594,66.6719 L345.8594,68.125 Q345.8594,68.7344 345.625,69 Q345.3906,69.2656 345.0156,69.2656 Q344.6719,69.2656 344.4688,69.0625 Q344.2656,68.875 344.1563,68.3594 Q344.1094,68 343.9219,67.8125 Q343.5938,67.4375 342.9844,67.2188 Q342.375,67 341.75,67 Q340.9844,67 340.3438,67.3281 Q339.7188,67.6563 339.2188,68.4063 Q338.7344,69.1563 338.7344,70.1875 L338.7344,71.2813 Q338.7344,72.5156 339.625,73.3438 Q340.5156,74.1563 342.1094,74.1563 Q343.0469,74.1563 343.7031,73.9063 Q344.0938,73.75 344.5156,73.3125 Q344.7813,73.0469 344.9219,72.9688 Q345.0781,72.8906 345.2813,72.8906 Q345.6094,72.8906 345.8594,73.1563 Q346.125,73.4063 346.125,73.75 Q346.125,74.0938 345.7813,74.5 Q345.2813,75.0781 344.4844,75.4063 Q343.4063,75.8594 342.1094,75.8594 Q340.5938,75.8594 339.3906,75.2344 Q338.4063,74.7344 337.7188,73.6719 Q337.0313,72.5938 337.0313,71.3125 L337.0313,70.1563 Q337.0313,68.8281 337.6406,67.6875 Q338.2656,66.5313 339.3594,65.9219 Q340.4531,65.2969 341.6875,65.2969 Q342.4219,65.2969 343.0625,65.4688 Q343.7188,65.625 344.2656,65.9844 Z " fill="#000000"/><text fill="#000000" font-family="sans-serif" font-size="14" lengthAdjust="spacing" textLength="34" x="355.5" y="75.8379">Rede</text><line style="stroke:#181818;stroke-width:0.5;" x1="327.5" x2="391.5" y1="86.1094" y2="86.1094"/><text fill="#000000" font-family="sans-serif" font-size="14" lengthAdjust="spacing" textLength="19" x="332.5" y="104.6426">+id</text><text fill="#000000" font-family="sans-serif" font-size="14" lengthAdjust="spacing" textLength="43" x="332.5" y="122.252">+nome</text><text fill="#000000" font-family="sans-serif" font-size="14" lengthAdjust="spacing" textLength="46" x="332.5" y="139.8613">+status</text></g><!--class Unidade--><g id="elem_Unidade"><rect codeLine="12" fill="#F1F1F1" height="110.4375" id="Unidade" rx="2.5" ry="2.5" style="stroke:#181818;stroke-width:0.5;" width="121" x="220" y="224.6094"/><ellipse cx="251.65" cy="240.6094" fill="#ADD1B2" rx="11" ry="11" style="stroke:#181818;stroke-width:1.0;"/><path d="M254.4156,236.4844 Q254.5719,236.2656 254.7594,236.1563 Q254.9469,236.0469 255.1656,236.0469 Q255.5406,236.0469 255.775,236.3125 Q256.0094,236.5625 256.0094,237.1719 L256.0094,238.625 Q256.0094,239.2344 255.775,239.5 Q255.5406,239.7656 255.1656,239.7656 Q254.8219,239.7656 254.6188,239.5625 Q254.4156,239.375 254.3063,238.8594 Q254.2594,238.5 254.0719,238.3125 Q253.7438,237.9375 253.1344,237.7188 Q252.525,237.5 251.9,237.5 Q251.1344,237.5 250.4938,237.8281 Q249.8688,238.1563 249.3688,238.9063 Q248.8844,239.6563 248.8844,240.6875 L248.8844,241.7813 Q248.8844,243.0156 249.775,243.8438 Q250.6656,244.6563 252.2594,244.6563 Q253.1969,244.6563 253.8531,244.4063 Q254.2438,244.25 254.6656,243.8125 Q254.9313,243.5469 255.0719,243.4688 Q255.2281,243.3906 255.4313,243.3906 Q255.7594,243.3906 256.0094,243.6563 Q256.275,243.9063 256.275,244.25 Q256.275,244.5938 255.9313,245 Q255.4313,245.5781 254.6344,245.9063 Q253.5563,246.3594 252.2594,246.3594 Q250.7438,246.3594 249.5406,245.7344 Q248.5563,245.2344 247.8688,244.1719 Q247.1813,243.0938 247.1813,241.8125 L247.1813,240.6563 Q247.1813,239.3281 247.7906,238.1875 Q248.4156,237.0313 249.5094,236.4219 Q250.6031,235.7969 251.8375,235.7969 Q252.5719,235.7969 253.2125,235.9688 Q253.8688,236.125 254.4156,236.4844 Z " fill="#000000"/><text fill="#000000" font-family="sans-serif" font-size="14" lengthAdjust="spacing" textLength="52" x="269.35" y="246.3379">Unidade</text><line style="stroke:#181818;stroke-width:0.5;" x1="221" x2="340" y1="256.6094" y2="256.6094"/><text fill="#000000" font-family="sans-serif" font-size="14" lengthAdjust="spacing" textLength="19" x="226" y="275.1426">+id</text><text fill="#000000" font-family="sans-serif" font-size="14" lengthAdjust="spacing" textLength="43" x="226" y="292.752">+nome</text><text fill="#000000" font-family="sans-serif" font-size="14" lengthAdjust="spacing" textLength="109" x="226" y="310.3613">+tipo: Matriz/Filial</text><text fill="#000000" font-family="sans-serif" font-size="14" lengthAdjust="spacing" textLength="46" x="226" y="327.9707">+status</text></g><!--class UsuarioInterno--><g id="elem_UsuarioInterno"><rect codeLine="19" fill="#F1F1F1" height="128.0469" id="UsuarioInterno" rx="2.5" ry="2.5" style="stroke:#181818;stroke-width:0.5;" width="124" x="376.5" y="215.6094"/><ellipse cx="391.5" cy="231.6094" fill="#ADD1B2" rx="11" ry="11" style="stroke:#181818;stroke-width:1.0;"/><path d="M394.2656,227.4844 Q394.4219,227.2656 394.6094,227.1563 Q394.7969,227.0469 395.0156,227.0469 Q395.3906,227.0469 395.625,227.3125 Q395.8594,227.5625 395.8594,228.1719 L395.8594,229.625 Q395.8594,230.2344 395.625,230.5 Q395.3906,230.7656 395.0156,230.7656 Q394.6719,230.7656 394.4688,230.5625 Q394.2656,230.375 394.1563,229.8594 Q394.1094,229.5 393.9219,229.3125 Q393.5938,228.9375 392.9844,228.7188 Q392.375,228.5 391.75,228.5 Q390.9844,228.5 390.3438,228.8281 Q389.7188,229.1563 389.2188,229.9063 Q388.7344,230.6563 388.7344,231.6875 L388.7344,232.7813 Q388.7344,234.0156 389.625,234.8438 Q390.5156,235.6563 392.1094,235.6563 Q393.0469,235.6563 393.7031,235.4063 Q394.0938,235.25 394.5156,234.8125 Q394.7813,234.5469 394.9219,234.4688 Q395.0781,234.3906 395.2813,234.3906 Q395.6094,234.3906 395.8594,234.6563 Q396.125,234.9063 396.125,235.25 Q396.125,235.5938 395.7813,236 Q395.2813,236.5781 394.4844,236.9063 Q393.4063,237.3594 392.1094,237.3594 Q390.5938,237.3594 389.3906,236.7344 Q388.4063,236.2344 387.7188,235.1719 Q387.0313,234.0938 387.0313,232.8125 L387.0313,231.6563 Q387.0313,230.3281 387.6406,229.1875 Q388.2656,228.0313 389.3594,227.4219 Q390.4531,226.7969 391.6875,226.7969 Q392.4219,226.7969 393.0625,226.9688 Q393.7188,227.125 394.2656,227.4844 Z " fill="#000000"/><text fill="#000000" font-family="sans-serif" font-size="14" lengthAdjust="spacing" textLength="92" x="405.5" y="237.3379">UsuarioInterno</text><line style="stroke:#181818;stroke-width:0.5;" x1="377.5" x2="499.5" y1="247.6094" y2="247.6094"/><text fill="#000000" font-family="sans-serif" font-size="14" lengthAdjust="spacing" textLength="19" x="382.5" y="266.1426">+id</text><text fill="#000000" font-family="sans-serif" font-size="14" lengthAdjust="spacing" textLength="43" x="382.5" y="283.752">+nome</text><text fill="#000000" font-family="sans-serif" font-size="14" lengthAdjust="spacing" textLength="75" x="382.5" y="301.3613">+login/email</text><text fill="#000000" font-family="sans-serif" font-size="14" lengthAdjust="spacing" textLength="43" x="382.5" y="318.9707">+papel</text><text fill="#000000" font-family="sans-serif" font-size="14" lengthAdjust="spacing" textLength="46" x="382.5" y="336.5801">+status</text></g><!--class Aluno--><g id="elem_Aluno"><rect codeLine="27" fill="#F1F1F1" height="110.4375" id="Aluno" rx="2.5" ry="2.5" style="stroke:#181818;stroke-width:0.5;" width="128" x="40.5" y="412.6094"/><ellipse cx="82.5" cy="428.6094" fill="#ADD1B2" rx="11" ry="11" style="stroke:#181818;stroke-width:1.0;"/><path d="M85.2656,424.4844 Q85.4219,424.2656 85.6094,424.1563 Q85.7969,424.0469 86.0156,424.0469 Q86.3906,424.0469 86.625,424.3125 Q86.8594,424.5625 86.8594,425.1719 L86.8594,426.625 Q86.8594,427.2344 86.625,427.5 Q86.3906,427.7656 86.0156,427.7656 Q85.6719,427.7656 85.4688,427.5625 Q85.2656,427.375 85.1563,426.8594 Q85.1094,426.5 84.9219,426.3125 Q84.5938,425.9375 83.9844,425.7188 Q83.375,425.5 82.75,425.5 Q81.9844,425.5 81.3438,425.8281 Q80.7188,426.1563 80.2188,426.9063 Q79.7344,427.6563 79.7344,428.6875 L79.7344,429.7813 Q79.7344,431.0156 80.625,431.8438 Q81.5156,432.6563 83.1094,432.6563 Q84.0469,432.6563 84.7031,432.4063 Q85.0938,432.25 85.5156,431.8125 Q85.7813,431.5469 85.9219,431.4688 Q86.0781,431.3906 86.2813,431.3906 Q86.6094,431.3906 86.8594,431.6563 Q87.125,431.9063 87.125,432.25 Q87.125,432.5938 86.7813,433 Q86.2813,433.5781 85.4844,433.9063 Q84.4063,434.3594 83.1094,434.3594 Q81.5938,434.3594 80.3906,433.7344 Q79.4063,433.2344 78.7188,432.1719 Q78.0313,431.0938 78.0313,429.8125 L78.0313,428.6563 Q78.0313,427.3281 78.6406,426.1875 Q79.2656,425.0313 80.3594,424.4219 Q81.4531,423.7969 82.6875,423.7969 Q83.4219,423.7969 84.0625,423.9688 Q84.7188,424.125 85.2656,424.4844 Z " fill="#000000"/><text fill="#000000" font-family="sans-serif" font-size="14" lengthAdjust="spacing" textLength="36" x="102.5" y="434.3379">Aluno</text><line style="stroke:#181818;stroke-width:0.5;" x1="41.5" x2="167.5" y1="444.6094" y2="444.6094"/><text fill="#000000" font-family="sans-serif" font-size="14" lengthAdjust="spacing" textLength="19" x="46.5" y="463.1426">+id</text><text fill="#000000" font-family="sans-serif" font-size="14" lengthAdjust="spacing" textLength="43" x="46.5" y="480.752">+nome</text><text fill="#000000" font-family="sans-serif" font-size="14" lengthAdjust="spacing" textLength="46" x="46.5" y="498.3613">+status</text><text fill="#000000" font-family="sans-serif" font-size="14" lengthAdjust="spacing" textLength="116" x="46.5" y="515.9707">+dados cadastrais</text></g><!--class Plano--><g id="elem_Plano"><rect codeLine="34" fill="#F1F1F1" height="110.4375" id="Plano" rx="2.5" ry="2.5" style="stroke:#181818;stroke-width:0.5;" width="68" x="517.5" y="412.6094"/><ellipse cx="532.5" cy="428.6094" fill="#ADD1B2" rx="11" ry="11" style="stroke:#181818;stroke-width:1.0;"/><path d="M535.2656,424.4844 Q535.4219,424.2656 535.6094,424.1563 Q535.7969,424.0469 536.0156,424.0469 Q536.3906,424.0469 536.625,424.3125 Q536.8594,424.5625 536.8594,425.1719 L536.8594,426.625 Q536.8594,427.2344 536.625,427.5 Q536.3906,427.7656 536.0156,427.7656 Q535.6719,427.7656 535.4688,427.5625 Q535.2656,427.375 535.1563,426.8594 Q535.1094,426.5 534.9219,426.3125 Q534.5938,425.9375 533.9844,425.7188 Q533.375,425.5 532.75,425.5 Q531.9844,425.5 531.3438,425.8281 Q530.7188,426.1563 530.2188,426.9063 Q529.7344,427.6563 529.7344,428.6875 L529.7344,429.7813 Q529.7344,431.0156 530.625,431.8438 Q531.5156,432.6563 533.1094,432.6563 Q534.0469,432.6563 534.7031,432.4063 Q535.0938,432.25 535.5156,431.8125 Q535.7813,431.5469 535.9219,431.4688 Q536.0781,431.3906 536.2813,431.3906 Q536.6094,431.3906 536.8594,431.6563 Q537.125,431.9063 537.125,432.25 Q537.125,432.5938 536.7813,433 Q536.2813,433.5781 535.4844,433.9063 Q534.4063,434.3594 533.1094,434.3594 Q531.5938,434.3594 530.3906,433.7344 Q529.4063,433.2344 528.7188,432.1719 Q528.0313,431.0938 528.0313,429.8125 L528.0313,428.6563 Q528.0313,427.3281 528.6406,426.1875 Q529.2656,425.0313 530.3594,424.4219 Q531.4531,423.7969 532.6875,423.7969 Q533.4219,423.7969 534.0625,423.9688 Q534.7188,424.125 535.2656,424.4844 Z " fill="#000000"/><text fill="#000000" font-family="sans-serif" font-size="14" lengthAdjust="spacing" textLength="36" x="546.5" y="434.3379">Plano</text><line style="stroke:#181818;stroke-width:0.5;" x1="518.5" x2="584.5" y1="444.6094" y2="444.6094"/><text fill="#000000" font-family="sans-serif" font-size="14" lengthAdjust="spacing" textLength="19" x="523.5" y="463.1426">+id</text><text fill="#000000" font-family="sans-serif" font-size="14" lengthAdjust="spacing" textLength="43" x="523.5" y="480.752">+nome</text><text fill="#000000" font-family="sans-serif" font-size="14" lengthAdjust="spacing" textLength="39" x="523.5" y="498.3613">+valor</text><text fill="#000000" font-family="sans-serif" font-size="14" lengthAdjust="spacing" textLength="46" x="523.5" y="515.9707">+status</text></g><!--class Mensalidade--><g id="elem_Mensalidade"><rect codeLine="41" fill="#F1F1F1" height="110.4375" id="Mensalidade" rx="2.5" ry="2.5" style="stroke:#181818;stroke-width:0.5;" width="112" x="345.5" y="600.6094"/><ellipse cx="360.5" cy="616.6094" fill="#ADD1B2" rx="11" ry="11" style="stroke:#181818;stroke-width:1.0;"/><path d="M363.2656,612.4844 Q363.4219,612.2656 363.6094,612.1563 Q363.7969,612.0469 364.0156,612.0469 Q364.3906,612.0469 364.625,612.3125 Q364.8594,612.5625 364.8594,613.1719 L364.8594,614.625 Q364.8594,615.2344 364.625,615.5 Q364.3906,615.7656 364.0156,615.7656 Q363.6719,615.7656 363.4688,615.5625 Q363.2656,615.375 363.1563,614.8594 Q363.1094,614.5 362.9219,614.3125 Q362.5938,613.9375 361.9844,613.7188 Q361.375,613.5 360.75,613.5 Q359.9844,613.5 359.3438,613.8281 Q358.7188,614.1563 358.2188,614.9063 Q357.7344,615.6563 357.7344,616.6875 L357.7344,617.7813 Q357.7344,619.0156 358.625,619.8438 Q359.5156,620.6563 361.1094,620.6563 Q362.0469,620.6563 362.7031,620.4063 Q363.0938,620.25 363.5156,619.8125 Q363.7813,619.5469 363.9219,619.4688 Q364.0781,619.3906 364.2813,619.3906 Q364.6094,619.3906 364.8594,619.6563 Q365.125,619.9063 365.125,620.25 Q365.125,620.5938 364.7813,621 Q364.2813,621.5781 363.4844,621.9063 Q362.4063,622.3594 361.1094,622.3594 Q359.5938,622.3594 358.3906,621.7344 Q357.4063,621.2344 356.7188,620.1719 Q356.0313,619.0938 356.0313,617.8125 L356.0313,616.6563 Q356.0313,615.3281 356.6406,614.1875 Q357.2656,613.0313 358.3594,612.4219 Q359.4531,611.7969 360.6875,611.7969 Q361.4219,611.7969 362.0625,611.9688 Q362.7188,612.125 363.2656,612.4844 Z " fill="#000000"/><text fill="#000000" font-family="sans-serif" font-size="14" lengthAdjust="spacing" textLength="80" x="374.5" y="622.3379">Mensalidade</text><line style="stroke:#181818;stroke-width:0.5;" x1="346.5" x2="456.5" y1="632.6094" y2="632.6094"/><text fill="#000000" font-family="sans-serif" font-size="14" lengthAdjust="spacing" textLength="19" x="351.5" y="651.1426">+id</text><text fill="#000000" font-family="sans-serif" font-size="14" lengthAdjust="spacing" textLength="46" x="351.5" y="668.752">+status</text><text fill="#000000" font-family="sans-serif" font-size="14" lengthAdjust="spacing" textLength="80" x="351.5" y="686.3613">+vencimento</text><text fill="#000000" font-family="sans-serif" font-size="14" lengthAdjust="spacing" textLength="39" x="351.5" y="703.9707">+valor</text></g><!--class Pagamento--><g id="elem_Pagamento"><rect codeLine="48" fill="#F1F1F1" height="110.4375" id="Pagamento" rx="2.5" ry="2.5" style="stroke:#181818;stroke-width:0.5;" width="135" x="334" y="779.6094"/><ellipse cx="362.95" cy="795.6094" fill="#ADD1B2" rx="11" ry="11" style="stroke:#181818;stroke-width:1.0;"/><path d="M365.7156,791.4844 Q365.8719,791.2656 366.0594,791.1563 Q366.2469,791.0469 366.4656,791.0469 Q366.8406,791.0469 367.075,791.3125 Q367.3094,791.5625 367.3094,792.1719 L367.3094,793.625 Q367.3094,794.2344 367.075,794.5 Q366.8406,794.7656 366.4656,794.7656 Q366.1219,794.7656 365.9188,794.5625 Q365.7156,794.375 365.6063,793.8594 Q365.5594,793.5 365.3719,793.3125 Q365.0438,792.9375 364.4344,792.7188 Q363.825,792.5 363.2,792.5 Q362.4344,792.5 361.7938,792.8281 Q361.1688,793.1563 360.6688,793.9063 Q360.1844,794.6563 360.1844,795.6875 L360.1844,796.7813 Q360.1844,798.0156 361.075,798.8438 Q361.9656,799.6563 363.5594,799.6563 Q364.4969,799.6563 365.1531,799.4063 Q365.5438,799.25 365.9656,798.8125 Q366.2313,798.5469 366.3719,798.4688 Q366.5281,798.3906 366.7313,798.3906 Q367.0594,798.3906 367.3094,798.6563 Q367.575,798.9063 367.575,799.25 Q367.575,799.5938 367.2313,800 Q366.7313,800.5781 365.9344,800.9063 Q364.8563,801.3594 363.5594,801.3594 Q362.0438,801.3594 360.8406,800.7344 Q359.8563,800.2344 359.1688,799.1719 Q358.4813,798.0938 358.4813,796.8125 L358.4813,795.6563 Q358.4813,794.3281 359.0906,793.1875 Q359.7156,792.0313 360.8094,791.4219 Q361.9031,790.7969 363.1375,790.7969 Q363.8719,790.7969 364.5125,790.9688 Q365.1688,791.125 365.7156,791.4844 Z " fill="#000000"/><text fill="#000000" font-family="sans-serif" font-size="14" lengthAdjust="spacing" textLength="72" x="380.05" y="801.3379">Pagamento</text><line style="stroke:#181818;stroke-width:0.5;" x1="335" x2="468" y1="811.6094" y2="811.6094"/><text fill="#000000" font-family="sans-serif" font-size="14" lengthAdjust="spacing" textLength="19" x="340" y="830.1426">+id</text><text fill="#000000" font-family="sans-serif" font-size="14" lengthAdjust="spacing" textLength="39" x="340" y="847.752">+valor</text><text fill="#000000" font-family="sans-serif" font-size="14" lengthAdjust="spacing" textLength="36" x="340" y="865.3613">+data</text><text fill="#000000" font-family="sans-serif" font-size="14" lengthAdjust="spacing" textLength="123" x="340" y="882.9707">+snapshot hist&#243;rico</text></g><!--class Produto--><g id="elem_Produto"><rect codeLine="55" fill="#F1F1F1" height="110.4375" id="Produto" rx="2.5" ry="2.5" style="stroke:#181818;stroke-width:0.5;" width="82" x="556.5" y="45.6094"/><ellipse cx="571.5" cy="61.6094" fill="#ADD1B2" rx="11" ry="11" style="stroke:#181818;stroke-width:1.0;"/><path d="M574.2656,57.4844 Q574.4219,57.2656 574.6094,57.1563 Q574.7969,57.0469 575.0156,57.0469 Q575.3906,57.0469 575.625,57.3125 Q575.8594,57.5625 575.8594,58.1719 L575.8594,59.625 Q575.8594,60.2344 575.625,60.5 Q575.3906,60.7656 575.0156,60.7656 Q574.6719,60.7656 574.4688,60.5625 Q574.2656,60.375 574.1563,59.8594 Q574.1094,59.5 573.9219,59.3125 Q573.5938,58.9375 572.9844,58.7188 Q572.375,58.5 571.75,58.5 Q570.9844,58.5 570.3438,58.8281 Q569.7188,59.1563 569.2188,59.9063 Q568.7344,60.6563 568.7344,61.6875 L568.7344,62.7813 Q568.7344,64.0156 569.625,64.8438 Q570.5156,65.6563 572.1094,65.6563 Q573.0469,65.6563 573.7031,65.4063 Q574.0938,65.25 574.5156,64.8125 Q574.7813,64.5469 574.9219,64.4688 Q575.0781,64.3906 575.2813,64.3906 Q575.6094,64.3906 575.8594,64.6563 Q576.125,64.9063 576.125,65.25 Q576.125,65.5938 575.7813,66 Q575.2813,66.5781 574.4844,66.9063 Q573.4063,67.3594 572.1094,67.3594 Q570.5938,67.3594 569.3906,66.7344 Q568.4063,66.2344 567.7188,65.1719 Q567.0313,64.0938 567.0313,62.8125 L567.0313,61.6563 Q567.0313,60.3281 567.6406,59.1875 Q568.2656,58.0313 569.3594,57.4219 Q570.4531,56.7969 571.6875,56.7969 Q572.4219,56.7969 573.0625,56.9688 Q573.7188,57.125 574.2656,57.4844 Z " fill="#000000"/><text fill="#000000" font-family="sans-serif" font-size="14" lengthAdjust="spacing" textLength="50" x="585.5" y="67.3379">Produto</text><line style="stroke:#181818;stroke-width:0.5;" x1="557.5" x2="637.5" y1="77.6094" y2="77.6094"/><text fill="#000000" font-family="sans-serif" font-size="14" lengthAdjust="spacing" textLength="19" x="562.5" y="96.1426">+id</text><text fill="#000000" font-family="sans-serif" font-size="14" lengthAdjust="spacing" textLength="43" x="562.5" y="113.752">+nome</text><text fill="#000000" font-family="sans-serif" font-size="14" lengthAdjust="spacing" textLength="44" x="562.5" y="131.3613">+pre&#231;o</text><text fill="#000000" font-family="sans-serif" font-size="14" lengthAdjust="spacing" textLength="59" x="562.5" y="148.9707">+estoque</text></g><!--class VendaProduto--><g id="elem_VendaProduto"><rect codeLine="62" fill="#F1F1F1" height="92.8281" id="VendaProduto" rx="2.5" ry="2.5" style="stroke:#181818;stroke-width:0.5;" width="123" x="536" y="233.1094"/><ellipse cx="551" cy="249.1094" fill="#ADD1B2" rx="11" ry="11" style="stroke:#181818;stroke-width:1.0;"/><path d="M553.7656,244.9844 Q553.9219,244.7656 554.1094,244.6563 Q554.2969,244.5469 554.5156,244.5469 Q554.8906,244.5469 555.125,244.8125 Q555.3594,245.0625 555.3594,245.6719 L555.3594,247.125 Q555.3594,247.7344 555.125,248 Q554.8906,248.2656 554.5156,248.2656 Q554.1719,248.2656 553.9688,248.0625 Q553.7656,247.875 553.6563,247.3594 Q553.6094,247 553.4219,246.8125 Q553.0938,246.4375 552.4844,246.2188 Q551.875,246 551.25,246 Q550.4844,246 549.8438,246.3281 Q549.2188,246.6563 548.7188,247.4063 Q548.2344,248.1563 548.2344,249.1875 L548.2344,250.2813 Q548.2344,251.5156 549.125,252.3438 Q550.0156,253.1563 551.6094,253.1563 Q552.5469,253.1563 553.2031,252.9063 Q553.5938,252.75 554.0156,252.3125 Q554.2813,252.0469 554.4219,251.9688 Q554.5781,251.8906 554.7813,251.8906 Q555.1094,251.8906 555.3594,252.1563 Q555.625,252.4063 555.625,252.75 Q555.625,253.0938 555.2813,253.5 Q554.7813,254.0781 553.9844,254.4063 Q552.9063,254.8594 551.6094,254.8594 Q550.0938,254.8594 548.8906,254.2344 Q547.9063,253.7344 547.2188,252.6719 Q546.5313,251.5938 546.5313,250.3125 L546.5313,249.1563 Q546.5313,247.8281 547.1406,246.6875 Q547.7656,245.5313 548.8594,244.9219 Q549.9531,244.2969 551.1875,244.2969 Q551.9219,244.2969 552.5625,244.4688 Q553.2188,244.625 553.7656,244.9844 Z " fill="#000000"/><text fill="#000000" font-family="sans-serif" font-size="14" lengthAdjust="spacing" textLength="91" x="565" y="254.8379">VendaProduto</text><line style="stroke:#181818;stroke-width:0.5;" x1="537" x2="658" y1="265.1094" y2="265.1094"/><text fill="#000000" font-family="sans-serif" font-size="14" lengthAdjust="spacing" textLength="19" x="542" y="283.6426">+id</text><text fill="#000000" font-family="sans-serif" font-size="14" lengthAdjust="spacing" textLength="36" x="542" y="301.252">+data</text><text fill="#000000" font-family="sans-serif" font-size="14" lengthAdjust="spacing" textLength="70" x="542" y="318.8613">+valor total</text></g><!--class ContaFinanceira--><g id="elem_ContaFinanceira"><rect codeLine="68" fill="#F1F1F1" height="110.4375" id="ContaFinanceira" rx="2.5" ry="2.5" style="stroke:#181818;stroke-width:0.5;" width="137" x="694" y="224.6094"/><ellipse cx="709" cy="240.6094" fill="#ADD1B2" rx="11" ry="11" style="stroke:#181818;stroke-width:1.0;"/><path d="M711.7656,236.4844 Q711.9219,236.2656 712.1094,236.1563 Q712.2969,236.0469 712.5156,236.0469 Q712.8906,236.0469 713.125,236.3125 Q713.3594,236.5625 713.3594,237.1719 L713.3594,238.625 Q713.3594,239.2344 713.125,239.5 Q712.8906,239.7656 712.5156,239.7656 Q712.1719,239.7656 711.9688,239.5625 Q711.7656,239.375 711.6563,238.8594 Q711.6094,238.5 711.4219,238.3125 Q711.0938,237.9375 710.4844,237.7188 Q709.875,237.5 709.25,237.5 Q708.4844,237.5 707.8438,237.8281 Q707.2188,238.1563 706.7188,238.9063 Q706.2344,239.6563 706.2344,240.6875 L706.2344,241.7813 Q706.2344,243.0156 707.125,243.8438 Q708.0156,244.6563 709.6094,244.6563 Q710.5469,244.6563 711.2031,244.4063 Q711.5938,244.25 712.0156,243.8125 Q712.2813,243.5469 712.4219,243.4688 Q712.5781,243.3906 712.7813,243.3906 Q713.1094,243.3906 713.3594,243.6563 Q713.625,243.9063 713.625,244.25 Q713.625,244.5938 713.2813,245 Q712.7813,245.5781 711.9844,245.9063 Q710.9063,246.3594 709.6094,246.3594 Q708.0938,246.3594 706.8906,245.7344 Q705.9063,245.2344 705.2188,244.1719 Q704.5313,243.0938 704.5313,241.8125 L704.5313,240.6563 Q704.5313,239.3281 705.1406,238.1875 Q705.7656,237.0313 706.8594,236.4219 Q707.9531,235.7969 709.1875,235.7969 Q709.9219,235.7969 710.5625,235.9688 Q711.2188,236.125 711.7656,236.4844 Z " fill="#000000"/><text fill="#000000" font-family="sans-serif" font-size="14" lengthAdjust="spacing" textLength="105" x="723" y="246.3379">ContaFinanceira</text><line style="stroke:#181818;stroke-width:0.5;" x1="695" x2="830" y1="256.6094" y2="256.6094"/><text fill="#000000" font-family="sans-serif" font-size="14" lengthAdjust="spacing" textLength="19" x="700" y="275.1426">+id</text><text fill="#000000" font-family="sans-serif" font-size="14" lengthAdjust="spacing" textLength="31" x="700" y="292.752">+tipo</text><text fill="#000000" font-family="sans-serif" font-size="14" lengthAdjust="spacing" textLength="39" x="700" y="310.3613">+valor</text><text fill="#000000" font-family="sans-serif" font-size="14" lengthAdjust="spacing" textLength="46" x="700" y="327.9707">+status</text></g><!--class PlanoContas--><g id="elem_PlanoContas"><rect codeLine="75" fill="#F1F1F1" height="92.8281" id="PlanoContas" rx="2.5" ry="2.5" style="stroke:#181818;stroke-width:0.5;" width="113" x="706" y="54.1094"/><ellipse cx="721" cy="70.1094" fill="#ADD1B2" rx="11" ry="11" style="stroke:#181818;stroke-width:1.0;"/><path d="M723.7656,65.9844 Q723.9219,65.7656 724.1094,65.6563 Q724.2969,65.5469 724.5156,65.5469 Q724.8906,65.5469 725.125,65.8125 Q725.3594,66.0625 725.3594,66.6719 L725.3594,68.125 Q725.3594,68.7344 725.125,69 Q724.8906,69.2656 724.5156,69.2656 Q724.1719,69.2656 723.9688,69.0625 Q723.7656,68.875 723.6563,68.3594 Q723.6094,68 723.4219,67.8125 Q723.0938,67.4375 722.4844,67.2188 Q721.875,67 721.25,67 Q720.4844,67 719.8438,67.3281 Q719.2188,67.6563 718.7188,68.4063 Q718.2344,69.1563 718.2344,70.1875 L718.2344,71.2813 Q718.2344,72.5156 719.125,73.3438 Q720.0156,74.1563 721.6094,74.1563 Q722.5469,74.1563 723.2031,73.9063 Q723.5938,73.75 724.0156,73.3125 Q724.2813,73.0469 724.4219,72.9688 Q724.5781,72.8906 724.7813,72.8906 Q725.1094,72.8906 725.3594,73.1563 Q725.625,73.4063 725.625,73.75 Q725.625,74.0938 725.2813,74.5 Q724.7813,75.0781 723.9844,75.4063 Q722.9063,75.8594 721.6094,75.8594 Q720.0938,75.8594 718.8906,75.2344 Q717.9063,74.7344 717.2188,73.6719 Q716.5313,72.5938 716.5313,71.3125 L716.5313,70.1563 Q716.5313,68.8281 717.1406,67.6875 Q717.7656,66.5313 718.8594,65.9219 Q719.9531,65.2969 721.1875,65.2969 Q721.9219,65.2969 722.5625,65.4688 Q723.2188,65.625 723.7656,65.9844 Z " fill="#000000"/><text fill="#000000" font-family="sans-serif" font-size="14" lengthAdjust="spacing" textLength="81" x="735" y="75.8379">PlanoContas</text><line style="stroke:#181818;stroke-width:0.5;" x1="707" x2="818" y1="86.1094" y2="86.1094"/><text fill="#000000" font-family="sans-serif" font-size="14" lengthAdjust="spacing" textLength="19" x="712" y="104.6426">+id</text><text fill="#000000" font-family="sans-serif" font-size="14" lengthAdjust="spacing" textLength="67" x="712" y="122.252">+categoria</text><text fill="#000000" font-family="sans-serif" font-size="14" lengthAdjust="spacing" textLength="31" x="712" y="139.8613">+tipo</text></g><!--class FechamentoMensal--><g id="elem_FechamentoMensal"><rect codeLine="81" fill="#F1F1F1" height="92.8281" id="FechamentoMensal" rx="2.5" ry="2.5" style="stroke:#181818;stroke-width:0.5;" width="156" x="203.5" y="421.1094"/><ellipse cx="218.5" cy="437.1094" fill="#ADD1B2" rx="11" ry="11" style="stroke:#181818;stroke-width:1.0;"/><path d="M221.2656,432.9844 Q221.4219,432.7656 221.6094,432.6563 Q221.7969,432.5469 222.0156,432.5469 Q222.3906,432.5469 222.625,432.8125 Q222.8594,433.0625 222.8594,433.6719 L222.8594,435.125 Q222.8594,435.7344 222.625,436 Q222.3906,436.2656 222.0156,436.2656 Q221.6719,436.2656 221.4688,436.0625 Q221.2656,435.875 221.1563,435.3594 Q221.1094,435 220.9219,434.8125 Q220.5938,434.4375 219.9844,434.2188 Q219.375,434 218.75,434 Q217.9844,434 217.3438,434.3281 Q216.7188,434.6563 216.2188,435.4063 Q215.7344,436.1563 215.7344,437.1875 L215.7344,438.2813 Q215.7344,439.5156 216.625,440.3438 Q217.5156,441.1563 219.1094,441.1563 Q220.0469,441.1563 220.7031,440.9063 Q221.0938,440.75 221.5156,440.3125 Q221.7813,440.0469 221.9219,439.9688 Q222.0781,439.8906 222.2813,439.8906 Q222.6094,439.8906 222.8594,440.1563 Q223.125,440.4063 223.125,440.75 Q223.125,441.0938 222.7813,441.5 Q222.2813,442.0781 221.4844,442.4063 Q220.4063,442.8594 219.1094,442.8594 Q217.5938,442.8594 216.3906,442.2344 Q215.4063,441.7344 214.7188,440.6719 Q214.0313,439.5938 214.0313,438.3125 L214.0313,437.1563 Q214.0313,435.8281 214.6406,434.6875 Q215.2656,433.5313 216.3594,432.9219 Q217.4531,432.2969 218.6875,432.2969 Q219.4219,432.2969 220.0625,432.4688 Q220.7188,432.625 221.2656,432.9844 Z " fill="#000000"/><text fill="#000000" font-family="sans-serif" font-size="14" lengthAdjust="spacing" textLength="124" x="232.5" y="442.8379">FechamentoMensal</text><line style="stroke:#181818;stroke-width:0.5;" x1="204.5" x2="358.5" y1="453.1094" y2="453.1094"/><text fill="#000000" font-family="sans-serif" font-size="14" lengthAdjust="spacing" textLength="19" x="209.5" y="471.6426">+id</text><text fill="#000000" font-family="sans-serif" font-size="14" lengthAdjust="spacing" textLength="88" x="209.5" y="489.252">+compet&#234;ncia</text><text fill="#000000" font-family="sans-serif" font-size="14" lengthAdjust="spacing" textLength="46" x="209.5" y="506.8613">+status</text></g><!--class Acesso--><g id="elem_Acesso"><rect codeLine="87" fill="#F1F1F1" height="110.4375" id="Acesso" rx="2.5" ry="2.5" style="stroke:#181818;stroke-width:0.5;" width="81" x="7" y="600.6094"/><ellipse cx="23.35" cy="616.6094" fill="#ADD1B2" rx="11" ry="11" style="stroke:#181818;stroke-width:1.0;"/><path d="M26.1156,612.4844 Q26.2719,612.2656 26.4594,612.1563 Q26.6469,612.0469 26.8656,612.0469 Q27.2406,612.0469 27.475,612.3125 Q27.7094,612.5625 27.7094,613.1719 L27.7094,614.625 Q27.7094,615.2344 27.475,615.5 Q27.2406,615.7656 26.8656,615.7656 Q26.5219,615.7656 26.3188,615.5625 Q26.1156,615.375 26.0063,614.8594 Q25.9594,614.5 25.7719,614.3125 Q25.4438,613.9375 24.8344,613.7188 Q24.225,613.5 23.6,613.5 Q22.8344,613.5 22.1938,613.8281 Q21.5688,614.1563 21.0688,614.9063 Q20.5844,615.6563 20.5844,616.6875 L20.5844,617.7813 Q20.5844,619.0156 21.475,619.8438 Q22.3656,620.6563 23.9594,620.6563 Q24.8969,620.6563 25.5531,620.4063 Q25.9438,620.25 26.3656,619.8125 Q26.6313,619.5469 26.7719,619.4688 Q26.9281,619.3906 27.1313,619.3906 Q27.4594,619.3906 27.7094,619.6563 Q27.975,619.9063 27.975,620.25 Q27.975,620.5938 27.6313,621 Q27.1313,621.5781 26.3344,621.9063 Q25.2563,622.3594 23.9594,622.3594 Q22.4438,622.3594 21.2406,621.7344 Q20.2563,621.2344 19.5688,620.1719 Q18.8813,619.0938 18.8813,617.8125 L18.8813,616.6563 Q18.8813,615.3281 19.4906,614.1875 Q20.1156,613.0313 21.2094,612.4219 Q22.3031,611.7969 23.5375,611.7969 Q24.2719,611.7969 24.9125,611.9688 Q25.5688,612.125 26.1156,612.4844 Z " fill="#000000"/><text fill="#000000" font-family="sans-serif" font-size="14" lengthAdjust="spacing" textLength="46" x="37.65" y="622.3379">Acesso</text><line style="stroke:#181818;stroke-width:0.5;" x1="8" x2="87" y1="632.6094" y2="632.6094"/><text fill="#000000" font-family="sans-serif" font-size="14" lengthAdjust="spacing" textLength="19" x="13" y="651.1426">+id</text><text fill="#000000" font-family="sans-serif" font-size="14" lengthAdjust="spacing" textLength="69" x="13" y="668.752">+data/hora</text><text fill="#000000" font-family="sans-serif" font-size="14" lengthAdjust="spacing" textLength="67" x="13" y="686.3613">+resultado</text><text fill="#000000" font-family="sans-serif" font-size="14" lengthAdjust="spacing" textLength="49" x="13" y="703.9707">+motivo</text></g><!--class Vinculo--><g id="elem_Vinculo"><rect codeLine="94" fill="#F1F1F1" height="92.8281" id="Vinculo" rx="2.5" ry="2.5" style="stroke:#181818;stroke-width:0.5;" width="78" x="123.5" y="609.1094"/><ellipse cx="138.5" cy="625.1094" fill="#ADD1B2" rx="11" ry="11" style="stroke:#181818;stroke-width:1.0;"/><path d="M141.2656,620.9844 Q141.4219,620.7656 141.6094,620.6563 Q141.7969,620.5469 142.0156,620.5469 Q142.3906,620.5469 142.625,620.8125 Q142.8594,621.0625 142.8594,621.6719 L142.8594,623.125 Q142.8594,623.7344 142.625,624 Q142.3906,624.2656 142.0156,624.2656 Q141.6719,624.2656 141.4688,624.0625 Q141.2656,623.875 141.1563,623.3594 Q141.1094,623 140.9219,622.8125 Q140.5938,622.4375 139.9844,622.2188 Q139.375,622 138.75,622 Q137.9844,622 137.3438,622.3281 Q136.7188,622.6563 136.2188,623.4063 Q135.7344,624.1563 135.7344,625.1875 L135.7344,626.2813 Q135.7344,627.5156 136.625,628.3438 Q137.5156,629.1563 139.1094,629.1563 Q140.0469,629.1563 140.7031,628.9063 Q141.0938,628.75 141.5156,628.3125 Q141.7813,628.0469 141.9219,627.9688 Q142.0781,627.8906 142.2813,627.8906 Q142.6094,627.8906 142.8594,628.1563 Q143.125,628.4063 143.125,628.75 Q143.125,629.0938 142.7813,629.5 Q142.2813,630.0781 141.4844,630.4063 Q140.4063,630.8594 139.1094,630.8594 Q137.5938,630.8594 136.3906,630.2344 Q135.4063,629.7344 134.7188,628.6719 Q134.0313,627.5938 134.0313,626.3125 L134.0313,625.1563 Q134.0313,623.8281 134.6406,622.6875 Q135.2656,621.5313 136.3594,620.9219 Q137.4531,620.2969 138.6875,620.2969 Q139.4219,620.2969 140.0625,620.4688 Q140.7188,620.625 141.2656,620.9844 Z " fill="#000000"/><text fill="#000000" font-family="sans-serif" font-size="14" lengthAdjust="spacing" textLength="46" x="152.5" y="630.8379">Vinculo</text><line style="stroke:#181818;stroke-width:0.5;" x1="124.5" x2="200.5" y1="641.1094" y2="641.1094"/><text fill="#000000" font-family="sans-serif" font-size="14" lengthAdjust="spacing" textLength="19" x="129.5" y="659.6426">+id</text><text fill="#000000" font-family="sans-serif" font-size="14" lengthAdjust="spacing" textLength="31" x="129.5" y="677.252">+tipo</text><text fill="#000000" font-family="sans-serif" font-size="14" lengthAdjust="spacing" textLength="46" x="129.5" y="694.8613">+status</text></g><!--class AuditLog--><g id="elem_AuditLog"><rect codeLine="100" fill="#F1F1F1" height="128.0469" id="AuditLog" rx="2.5" ry="2.5" style="stroke:#181818;stroke-width:0.5;" width="88" x="394.5" y="403.6094"/><ellipse cx="409.5" cy="419.6094" fill="#ADD1B2" rx="11" ry="11" style="stroke:#181818;stroke-width:1.0;"/><path d="M412.2656,415.4844 Q412.4219,415.2656 412.6094,415.1563 Q412.7969,415.0469 413.0156,415.0469 Q413.3906,415.0469 413.625,415.3125 Q413.8594,415.5625 413.8594,416.1719 L413.8594,417.625 Q413.8594,418.2344 413.625,418.5 Q413.3906,418.7656 413.0156,418.7656 Q412.6719,418.7656 412.4688,418.5625 Q412.2656,418.375 412.1563,417.8594 Q412.1094,417.5 411.9219,417.3125 Q411.5938,416.9375 410.9844,416.7188 Q410.375,416.5 409.75,416.5 Q408.9844,416.5 408.3438,416.8281 Q407.7188,417.1563 407.2188,417.9063 Q406.7344,418.6563 406.7344,419.6875 L406.7344,420.7813 Q406.7344,422.0156 407.625,422.8438 Q408.5156,423.6563 410.1094,423.6563 Q411.0469,423.6563 411.7031,423.4063 Q412.0938,423.25 412.5156,422.8125 Q412.7813,422.5469 412.9219,422.4688 Q413.0781,422.3906 413.2813,422.3906 Q413.6094,422.3906 413.8594,422.6563 Q414.125,422.9063 414.125,423.25 Q414.125,423.5938 413.7813,424 Q413.2813,424.5781 412.4844,424.9063 Q411.4063,425.3594 410.1094,425.3594 Q408.5938,425.3594 407.3906,424.7344 Q406.4063,424.2344 405.7188,423.1719 Q405.0313,422.0938 405.0313,420.8125 L405.0313,419.6563 Q405.0313,418.3281 405.6406,417.1875 Q406.2656,416.0313 407.3594,415.4219 Q408.4531,414.7969 409.6875,414.7969 Q410.4219,414.7969 411.0625,414.9688 Q411.7188,415.125 412.2656,415.4844 Z " fill="#000000"/><text fill="#000000" font-family="sans-serif" font-size="14" lengthAdjust="spacing" textLength="56" x="423.5" y="425.3379">AuditLog</text><line style="stroke:#181818;stroke-width:0.5;" x1="395.5" x2="481.5" y1="435.6094" y2="435.6094"/><text fill="#000000" font-family="sans-serif" font-size="14" lengthAdjust="spacing" textLength="19" x="400.5" y="454.1426">+id</text><text fill="#000000" font-family="sans-serif" font-size="14" lengthAdjust="spacing" textLength="33" x="400.5" y="471.752">+ator</text><text fill="#000000" font-family="sans-serif" font-size="14" lengthAdjust="spacing" textLength="54" x="400.5" y="489.3613">+m&#243;dulo</text><text fill="#000000" font-family="sans-serif" font-size="14" lengthAdjust="spacing" textLength="39" x="400.5" y="506.9707">+a&#231;&#227;o</text><text fill="#000000" font-family="sans-serif" font-size="14" lengthAdjust="spacing" textLength="67" x="400.5" y="524.5801">+metadata</text></g><!--class AuthSession--><g id="elem_AuthSession"><rect codeLine="108" fill="#F1F1F1" height="110.4375" id="AuthSession" rx="2.5" ry="2.5" style="stroke:#181818;stroke-width:0.5;" width="111" x="621" y="412.6094"/><ellipse cx="636" cy="428.6094" fill="#ADD1B2" rx="11" ry="11" style="stroke:#181818;stroke-width:1.0;"/><path d="M638.7656,424.4844 Q638.9219,424.2656 639.1094,424.1563 Q639.2969,424.0469 639.5156,424.0469 Q639.8906,424.0469 640.125,424.3125 Q640.3594,424.5625 640.3594,425.1719 L640.3594,426.625 Q640.3594,427.2344 640.125,427.5 Q639.8906,427.7656 639.5156,427.7656 Q639.1719,427.7656 638.9688,427.5625 Q638.7656,427.375 638.6563,426.8594 Q638.6094,426.5 638.4219,426.3125 Q638.0938,425.9375 637.4844,425.7188 Q636.875,425.5 636.25,425.5 Q635.4844,425.5 634.8438,425.8281 Q634.2188,426.1563 633.7188,426.9063 Q633.2344,427.6563 633.2344,428.6875 L633.2344,429.7813 Q633.2344,431.0156 634.125,431.8438 Q635.0156,432.6563 636.6094,432.6563 Q637.5469,432.6563 638.2031,432.4063 Q638.5938,432.25 639.0156,431.8125 Q639.2813,431.5469 639.4219,431.4688 Q639.5781,431.3906 639.7813,431.3906 Q640.1094,431.3906 640.3594,431.6563 Q640.625,431.9063 640.625,432.25 Q640.625,432.5938 640.2813,433 Q639.7813,433.5781 638.9844,433.9063 Q637.9063,434.3594 636.6094,434.3594 Q635.0938,434.3594 633.8906,433.7344 Q632.9063,433.2344 632.2188,432.1719 Q631.5313,431.0938 631.5313,429.8125 L631.5313,428.6563 Q631.5313,427.3281 632.1406,426.1875 Q632.7656,425.0313 633.8594,424.4219 Q634.9531,423.7969 636.1875,423.7969 Q636.9219,423.7969 637.5625,423.9688 Q638.2188,424.125 638.7656,424.4844 Z " fill="#000000"/><text fill="#000000" font-family="sans-serif" font-size="14" lengthAdjust="spacing" textLength="79" x="650" y="434.3379">AuthSession</text><line style="stroke:#181818;stroke-width:0.5;" x1="622" x2="731" y1="444.6094" y2="444.6094"/><text fill="#000000" font-family="sans-serif" font-size="14" lengthAdjust="spacing" textLength="19" x="627" y="463.1426">+id</text><text fill="#000000" font-family="sans-serif" font-size="14" lengthAdjust="spacing" textLength="82" x="627" y="480.752">+token_hash</text><text fill="#000000" font-family="sans-serif" font-size="14" lengthAdjust="spacing" textLength="46" x="627" y="498.3613">+status</text><text fill="#000000" font-family="sans-serif" font-size="14" lengthAdjust="spacing" textLength="73" x="627" y="515.9707">+expires_at</text></g><!--class AuthRefreshToken--><g id="elem_AuthRefreshToken"><rect codeLine="115" fill="#F1F1F1" height="128.0469" id="AuthRefreshToken" rx="2.5" ry="2.5" style="stroke:#181818;stroke-width:0.5;" width="151" x="601" y="591.6094"/><ellipse cx="616" cy="607.6094" fill="#ADD1B2" rx="11" ry="11" style="stroke:#181818;stroke-width:1.0;"/><path d="M618.7656,603.4844 Q618.9219,603.2656 619.1094,603.1563 Q619.2969,603.0469 619.5156,603.0469 Q619.8906,603.0469 620.125,603.3125 Q620.3594,603.5625 620.3594,604.1719 L620.3594,605.625 Q620.3594,606.2344 620.125,606.5 Q619.8906,606.7656 619.5156,606.7656 Q619.1719,606.7656 618.9688,606.5625 Q618.7656,606.375 618.6563,605.8594 Q618.6094,605.5 618.4219,605.3125 Q618.0938,604.9375 617.4844,604.7188 Q616.875,604.5 616.25,604.5 Q615.4844,604.5 614.8438,604.8281 Q614.2188,605.1563 613.7188,605.9063 Q613.2344,606.6563 613.2344,607.6875 L613.2344,608.7813 Q613.2344,610.0156 614.125,610.8438 Q615.0156,611.6563 616.6094,611.6563 Q617.5469,611.6563 618.2031,611.4063 Q618.5938,611.25 619.0156,610.8125 Q619.2813,610.5469 619.4219,610.4688 Q619.5781,610.3906 619.7813,610.3906 Q620.1094,610.3906 620.3594,610.6563 Q620.625,610.9063 620.625,611.25 Q620.625,611.5938 620.2813,612 Q619.7813,612.5781 618.9844,612.9063 Q617.9063,613.3594 616.6094,613.3594 Q615.0938,613.3594 613.8906,612.7344 Q612.9063,612.2344 612.2188,611.1719 Q611.5313,610.0938 611.5313,608.8125 L611.5313,607.6563 Q611.5313,606.3281 612.1406,605.1875 Q612.7656,604.0313 613.8594,603.4219 Q614.9531,602.7969 616.1875,602.7969 Q616.9219,602.7969 617.5625,602.9688 Q618.2188,603.125 618.7656,603.4844 Z " fill="#000000"/><text fill="#000000" font-family="sans-serif" font-size="14" lengthAdjust="spacing" textLength="119" x="630" y="613.3379">AuthRefreshToken</text><line style="stroke:#181818;stroke-width:0.5;" x1="602" x2="751" y1="623.6094" y2="623.6094"/><text fill="#000000" font-family="sans-serif" font-size="14" lengthAdjust="spacing" textLength="19" x="607" y="642.1426">+id</text><text fill="#000000" font-family="sans-serif" font-size="14" lengthAdjust="spacing" textLength="63" x="607" y="659.752">+family_id</text><text fill="#000000" font-family="sans-serif" font-size="14" lengthAdjust="spacing" textLength="82" x="607" y="677.3613">+token_hash</text><text fill="#000000" font-family="sans-serif" font-size="14" lengthAdjust="spacing" textLength="46" x="607" y="694.9707">+status</text><text fill="#000000" font-family="sans-serif" font-size="14" lengthAdjust="spacing" textLength="73" x="607" y="712.5801">+expires_at</text></g><!--reverse link Rede to Unidade--><g id="link_Rede_Unidade"><path codeLine="123" d="M334.2674,158.1467 C323.7474,181.7067 315.74,199.6594 304.71,224.3694 " fill="none" id="Rede-backto-Unidade" style="stroke:#181818;stroke-width:1.0;"/><polygon fill="none" points="339.16,147.1894,333.0613,151.0371,334.2674,158.1467,340.3661,154.2989,339.16,147.1894" style="stroke:#181818;stroke-width:1.0;"/><text fill="#000000" font-family="sans-serif" font-size="13" lengthAdjust="spacing" textLength="7" x="328.8075" y="168.3966">1</text><text fill="#000000" font-family="sans-serif" font-size="13" lengthAdjust="spacing" textLength="20" x="286.5307" y="213.7564">1..*</text></g><!--reverse link Rede to UsuarioInterno--><g id="link_Rede_UsuarioInterno"><path codeLine="124" d="M384.7337,158.1462 C394.0237,178.9462 400.27,192.9494 410.34,215.5094 " fill="none" id="Rede-backto-UsuarioInterno" style="stroke:#181818;stroke-width:1.0;"/><polygon fill="none" points="379.84,147.1894,378.6346,154.299,384.7337,158.1462,385.9391,151.0366,379.84,147.1894" style="stroke:#181818;stroke-width:1.0;"/><text fill="#000000" font-family="sans-serif" font-size="13" lengthAdjust="spacing" textLength="7" x="375.2081" y="168.3966">1</text><text fill="#000000" font-family="sans-serif" font-size="13" lengthAdjust="spacing" textLength="20" x="385.9277" y="204.6855">0..*</text></g><!--reverse link Unidade to Aluno--><g id="link_Unidade_Aluno"><path codeLine="125" d="M221.1114,343.3749 C197.9714,367.8249 178.93,387.9594 155.77,412.4294 " fill="none" id="Unidade-backto-Aluno" style="stroke:#181818;stroke-width:1.0;"/><polygon fill="none" points="229.36,334.6594,222.3305,336.2676,221.1114,343.3749,228.1409,341.7667,229.36,334.6594" style="stroke:#181818;stroke-width:1.0;"/><text fill="#000000" font-family="sans-serif" font-size="13" lengthAdjust="spacing" textLength="7" x="215.0178" y="356.6211">1</text><text fill="#000000" font-family="sans-serif" font-size="13" lengthAdjust="spacing" textLength="20" x="141.0577" y="401.824">0..*</text></g><!--reverse link UsuarioInterno to AuthSession--><g id="link_UsuarioInterno_AuthSession"><path codeLine="126" d="M510.2338,337.4059 C516.2138,342.0159 512.7,339.2594 518.5,343.6094 C555.2,371.1394 566.33,375.3794 602.5,403.6094 C608.49,408.2794 614.65,413.2594 620.75,418.2894 " fill="none" id="UsuarioInterno-backto-AuthSession" style="stroke:#181818;stroke-width:1.0;"/><polygon fill="none" points="500.73,330.0794,503.0397,336.9106,510.2338,337.4059,507.9241,330.5747,500.73,330.0794" style="stroke:#181818;stroke-width:1.0;"/><text fill="#000000" font-family="sans-serif" font-size="13" lengthAdjust="spacing" textLength="7" x="508.33" y="332.5027">1</text><text fill="#000000" font-family="sans-serif" font-size="13" lengthAdjust="spacing" textLength="20" x="593.1477" y="409.1519">0..*</text></g><!--reverse link AuthSession to AuthRefreshToken--><g id="link_AuthSession_AuthRefreshToken"><path codeLine="127" d="M676.5,534.6594 C676.5,556.2194 676.5,569.1894 676.5,591.5594 " fill="none" id="AuthSession-backto-AuthRefreshToken" style="stroke:#181818;stroke-width:1.0;"/><polygon fill="none" points="676.5,522.6594,672.5,528.6594,676.5,534.6594,680.5,528.6594,676.5,522.6594" style="stroke:#181818;stroke-width:1.0;"/><text fill="#000000" font-family="sans-serif" font-size="13" lengthAdjust="spacing" textLength="7" x="669.0297" y="544.6211">1</text><text fill="#000000" font-family="sans-serif" font-size="13" lengthAdjust="spacing" textLength="20" x="655.3438" y="580.7413">0..*</text></g><!--reverse link Aluno to Mensalidade--><g id="link_Aluno_Mensalidade"><path codeLine="128" d="M178.5901,527.0502 C184.1401,531.0802 180.02,527.9494 185.5,531.6094 C237.88,566.6294 300.77,601.7094 345.14,625.3894 " fill="none" id="Aluno-backto-Mensalidade" style="stroke:#181818;stroke-width:1.0;"/><polygon fill="none" points="168.88,519.9994,171.3848,526.7615,178.5901,527.0502,176.0853,520.2881,168.88,519.9994" style="stroke:#181818;stroke-width:1.0;"/><text fill="#000000" font-family="sans-serif" font-size="13" lengthAdjust="spacing" textLength="7" x="176.3044" y="522.3449">1</text><text fill="#000000" font-family="sans-serif" font-size="13" lengthAdjust="spacing" textLength="20" x="317.4671" y="618.4603">0..*</text></g><!--reverse link Plano to Mensalidade--><g id="link_Plano_Mensalidade"><path codeLine="129" d="M509.9281,520.1613 C488.4981,546.7413 468.15,571.9694 445.1,600.5494 " fill="none" id="Plano-backto-Mensalidade" style="stroke:#181818;stroke-width:1.0;"/><polygon fill="none" points="517.46,510.8194,510.5801,512.9797,509.9281,520.1613,516.808,518.0009,517.46,510.8194" style="stroke:#181818;stroke-width:1.0;"/><text fill="#000000" font-family="sans-serif" font-size="13" lengthAdjust="spacing" textLength="7" x="502.7174" y="515.5677">1</text><text fill="#000000" font-family="sans-serif" font-size="13" lengthAdjust="spacing" textLength="20" x="429.615" y="589.565">0..*</text></g><!--reverse link Mensalidade to Pagamento--><g id="link_Mensalidade_Pagamento"><path codeLine="130" d="M401.5,722.6794 C401.5,744.5394 401.5,757.7094 401.5,779.5694 " fill="none" id="Mensalidade-backto-Pagamento" style="stroke:#181818;stroke-width:1.0;"/><polygon fill="none" points="401.5,710.6794,397.5,716.6794,401.5,722.6794,405.5,716.6794,401.5,710.6794" style="stroke:#181818;stroke-width:1.0;"/><text fill="#000000" font-family="sans-serif" font-size="13" lengthAdjust="spacing" textLength="7" x="394.0297" y="732.6437">1</text><text fill="#000000" font-family="sans-serif" font-size="13" lengthAdjust="spacing" textLength="20" x="380.1563" y="768.5877">0..*</text></g><!--reverse link Aluno to Acesso--><g id="link_Aluno_Acesso"><path codeLine="131" d="M84.4209,534.1318 C76.9209,558.5818 71.6,575.9594 64.1,600.4294 " fill="none" id="Aluno-backto-Acesso" style="stroke:#181818;stroke-width:1.0;"/><polygon fill="none" points="87.94,522.6594,82.3563,527.2225,84.4209,534.1318,90.0046,529.5686,87.94,522.6594" style="stroke:#181818;stroke-width:1.0;"/><text fill="#000000" font-family="sans-serif" font-size="13" lengthAdjust="spacing" textLength="7" x="78.2444" y="544.6211">1</text><text fill="#000000" font-family="sans-serif" font-size="13" lengthAdjust="spacing" textLength="20" x="44.9456" y="589.824">0..*</text></g><!--reverse link Aluno to Vinculo--><g id="link_Aluno_Vinculo"><path codeLine="132" d="M124.9229,534.1151 C133.4529,561.4651 140.12,582.8494 148.25,608.9194 " fill="none" id="Aluno-backto-Vinculo" style="stroke:#181818;stroke-width:1.0;"/><polygon fill="none" points="121.35,522.6594,119.3178,529.5782,124.9229,534.1151,126.955,527.1963,121.35,522.6594" style="stroke:#181818;stroke-width:1.0;"/><text fill="#000000" font-family="sans-serif" font-size="13" lengthAdjust="spacing" textLength="7" x="116.1439" y="544.6211">1</text><text fill="#000000" font-family="sans-serif" font-size="13" lengthAdjust="spacing" textLength="20" x="124.6883" y="598.4203">0..*</text></g><!--reverse link Produto to VendaProduto--><g id="link_Produto_VendaProduto"><path codeLine="133" d="M597.5,167.6794 C597.5,192.3794 597.5,209.3294 597.5,232.9194 " fill="none" id="Produto-backto-VendaProduto" style="stroke:#181818;stroke-width:1.0;"/><polygon fill="none" points="597.5,155.6794,593.5,161.6794,597.5,167.6794,601.5,161.6794,597.5,155.6794" style="stroke:#181818;stroke-width:1.0;"/><text fill="#000000" font-family="sans-serif" font-size="13" lengthAdjust="spacing" textLength="7" x="590.0297" y="177.6437">1</text><text fill="#000000" font-family="sans-serif" font-size="13" lengthAdjust="spacing" textLength="20" x="576.0313" y="222.4203">0..*</text></g><!--reverse link PlanoContas to ContaFinanceira--><g id="link_PlanoContas_ContaFinanceira"><path codeLine="134" d="M762.5,159.1894 C762.5,182.7494 762.5,199.6594 762.5,224.3694 " fill="none" id="PlanoContas-backto-ContaFinanceira" style="stroke:#181818;stroke-width:1.0;"/><polygon fill="none" points="762.5,147.1894,758.5,153.1894,762.5,159.1894,766.5,153.1894,762.5,147.1894" style="stroke:#181818;stroke-width:1.0;"/><text fill="#000000" font-family="sans-serif" font-size="13" lengthAdjust="spacing" textLength="7" x="755.0078" y="168.3966">1</text><text fill="#000000" font-family="sans-serif" font-size="13" lengthAdjust="spacing" textLength="20" x="741.2188" y="213.7564">0..*</text></g><!--reverse link Unidade to FechamentoMensal--><g id="link_Unidade_FechamentoMensal"><path codeLine="135" d="M280.8558,346.6592 C281.0058,374.0092 281.11,394.8494 281.25,420.9194 " fill="none" id="Unidade-backto-FechamentoMensal" style="stroke:#181818;stroke-width:1.0;"/><polygon fill="none" points="280.79,334.6594,276.823,340.6812,280.8558,346.6592,284.8228,340.6373,280.79,334.6594" style="stroke:#181818;stroke-width:1.0;"/><text fill="#000000" font-family="sans-serif" font-size="13" lengthAdjust="spacing" textLength="7" x="273.3587" y="356.6211">1</text><text fill="#000000" font-family="sans-serif" font-size="13" lengthAdjust="spacing" textLength="20" x="259.7445" y="410.4203">0..*</text></g><!--reverse link UsuarioInterno to AuditLog--><g id="link_UsuarioInterno_AuditLog"><path codeLine="136" d="M438.5,355.8394 C438.5,375.1094 438.5,384.2894 438.5,403.5494 " fill="none" id="UsuarioInterno-backto-AuditLog" style="stroke:#181818;stroke-width:1.0;"/><polygon fill="none" points="438.5,343.8394,434.5,349.8394,438.5,355.8394,442.5,349.8394,438.5,343.8394" style="stroke:#181818;stroke-width:1.0;"/><text fill="#000000" font-family="sans-serif" font-size="13" lengthAdjust="spacing" textLength="7" x="431.1172" y="365.2513">1</text><text fill="#000000" font-family="sans-serif" font-size="13" lengthAdjust="spacing" textLength="20" x="417.3438" y="392.7302">0..*</text></g><!--SRC=[bLHDRXCn5Dxx55QMe3Pboou2HQhKIAY1RgF7-2NpL8_VOBy9K8J48RW1Yqf8h7g4kGadmJFJ9Cx45B799EFln_xylWY9HRrWWvRrAtO5aZHWjK7zcglsboFMlxzzrqiAWXNeMG46AmAzdAcI8gf2ATa45Mx9rU2XqeM546OYdjutWfS5koNTeRv88A44mn_9RVGQR42bUew-nYZuHMdzd4ptwRZ2xXa4f0dgwmxtpf61F5IevfTw0T7zRZedIs2p2g41Jtpf1BtZd93b3RbfF3Br0ZNKc5MQsIOly0YCt-9UEUWO70JnG0dvZOKyUGkMVSvkWIw0FJd-mMoBhg0AdV11v-076-ZNKkxUou10B-QW3YMBBkEbjm-U2auaF9j6ifkkFRRtlIq6uGyD7bWtw0nag3lBVWzQME9rxKbn70NcvA2RIWyfhxlc9tFga-q5GiehG733dc0licVCiIY7S8QCZsXSrIZjpnWjP8UWm11E3ZOjsVTmZw6n4gUW-r6nq3RnlI5ND9PpfpknQGp95MzIBCWGGDK-c2ZJlshlsn-35qRNBk94Gifbt2onEtBaMtIh4a9vF4tugQQu-nN8iSGrhkFhycr7ItNMK97zlFeVqRxqanSJpMTdyNb-_cooA_XexM9OEwgkslqNZ51zBTMevcFC8GkLvfA1fUTLG-L7gAIOQgZr4u2qnIFOlg9vcs7IyckFawHsFHil9nrKQJz6k57j_fRmk2__37kOtJy0]--></g></svg>