<?xml version="1.0" encoding="us-ascii" standalone="no"?><svg xmlns="http://www.w3.org/2000/svg" xmlns:xlink="http://www.w3.org/1999/xlink" contentStyleType="text/css" height="1146px" preserveAspectRatio="none" style="width:780px;height:1146px;background:#FFFFFF;" version="1.1" viewBox="0 0 780 1146" width="780px" zoomAndPan="magnify"><defs/><g><text fill="#000000" font-family="sans-serif" font-size="14" font-weight="bold" lengthAdjust="spacing" textLength="290.4375" x="243.4063" y="34.5332">Rotina Operacional &#8212; Atendimento Di&#225;rio</text><ellipse cx="559.25" cy="58.6094" fill="#222222" rx="10" ry="10" style="stroke:#222222;stroke-width:1.0;"/><rect fill="#F1F1F1" height="35.0938" rx="12.5" ry="12.5" style="stroke:#181818;stroke-width:0.5;" width="154" x="482.25" y="88.6094"/><text fill="#000000" font-family="sans-serif" font-size="12" lengthAdjust="spacing" textLength="134" x="492.25" y="111.0664">Login do usu&#225;rio interno</text><rect fill="#F1F1F1" height="35.0938" rx="12.5" ry="12.5" style="stroke:#181818;stroke-width:0.5;" width="140" x="489.25" y="143.7031"/><text fill="#000000" font-family="sans-serif" font-size="12" lengthAdjust="spacing" textLength="120" x="499.25" y="166.1602">Validar sess&#227;o opaca</text><polygon fill="#F1F1F1" points="522.25,198.7969,596.25,198.7969,608.25,210.7969,596.25,222.7969,522.25,222.7969,510.25,210.7969,522.25,198.7969" style="stroke:#181818;stroke-width:0.5;"/><text fill="#000000" font-family="sans-serif" font-size="11" lengthAdjust="spacing" textLength="74" x="522.25" y="215.2979">Sess&#227;o v&#225;lida?</text><text fill="#000000" font-family="sans-serif" font-size="11" lengthAdjust="spacing" textLength="16" x="494.25" y="208.3799">sim</text><text fill="#000000" font-family="sans-serif" font-size="11" lengthAdjust="spacing" textLength="18" x="608.25" y="208.3799">n&#227;o</text><rect fill="#F1F1F1" height="35.0938" rx="12.5" ry="12.5" style="stroke:#181818;stroke-width:0.5;" width="197" x="294.5" y="232.7969"/><text fill="#000000" font-family="sans-serif" font-size="12" lengthAdjust="spacing" textLength="177" x="304.5" y="255.2539">Selecionar Unidade operacional</text><rect fill="#F1F1F1" height="35.0938" rx="12.5" ry="12.5" style="stroke:#181818;stroke-width:0.5;" width="108" x="339" y="287.8906"/><text fill="#000000" font-family="sans-serif" font-size="12" lengthAdjust="spacing" textLength="88" x="349" y="310.3477">Consultar aluno</text><rect fill="#F1F1F1" height="35.0938" rx="12.5" ry="12.5" style="stroke:#181818;stroke-width:0.5;" width="233" x="276.5" y="342.9844"/><text fill="#000000" font-family="sans-serif" font-size="12" lengthAdjust="spacing" textLength="213" x="286.5" y="365.4414">Verificar status cadastral e operacional</text><rect fill="#F1F1F1" height="35.0938" rx="12.5" ry="12.5" style="stroke:#181818;stroke-width:0.5;" width="188" x="299" y="398.0781"/><text fill="#000000" font-family="sans-serif" font-size="12" lengthAdjust="spacing" textLength="168" x="309" y="420.5352">Verificar mensalidade/v&#237;nculos</text><polygon fill="#F1F1F1" points="321.5,453.1719,464.5,453.1719,476.5,465.1719,464.5,477.1719,321.5,477.1719,309.5,465.1719,321.5,453.1719" style="stroke:#181818;stroke-width:0.5;"/><text fill="#000000" font-family="sans-serif" font-size="11" lengthAdjust="spacing" textLength="143" x="321.5" y="469.6729">H&#225; pend&#234;ncia de pagamento?</text><text fill="#000000" font-family="sans-serif" font-size="11" lengthAdjust="spacing" textLength="16" x="293.5" y="462.7549">sim</text><text fill="#000000" font-family="sans-serif" font-size="11" lengthAdjust="spacing" textLength="18" x="476.5" y="462.7549">n&#227;o</text><polygon fill="#F1F1F1" points="150,487.1719,307,487.1719,319,499.1719,307,511.1719,150,511.1719,138,499.1719,150,487.1719" style="stroke:#181818;stroke-width:0.5;"/><text fill="#000000" font-family="sans-serif" font-size="11" lengthAdjust="spacing" textLength="157" x="150" y="503.6729">Perfil pode registrar pagamento?</text><text fill="#000000" font-family="sans-serif" font-size="11" lengthAdjust="spacing" textLength="16" x="122" y="496.7549">sim</text><text fill="#000000" font-family="sans-serif" font-size="11" lengthAdjust="spacing" textLength="18" x="319" y="496.7549">n&#227;o</text><rect fill="#F1F1F1" height="35.0938" rx="12.5" ry="12.5" style="stroke:#181818;stroke-width:0.5;" width="205" x="11" y="521.1719"/><text fill="#000000" font-family="sans-serif" font-size="12" lengthAdjust="spacing" textLength="185" x="21" y="543.6289">Registrar pagamento operacional</text><rect fill="#F1F1F1" height="35.0938" rx="12.5" ry="12.5" style="stroke:#181818;stroke-width:0.5;" width="142" x="42.5" y="576.2656"/><text fill="#000000" font-family="sans-serif" font-size="12" lengthAdjust="spacing" textLength="122" x="52.5" y="598.7227">Atualizar mensalidade</text><rect fill="#F1F1F1" height="35.0938" rx="12.5" ry="12.5" style="stroke:#181818;stroke-width:0.5;" width="122" x="52.5" y="631.3594"/><text fill="#000000" font-family="sans-serif" font-size="12" lengthAdjust="spacing" textLength="102" x="62.5" y="653.8164">Registrar Auditoria</text><rect fill="#F1F1F1" height="35.0938" rx="12.5" ry="12.5" style="stroke:#181818;stroke-width:0.5;" width="205" x="241" y="521.1719"/><text fill="#000000" font-family="sans-serif" font-size="12" lengthAdjust="spacing" textLength="185" x="251" y="543.6289">Encaminhar para perfil autorizado</text><rect fill="#F1F1F1" height="35.0938" rx="12.5" ry="12.5" style="stroke:#181818;stroke-width:0.5;" width="215" x="236" y="576.2656"/><text fill="#000000" font-family="sans-serif" font-size="12" lengthAdjust="spacing" textLength="195" x="246" y="598.7227">Registrar tentativa quando aplic&#225;vel</text><polygon fill="#F1F1F1" points="228.5,672.4531,240.5,684.4531,228.5,696.4531,216.5,684.4531,228.5,672.4531" style="stroke:#181818;stroke-width:0.5;"/><rect fill="#F1F1F1" height="35.0938" rx="12.5" ry="12.5" style="stroke:#181818;stroke-width:0.5;" width="153" x="481" y="487.1719"/><text fill="#000000" font-family="sans-serif" font-size="12" lengthAdjust="spacing" textLength="133" x="491" y="509.6289">Prosseguir atendimento</text><polygon fill="#F1F1F1" points="393,702.4531,405,714.4531,393,726.4531,381,714.4531,393,702.4531" style="stroke:#181818;stroke-width:0.5;"/><polygon fill="#F1F1F1" points="330,795.3711,456,795.3711,468,807.3711,456,819.3711,330,819.3711,318,807.3711,330,795.3711" style="stroke:#181818;stroke-width:0.5;"/><text fill="#000000" font-family="sans-serif" font-size="11" lengthAdjust="spacing" textLength="126" x="330" y="811.8721">Regras permitem acesso?</text><text fill="#000000" font-family="sans-serif" font-size="11" lengthAdjust="spacing" textLength="16" x="302" y="804.9541">sim</text><text fill="#000000" font-family="sans-serif" font-size="11" lengthAdjust="spacing" textLength="18" x="468" y="804.9541">n&#227;o</text><rect fill="#F1F1F1" height="35.0938" rx="12.5" ry="12.5" style="stroke:#181818;stroke-width:0.5;" width="103" x="245" y="829.3711"/><text fill="#000000" font-family="sans-serif" font-size="12" lengthAdjust="spacing" textLength="83" x="255" y="851.8281">Liberar acesso</text><rect fill="#F1F1F1" height="35.0938" rx="12.5" ry="12.5" style="stroke:#181818;stroke-width:0.5;" width="166" x="213.5" y="899.4648"/><text fill="#000000" font-family="sans-serif" font-size="12" lengthAdjust="spacing" textLength="146" x="223.5" y="921.9219">Registrar Auditoria/acesso</text><rect fill="#F1F1F1" height="35.0938" rx="12.5" ry="12.5" style="stroke:#181818;stroke-width:0.5;" width="180" x="399.5" y="829.3711"/><text fill="#000000" font-family="sans-serif" font-size="12" lengthAdjust="spacing" textLength="160" x="409.5" y="851.8281">Bloquear acesso com motivo</text><rect fill="#F1F1F1" height="35.0938" rx="12.5" ry="12.5" style="stroke:#181818;stroke-width:0.5;" width="166" x="406.5" y="899.4648"/><text fill="#000000" font-family="sans-serif" font-size="12" lengthAdjust="spacing" textLength="146" x="416.5" y="921.9219">Registrar Auditoria/acesso</text><polygon fill="#F1F1F1" points="393,940.5586,405,952.5586,393,964.5586,381,952.5586,393,940.5586" style="stroke:#181818;stroke-width:0.5;"/><polygon fill="#F1F1F1" points="347,746.4531,439,746.4531,451,758.4531,439,770.4531,347,770.4531,335,758.4531,347,746.4531" style="stroke:#181818;stroke-width:0.5;"/><text fill="#000000" font-family="sans-serif" font-size="11" lengthAdjust="spacing" textLength="16" x="397" y="781.8721">sim</text><text fill="#000000" font-family="sans-serif" font-size="11" lengthAdjust="spacing" textLength="92" x="347" y="762.9541">Acesso solicitado?</text><polygon fill="#F1F1F1" points="393,984.5586,405,996.5586,393,1008.5586,381,996.5586,393,984.5586" style="stroke:#181818;stroke-width:0.5;"/><rect fill="#F1F1F1" height="35.0938" rx="12.5" ry="12.5" style="stroke:#181818;stroke-width:0.5;" width="138" x="324" y="1028.5586"/><text fill="#000000" font-family="sans-serif" font-size="12" lengthAdjust="spacing" textLength="118" x="334" y="1051.0156">Finalizar atendimento</text><rect fill="#F1F1F1" height="35.0938" rx="12.5" ry="12.5" style="stroke:#181818;stroke-width:0.5;" width="123" x="646.25" y="232.7969"/><text fill="#000000" font-family="sans-serif" font-size="12" lengthAdjust="spacing" textLength="103" x="656.25" y="255.2539">Solicitar novo login</text><polygon fill="#F1F1F1" points="559.25,1069.6523,571.25,1081.6523,559.25,1093.6523,547.25,1081.6523,559.25,1069.6523" style="stroke:#181818;stroke-width:0.5;"/><ellipse cx="559.25" cy="1124.6523" fill="none" rx="11" ry="11" style="stroke:#222222;stroke-width:1.0;"/><ellipse cx="559.25" cy="1124.6523" fill="#222222" rx="6" ry="6" style="stroke:#222222;stroke-width:1.0;"/><line style="stroke:#181818;stroke-width:1.0;" x1="559.25" x2="559.25" y1="68.6094" y2="88.6094"/><polygon fill="#181818" points="555.25,78.6094,559.25,88.6094,563.25,78.6094,559.25,82.6094" style="stroke:#181818;stroke-width:1.0;"/><line style="stroke:#181818;stroke-width:1.0;" x1="559.25" x2="559.25" y1="123.7031" y2="143.7031"/><polygon fill="#181818" points="555.25,133.7031,559.25,143.7031,563.25,133.7031,559.25,137.7031" style="stroke:#181818;stroke-width:1.0;"/><line style="stroke:#181818;stroke-width:1.0;" x1="393" x2="393" y1="267.8906" y2="287.8906"/><polygon fill="#181818" points="389,277.8906,393,287.8906,397,277.8906,393,281.8906" style="stroke:#181818;stroke-width:1.0;"/><line style="stroke:#181818;stroke-width:1.0;" x1="393" x2="393" y1="322.9844" y2="342.9844"/><polygon fill="#181818" points="389,332.9844,393,342.9844,397,332.9844,393,336.9844" style="stroke:#181818;stroke-width:1.0;"/><line style="stroke:#181818;stroke-width:1.0;" x1="393" x2="393" y1="378.0781" y2="398.0781"/><polygon fill="#181818" points="389,388.0781,393,398.0781,397,388.0781,393,392.0781" style="stroke:#181818;stroke-width:1.0;"/><line style="stroke:#181818;stroke-width:1.0;" x1="113.5" x2="113.5" y1="556.2656" y2="576.2656"/><polygon fill="#181818" points="109.5,566.2656,113.5,576.2656,117.5,566.2656,113.5,570.2656" style="stroke:#181818;stroke-width:1.0;"/><line style="stroke:#181818;stroke-width:1.0;" x1="113.5" x2="113.5" y1="611.3594" y2="631.3594"/><polygon fill="#181818" points="109.5,621.3594,113.5,631.3594,117.5,621.3594,113.5,625.3594" style="stroke:#181818;stroke-width:1.0;"/><line style="stroke:#181818;stroke-width:1.0;" x1="343.5" x2="343.5" y1="556.2656" y2="576.2656"/><polygon fill="#181818" points="339.5,566.2656,343.5,576.2656,347.5,566.2656,343.5,570.2656" style="stroke:#181818;stroke-width:1.0;"/><line style="stroke:#181818;stroke-width:1.0;" x1="138" x2="113.5" y1="499.1719" y2="499.1719"/><line style="stroke:#181818;stroke-width:1.0;" x1="113.5" x2="113.5" y1="499.1719" y2="521.1719"/><polygon fill="#181818" points="109.5,511.1719,113.5,521.1719,117.5,511.1719,113.5,515.1719" style="stroke:#181818;stroke-width:1.0;"/><line style="stroke:#181818;stroke-width:1.0;" x1="319" x2="343.5" y1="499.1719" y2="499.1719"/><line style="stroke:#181818;stroke-width:1.0;" x1="343.5" x2="343.5" y1="499.1719" y2="521.1719"/><polygon fill="#181818" points="339.5,511.1719,343.5,521.1719,347.5,511.1719,343.5,515.1719" style="stroke:#181818;stroke-width:1.0;"/><line style="stroke:#181818;stroke-width:1.0;" x1="113.5" x2="113.5" y1="666.4531" y2="684.4531"/><line style="stroke:#181818;stroke-width:1.0;" x1="113.5" x2="216.5" y1="684.4531" y2="684.4531"/><polygon fill="#181818" points="206.5,680.4531,216.5,684.4531,206.5,688.4531,210.5,684.4531" style="stroke:#181818;stroke-width:1.0;"/><line style="stroke:#181818;stroke-width:1.0;" x1="343.5" x2="343.5" y1="611.3594" y2="684.4531"/><line style="stroke:#181818;stroke-width:1.0;" x1="343.5" x2="240.5" y1="684.4531" y2="684.4531"/><polygon fill="#181818" points="250.5,680.4531,240.5,684.4531,250.5,688.4531,246.5,684.4531" style="stroke:#181818;stroke-width:1.0;"/><line style="stroke:#181818;stroke-width:1.0;" x1="309.5" x2="228.5" y1="465.1719" y2="465.1719"/><line style="stroke:#181818;stroke-width:1.0;" x1="228.5" x2="228.5" y1="465.1719" y2="487.1719"/><polygon fill="#181818" points="224.5,477.1719,228.5,487.1719,232.5,477.1719,228.5,481.1719" style="stroke:#181818;stroke-width:1.0;"/><line style="stroke:#181818;stroke-width:1.0;" x1="476.5" x2="557.5" y1="465.1719" y2="465.1719"/><line style="stroke:#181818;stroke-width:1.0;" x1="557.5" x2="557.5" y1="465.1719" y2="487.1719"/><polygon fill="#181818" points="553.5,477.1719,557.5,487.1719,561.5,477.1719,557.5,481.1719" style="stroke:#181818;stroke-width:1.0;"/><line style="stroke:#181818;stroke-width:1.0;" x1="228.5" x2="228.5" y1="696.4531" y2="714.4531"/><line style="stroke:#181818;stroke-width:1.0;" x1="228.5" x2="381" y1="714.4531" y2="714.4531"/><polygon fill="#181818" points="371,710.4531,381,714.4531,371,718.4531,375,714.4531" style="stroke:#181818;stroke-width:1.0;"/><line style="stroke:#181818;stroke-width:1.0;" x1="557.5" x2="557.5" y1="522.2656" y2="714.4531"/><line style="stroke:#181818;stroke-width:1.0;" x1="557.5" x2="405" y1="714.4531" y2="714.4531"/><polygon fill="#181818" points="415,710.4531,405,714.4531,415,718.4531,411,714.4531" style="stroke:#181818;stroke-width:1.0;"/><line style="stroke:#181818;stroke-width:1.0;" x1="393" x2="393" y1="433.1719" y2="453.1719"/><polygon fill="#181818" points="389,443.1719,393,453.1719,397,443.1719,393,447.1719" style="stroke:#181818;stroke-width:1.0;"/><line style="stroke:#181818;stroke-width:1.0;" x1="296.5" x2="296.5" y1="864.4648" y2="899.4648"/><polygon fill="#181818" points="292.5,889.4648,296.5,899.4648,300.5,889.4648,296.5,893.4648" style="stroke:#181818;stroke-width:1.0;"/><line style="stroke:#181818;stroke-width:1.0;" x1="489.5" x2="489.5" y1="864.4648" y2="899.4648"/><polygon fill="#181818" points="485.5,889.4648,489.5,899.4648,493.5,889.4648,489.5,893.4648" style="stroke:#181818;stroke-width:1.0;"/><line style="stroke:#181818;stroke-width:1.0;" x1="318" x2="296.5" y1="807.3711" y2="807.3711"/><line style="stroke:#181818;stroke-width:1.0;" x1="296.5" x2="296.5" y1="807.3711" y2="829.3711"/><polygon fill="#181818" points="292.5,819.3711,296.5,829.3711,300.5,819.3711,296.5,823.3711" style="stroke:#181818;stroke-width:1.0;"/><line style="stroke:#181818;stroke-width:1.0;" x1="468" x2="489.5" y1="807.3711" y2="807.3711"/><line style="stroke:#181818;stroke-width:1.0;" x1="489.5" x2="489.5" y1="807.3711" y2="829.3711"/><polygon fill="#181818" points="485.5,819.3711,489.5,829.3711,493.5,819.3711,489.5,823.3711" style="stroke:#181818;stroke-width:1.0;"/><line style="stroke:#181818;stroke-width:1.0;" x1="296.5" x2="296.5" y1="934.5586" y2="952.5586"/><line style="stroke:#181818;stroke-width:1.0;" x1="296.5" x2="381" y1="952.5586" y2="952.5586"/><polygon fill="#181818" points="371,948.5586,381,952.5586,371,956.5586,375,952.5586" style="stroke:#181818;stroke-width:1.0;"/><line style="stroke:#181818;stroke-width:1.0;" x1="489.5" x2="489.5" y1="934.5586" y2="952.5586"/><line style="stroke:#181818;stroke-width:1.0;" x1="489.5" x2="405" y1="952.5586" y2="952.5586"/><polygon fill="#181818" points="415,948.5586,405,952.5586,415,956.5586,411,952.5586" style="stroke:#181818;stroke-width:1.0;"/><line style="stroke:#181818;stroke-width:1.0;" x1="393" x2="393" y1="770.4531" y2="795.3711"/><polygon fill="#181818" points="389,785.3711,393,795.3711,397,785.3711,393,789.3711" style="stroke:#181818;stroke-width:1.0;"/><line style="stroke:#181818;stroke-width:1.0;" x1="451" x2="599.5" y1="758.4531" y2="758.4531"/><polygon fill="#181818" points="595.5,869.9648,599.5,879.9648,603.5,869.9648,599.5,873.9648" style="stroke:#181818;stroke-width:1.0;"/><line style="stroke:#181818;stroke-width:1.0;" x1="599.5" x2="599.5" y1="758.4531" y2="996.5586"/><line style="stroke:#181818;stroke-width:1.0;" x1="599.5" x2="405" y1="996.5586" y2="996.5586"/><polygon fill="#181818" points="415,992.5586,405,996.5586,415,1000.5586,411,996.5586" style="stroke:#181818;stroke-width:1.0;"/><line style="stroke:#181818;stroke-width:1.0;" x1="393" x2="393" y1="964.5586" y2="984.5586"/><polygon fill="#181818" points="389,974.5586,393,984.5586,397,974.5586,393,978.5586" style="stroke:#181818;stroke-width:1.0;"/><line style="stroke:#181818;stroke-width:1.0;" x1="393" x2="393" y1="726.4531" y2="746.4531"/><polygon fill="#181818" points="389,736.4531,393,746.4531,397,736.4531,393,740.4531" style="stroke:#181818;stroke-width:1.0;"/><line style="stroke:#181818;stroke-width:1.0;" x1="393" x2="393" y1="1008.5586" y2="1028.5586"/><polygon fill="#181818" points="389,1018.5586,393,1028.5586,397,1018.5586,393,1022.5586" style="stroke:#181818;stroke-width:1.0;"/><line style="stroke:#181818;stroke-width:1.0;" x1="510.25" x2="393" y1="210.7969" y2="210.7969"/><line style="stroke:#181818;stroke-width:1.0;" x1="393" x2="393" y1="210.7969" y2="232.7969"/><polygon fill="#181818" points="389,222.7969,393,232.7969,397,222.7969,393,226.7969" style="stroke:#181818;stroke-width:1.0;"/><line style="stroke:#181818;stroke-width:1.0;" x1="608.25" x2="707.75" y1="210.7969" y2="210.7969"/><line style="stroke:#181818;stroke-width:1.0;" x1="707.75" x2="707.75" y1="210.7969" y2="232.7969"/><polygon fill="#181818" points="703.75,222.7969,707.75,232.7969,711.75,222.7969,707.75,226.7969" style="stroke:#181818;stroke-width:1.0;"/><line style="stroke:#181818;stroke-width:1.0;" x1="393" x2="393" y1="1063.6523" y2="1081.6523"/><line style="stroke:#181818;stroke-width:1.0;" x1="393" x2="547.25" y1="1081.6523" y2="1081.6523"/><polygon fill="#181818" points="537.25,1077.6523,547.25,1081.6523,537.25,1085.6523,541.25,1081.6523" style="stroke:#181818;stroke-width:1.0;"/><line style="stroke:#181818;stroke-width:1.0;" x1="707.75" x2="707.75" y1="267.8906" y2="1081.6523"/><line style="stroke:#181818;stroke-width:1.0;" x1="707.75" x2="571.25" y1="1081.6523" y2="1081.6523"/><polygon fill="#181818" points="581.25,1077.6523,571.25,1081.6523,581.25,1085.6523,577.25,1081.6523" style="stroke:#181818;stroke-width:1.0;"/><line style="stroke:#181818;stroke-width:1.0;" x1="559.25" x2="559.25" y1="178.7969" y2="198.7969"/><polygon fill="#181818" points="555.25,188.7969,559.25,198.7969,563.25,188.7969,559.25,192.7969" style="stroke:#181818;stroke-width:1.0;"/><line style="stroke:#181818;stroke-width:1.0;" x1="559.25" x2="559.25" y1="1093.6523" y2="1113.6523"/><polygon fill="#181818" points="555.25,1103.6523,559.25,1113.6523,563.25,1103.6523,559.25,1107.6523" style="stroke:#181818;stroke-width:1.0;"/><!--SRC=[bPDDRjj038NtEWMNpYfxUL4u_K4N0Hh4QFRiYBA9Z4XbVXGWgnwY5p2wAz1Jw2OzIJcIuzIn4Q1RwJtouoCdSV84jvfO4Bxq5D2n2dhuy_q7h199mnr9KlZ0uowmLl6UfSU07SGjDlh8ie4MVQIgYWb3gkfhtR10ev1ZdZp0aYY8Bglw3Zqt621IZEDF1UtHuRBY5XRh_QTXt1NDkmj8Mn9OHEukAe1wJPucjW1VnGGDcVl0kooIzoenUwC0zBdqiszt5BXbLtecJ3c2mmPZ2ZRYQO4NiGqT9zQ6BeVnjxZiDHPDGVqyxg2tQCPVuXZ1I7hSu9JJQ-pPS4EXPG-zcZJGXal_y9R9M6vFTQzv9zqgPGDzEcPUdbPPvOQJ1iRv7zdAO26M-A7ZHt7OiModbW5jn8aQSx4zsRBFLBKBiLXvG7Z8ABPqx3sxSJVGdh1SK5kTzgjlWiP8cyoshPSxAwRPiizwvUmk5A9QMKu6SJvX8meO2tB7YJh0oNOss6l-HWLzbhoLrEM_aZE1NNbzo7Ge1KuxwEmf3VzHzJcUvvdhJ_OIvtqUnNBSlbxlymWWEYZuykPCD5M9IVk_]--></g></svg>