<?xml version="1.0" encoding="us-ascii" standalone="no"?><svg xmlns="http://www.w3.org/2000/svg" xmlns:xlink="http://www.w3.org/1999/xlink" contentStyleType="text/css" height="832px" preserveAspectRatio="none" style="width:1230px;height:832px;background:#FFFFFF;" version="1.1" viewBox="0 0 1230 832" width="1230px" zoomAndPan="magnify"><defs/><g><text fill="#000000" font-family="sans-serif" font-size="14" font-weight="bold" lengthAdjust="spacing" textLength="172" x="522.4" y="24.5332">Estados de Mensalidade</text><ellipse cx="402.8" cy="206.6094" fill="#222222" rx="10" ry="10" style="stroke:#222222;stroke-width:1.0;"/><g id="em_aberto"><rect fill="#F1F1F1" height="50" rx="12.5" ry="12.5" style="stroke:#181818;stroke-width:0.5;" width="88" x="307.8" y="309.6094"/><line style="stroke:#181818;stroke-width:0.5;" x1="307.8" x2="395.8" y1="337.2188" y2="337.2188"/><text fill="#000000" font-family="sans-serif" font-size="14" lengthAdjust="spacing" textLength="68" x="317.8" y="329.1426">em_aberto</text></g><g id="parcial"><rect fill="#F1F1F1" height="50" rx="12.5" ry="12.5" style="stroke:#181818;stroke-width:0.5;" width="62" x="826.8" y="437.6094"/><line style="stroke:#181818;stroke-width:0.5;" x1="826.8" x2="888.8" y1="465.2188" y2="465.2188"/><text fill="#000000" font-family="sans-serif" font-size="14" lengthAdjust="spacing" textLength="42" x="836.8" y="457.1426">parcial</text></g><g id="pago"><rect fill="#F1F1F1" height="50" rx="12.5" ry="12.5" style="stroke:#181818;stroke-width:0.5;" width="52" x="535.8" y="693.6094"/><line style="stroke:#181818;stroke-width:0.5;" x1="535.8" x2="587.8" y1="721.2188" y2="721.2188"/><text fill="#000000" font-family="sans-serif" font-size="14" lengthAdjust="spacing" textLength="32" x="545.8" y="713.1426">pago</text></g><g id="vencido"><rect fill="#F1F1F1" height="50" rx="12.5" ry="12.5" style="stroke:#181818;stroke-width:0.5;" width="69" x="710.3" y="565.6094"/><line style="stroke:#181818;stroke-width:0.5;" x1="710.3" x2="779.3" y1="593.2188" y2="593.2188"/><text fill="#000000" font-family="sans-serif" font-size="14" lengthAdjust="spacing" textLength="49" x="720.3" y="585.1426">vencido</text></g><g id="cancelado"><rect fill="#F1F1F1" height="50" rx="12.5" ry="12.5" style="stroke:#181818;stroke-width:0.5;" width="85" x="57.3" y="565.6094"/><line style="stroke:#181818;stroke-width:0.5;" x1="57.3" x2="142.3" y1="593.2188" y2="593.2188"/><text fill="#000000" font-family="sans-serif" font-size="14" lengthAdjust="spacing" textLength="65" x="67.3" y="585.1426">cancelado</text></g><g id="bloqueada_por_fechamento"><rect fill="#F1F1F1" height="50" rx="12.5" ry="12.5" style="stroke:#181818;stroke-width:0.5;" width="198" x="691.8" y="49.1094"/><line style="stroke:#181818;stroke-width:0.5;" x1="691.8" x2="889.8" y1="76.7188" y2="76.7188"/><text fill="#000000" font-family="sans-serif" font-size="14" lengthAdjust="spacing" textLength="178" x="701.8" y="68.6426">bloqueada_por_fechamento</text></g><g id="em_reversao_controlada"><rect fill="#F1F1F1" height="50" rx="12.5" ry="12.5" style="stroke:#181818;stroke-width:0.5;" width="178" x="596.8" y="181.6094"/><line style="stroke:#181818;stroke-width:0.5;" x1="596.8" x2="774.8" y1="209.2188" y2="209.2188"/><text fill="#000000" font-family="sans-serif" font-size="14" lengthAdjust="spacing" textLength="158" x="606.8" y="201.1426">em_reversao_controlada</text></g><ellipse cx="147.8" cy="815.6094" fill="none" rx="11" ry="11" style="stroke:#222222;stroke-width:1.0;"/><ellipse cx="147.8" cy="815.6094" fill="#222222" rx="6" ry="6" style="stroke:#222222;stroke-width:1.0;"/><g id="elem_GMN31"><path d="M925.3,44.6094 L925.3,70.1094 L889.81,74.1094 L925.3,78.1094 L925.3,103.6641 A0,0 0 0 0 925.3,103.6641 L1210.3,103.6641 A0,0 0 0 0 1210.3,103.6641 L1210.3,54.6094 L1200.3,44.6094 L925.3,44.6094 A0,0 0 0 0 925.3,44.6094 " fill="#FEFFDD" style="stroke:#181818;stroke-width:0.5;"/><path d="M1200.3,44.6094 L1200.3,54.6094 L1210.3,54.6094 L1200.3,44.6094 " fill="#FEFFDD" style="stroke:#181818;stroke-width:0.5;"/><text fill="#000000" font-family="sans-serif" font-size="13" lengthAdjust="spacing" textLength="219" x="931.3" y="63.1045">Cobertura de bloqueio por fechamento</text><text fill="#000000" font-family="sans-serif" font-size="13" lengthAdjust="spacing" textLength="264" x="931.3" y="79.4561">est&#225; documentada como parcial at&#233; valida&#231;&#227;o</text><text fill="#000000" font-family="sans-serif" font-size="13" lengthAdjust="spacing" textLength="193" x="931.3" y="95.8076">de todas as opera&#231;&#245;es sens&#237;veis.</text></g><!--link *start* to em_aberto--><g id="link_*start*_em_aberto"><path d="M394.61,212.6694 C381.95,221.0394 358.14,239.0694 348.8,261.6094 C342.58,276.6394 342.4756,289.049 344.8456,303.449 " fill="none" id="*start*-to-em_aberto" style="stroke:#181818;stroke-width:1.0;"/><polygon fill="#181818" points="345.82,309.3694,348.3053,299.8393,345.008,304.4357,340.4115,301.1384,345.82,309.3694" style="stroke:#181818;stroke-width:1.0;"/><text fill="#000000" font-family="sans-serif" font-size="13" lengthAdjust="spacing" textLength="102" x="349.8" y="276.1045">criar mensalidade</text></g><!--link em_aberto to parcial--><g id="link_em_aberto_parcial"><path d="M395.85,340.3294 C458.09,347.6194 574.96,363.5394 671.8,389.6094 C730.47,405.3994 743.28,415.3194 799.8,437.6094 C808.52,441.0494 812.3861,442.5849 821.0361,446.1649 " fill="none" id="em_aberto-to-parcial" style="stroke:#181818;stroke-width:1.0;"/><polygon fill="#181818" points="826.58,448.4594,819.7937,441.3217,821.96,446.5473,816.7344,448.7136,826.58,448.4594" style="stroke:#181818;stroke-width:1.0;"/><text fill="#000000" font-family="sans-serif" font-size="13" lengthAdjust="spacing" textLength="106" x="727.8" y="404.1045">pagamento parcial</text></g><!--link em_aberto to pago--><g id="link_em_aberto_pago"><path d="M345.64,359.7494 C336.15,392.5794 315.02,451.3594 277.8,487.6094 C251.82,512.9194 192.98,504.6094 211.8,535.6094 C285.02,656.2094 461.1416,699.47 529.4416,712.2 " fill="none" id="em_aberto-to-pago" style="stroke:#181818;stroke-width:1.0;"/><polygon fill="#181818" points="535.34,713.2994,527.2253,707.718,530.4246,712.3832,525.7595,715.5826,535.34,713.2994" style="stroke:#181818;stroke-width:1.0;"/><text fill="#000000" font-family="sans-serif" font-size="13" lengthAdjust="spacing" textLength="110" x="212.8" y="532.1045">pagamento integral</text></g><!--link em_aberto to vencido--><g id="link_em_aberto_vencido"><path d="M395.83,349.5594 C444.53,366.1694 524.14,396.8594 584.8,437.6094 C636.72,472.4894 640.28,492.7094 685.8,535.6094 C696.31,545.5094 703.5863,552.2369 713.7863,561.5369 " fill="none" id="em_aberto-to-vencido" style="stroke:#181818;stroke-width:1.0;"/><polygon fill="#181818" points="718.22,565.5794,714.2644,556.5598,714.5252,562.2106,708.8744,562.4714,718.22,565.5794" style="stroke:#181818;stroke-width:1.0;"/><text fill="#000000" font-family="sans-serif" font-size="13" lengthAdjust="spacing" textLength="143" x="642.8" y="468.1045">vencimento ultrapassado</text></g><!--link em_aberto to cancelado--><g id="link_em_aberto_cancelado"><path d="M307.37,343.0094 C255.58,354.0994 171.4,380.1994 126.8,437.6094 C97.78,474.9694 95.6338,527.0672 97.2938,559.5572 " fill="none" id="em_aberto-to-cancelado" style="stroke:#181818;stroke-width:1.0;"/><polygon fill="#181818" points="97.6,565.5494,101.1356,556.357,97.3449,560.5559,93.146,556.7652,97.6,565.5494" style="stroke:#181818;stroke-width:1.0;"/><text fill="#000000" font-family="sans-serif" font-size="13" lengthAdjust="spacing" textLength="145" x="127.8" y="468.1045">cancelamento autorizado</text></g><!--link em_aberto to bloqueada_por_fechamento--><g id="link_em_aberto_bloqueada_por_fechamento"><path d="M319.06,309.5894 C280.51,278.4294 225.79,223.1294 259.8,181.6094 C313.36,116.2494 547.5148,90.5909 685.8148,80.8509 " fill="none" id="em_aberto-to-bloqueada_por_fechamento" style="stroke:#181818;stroke-width:1.0;"/><polygon fill="#181818" points="691.8,80.4294,682.5412,77.0715,686.8124,80.7806,683.1032,85.0518,691.8,80.4294" style="stroke:#181818;stroke-width:1.0;"/><text fill="#000000" font-family="sans-serif" font-size="13" lengthAdjust="spacing" textLength="113" x="260.8" y="212.1045">fechamento mensal</text></g><!--link parcial to pago--><g id="link_parcial_pago"><path d="M826.79,477.3494 C818.15,480.9294 808.69,484.6194 799.8,487.6094 C718.72,514.9194 675.56,497.4794 623.8,565.6094 C593.63,605.3294 577.2575,655.9644 568.9575,687.7144 " fill="none" id="parcial-to-pago" style="stroke:#181818;stroke-width:1.0;"/><polygon fill="#181818" points="567.44,693.5194,573.5862,685.8237,568.7046,688.6819,565.8463,683.8003,567.44,693.5194" style="stroke:#181818;stroke-width:1.0;"/><text fill="#000000" font-family="sans-serif" font-size="13" lengthAdjust="spacing" textLength="67" x="624.8" y="596.1045">quitar saldo</text></g><!--link parcial to vencido--><g id="link_parcial_vencido"><path d="M845.89,487.7594 C837.96,502.4794 826.66,521.1694 813.8,535.6094 C803.79,546.8594 795.9906,553.8669 784.3206,562.6669 " fill="none" id="parcial-to-vencido" style="stroke:#181818;stroke-width:1.0;"/><polygon fill="#181818" points="779.53,566.2794,789.1242,564.0544,783.5222,563.269,784.3076,557.6669,779.53,566.2794" style="stroke:#181818;stroke-width:1.0;"/><text fill="#000000" font-family="sans-serif" font-size="13" lengthAdjust="spacing" textLength="189" x="827.8" y="532.1045">saldo pendente ap&#243;s vencimento</text></g><!--link vencido to parcial--><g id="link_vencido_parcial"><path d="M713.06,565.4194 C698.29,551.1894 686.27,533.0294 697.8,517.6094 C726.11,479.7794 755.24,503.3294 799.8,487.6094 C808.64,484.4894 812.547,483.0561 821.187,479.4761 " fill="none" id="vencido-to-parcial" style="stroke:#181818;stroke-width:1.0;"/><polygon fill="#181818" points="826.73,477.1794,816.8843,476.9292,822.1108,479.0933,819.9467,484.3198,826.73,477.1794" style="stroke:#181818;stroke-width:1.0;"/><text fill="#000000" font-family="sans-serif" font-size="13" lengthAdjust="spacing" textLength="106" x="698.8" y="532.1045">pagamento parcial</text></g><!--link parcial to cancelado--><g id="link_parcial_cancelado"><path d="M826.79,478.5194 C818.23,482.0594 808.81,485.4394 799.8,487.6094 C640.72,526.0294 594.69,493.5994 432.8,517.6094 C327.34,533.2494 211.1157,561.0837 148.1357,577.0637 " fill="none" id="parcial-to-cancelado" style="stroke:#181818;stroke-width:1.0;"/><polygon fill="#181818" points="142.32,578.5394,152.0273,580.2031,147.1664,577.3097,150.0598,572.4488,142.32,578.5394" style="stroke:#181818;stroke-width:1.0;"/><text fill="#000000" font-family="sans-serif" font-size="13" lengthAdjust="spacing" textLength="145" x="433.8" y="532.1045">cancelamento autorizado</text></g><!--link parcial to bloqueada_por_fechamento--><g id="link_parcial_bloqueada_por_fechamento"><path d="M867.02,437.1894 C886.92,380.1794 927.99,235.4594 874.8,133.6094 C867.4,119.4294 859.8001,111.3358 846.6001,102.4658 " fill="none" id="parcial-to-bloqueada_por_fechamento" style="stroke:#181818;stroke-width:1.0;"/><polygon fill="#181818" points="841.62,99.1194,846.8591,107.4591,845.7701,101.9081,851.3211,100.819,841.62,99.1194" style="stroke:#181818;stroke-width:1.0;"/><text fill="#000000" font-family="sans-serif" font-size="13" lengthAdjust="spacing" textLength="113" x="902.8" y="276.1045">fechamento mensal</text></g><!--link vencido to pago--><g id="link_vencido_pago"><path d="M709.95,615.6094 C674.38,640.0994 624.9219,674.1468 592.8819,696.2068 " fill="none" id="vencido-to-pago" style="stroke:#181818;stroke-width:1.0;"/><polygon fill="#181818" points="587.94,699.6094,597.6212,697.8001,592.0583,696.7739,593.0845,691.2109,587.94,699.6094" style="stroke:#181818;stroke-width:1.0;"/><text fill="#000000" font-family="sans-serif" font-size="13" lengthAdjust="spacing" textLength="110" x="665.8" y="660.1045">pagamento integral</text></g><!--link vencido to em_reversao_controlada--><g id="link_vencido_em_reversao_controlada"><path d="M779.55,588.2494 C847.68,584.7694 994.92,572.9994 1025.8,535.6094 C1030.9,529.4394 1029.03,524.9294 1025.8,517.6094 C992.94,443.1594 801.8065,294.4541 723.2065,235.3841 " fill="none" id="vencido-to-em_reversao_controlada" style="stroke:#181818;stroke-width:1.0;"/><polygon fill="#181818" points="718.41,231.7794,723.2016,240.3841,722.4071,234.7833,728.0078,233.9887,718.41,231.7794" style="stroke:#181818;stroke-width:1.0;"/><text fill="#000000" font-family="sans-serif" font-size="13" lengthAdjust="spacing" textLength="112" x="931.8" y="404.1045">revers&#227;o controlada</text></g><!--link pago to em_reversao_controlada--><g id="link_pago_em_reversao_controlada"><path d="M555.27,693.4194 C544.67,655.3094 522.2,579.2894 495.8,517.6094 C489.86,503.7194 483.47,502.2694 479.8,487.6094 C474.41,466.0494 470.5,457.7894 479.8,437.6094 C525.07,339.4094 606.1,370.4194 664.8,279.6094 C674.13,265.1794 678.2587,252.3639 681.1887,237.6439 " fill="none" id="pago-to-em_reversao_controlada" style="stroke:#181818;stroke-width:1.0;"/><polygon fill="#181818" points="682.36,231.7594,676.68,239.8053,681.3839,236.6632,684.5261,241.3671,682.36,231.7594" style="stroke:#181818;stroke-width:1.0;"/><text fill="#000000" font-family="sans-serif" font-size="13" lengthAdjust="spacing" textLength="95" x="480.8" y="468.1045">estorno/revers&#227;o</text></g><!--link pago to bloqueada_por_fechamento--><g id="link_pago_bloqueada_por_fechamento"><path d="M587.82,717.2594 C696.52,715.1294 1108.8,699.8994 1108.8,591.6094 C1108.8,205.6094 1108.8,205.6094 1108.8,205.6094 C1108.8,179.7994 969.296,131.1034 875.126,101.0534 " fill="none" id="pago-to-bloqueada_por_fechamento" style="stroke:#181818;stroke-width:1.0;"/><polygon fill="#181818" points="869.41,99.2294,876.768,105.7761,874.1734,100.7494,879.2,98.1547,869.41,99.2294" style="stroke:#181818;stroke-width:1.0;"/><text fill="#000000" font-family="sans-serif" font-size="13" lengthAdjust="spacing" textLength="113" x="1109.8" y="404.1045">fechamento mensal</text></g><!--link bloqueada_por_fechamento to em_reversao_controlada--><g id="link_bloqueada_por_fechamento_em_reversao_controlada"><path d="M720.23,99.2594 C705.35,107.7394 691.53,118.9494 682.8,133.6094 C674.35,147.7994 674.2088,160.6208 677.2288,175.4008 " fill="none" id="bloqueada_por_fechamento-to-em_reversao_controlada" style="stroke:#181818;stroke-width:1.0;"/><polygon fill="#181818" points="678.43,181.2794,680.5473,171.6608,677.429,176.3806,672.7092,173.2623,678.43,181.2794" style="stroke:#181818;stroke-width:1.0;"/><text fill="#000000" font-family="sans-serif" font-size="13" lengthAdjust="spacing" textLength="186" x="683.8" y="148.1045">reabertura + revers&#227;o autorizada</text></g><!--link em_reversao_controlada to em_aberto--><g id="link_em_reversao_controlada_em_aberto"><path d="M596.68,228.5694 C563.58,237.3894 526.02,248.6294 492.8,261.6094 C490.26,262.5994 441.8182,287.4002 401.4382,308.1202 " fill="none" id="em_reversao_controlada-to-em_aberto" style="stroke:#181818;stroke-width:1.0;"/><polygon fill="#181818" points="396.1,310.8594,405.9335,310.3094,400.5485,308.5767,402.2812,303.1918,396.1,310.8594" style="stroke:#181818;stroke-width:1.0;"/><text fill="#000000" font-family="sans-serif" font-size="13" lengthAdjust="spacing" textLength="166" x="493.8" y="276.1045">lan&#231;amento inverso aprovado</text></g><!--link em_reversao_controlada to cancelado--><g id="link_em_reversao_controlada_cancelado"><path d="M596.59,215.0394 C525.25,222.4894 423.22,236.5694 336.8,261.6094 C199.92,301.2794 120.91,270.4094 42.8,389.6094 C6,445.7794 49.2701,521.0287 77.6001,560.6487 " fill="none" id="em_reversao_controlada-to-cancelado" style="stroke:#181818;stroke-width:1.0;"/><polygon fill="#181818" points="81.09,565.5294,79.109,555.8818,78.1818,561.4622,72.6014,560.535,81.09,565.5294" style="stroke:#181818;stroke-width:1.0;"/><text fill="#000000" font-family="sans-serif" font-size="13" lengthAdjust="spacing" textLength="106" x="43.8" y="404.1045">revers&#227;o finalizada</text></g><!--link cancelado to *end*--><g id="link_cancelado_*end*"><path d="M105.03,615.8994 C115.48,664.4394 137.2875,765.7437 144.4075,798.8237 " fill="none" id="cancelado-to-*end*" style="stroke:#181818;stroke-width:1.0;"/><polygon fill="#181818" points="145.67,804.6894,147.6867,795.0492,144.6179,799.8013,139.8658,796.7325,145.67,804.6894" style="stroke:#181818;stroke-width:1.0;"/></g><!--link pago to *end*--><g id="link_pago_*end*"><path d="M535.59,725.6194 C454.9,744.1394 218.248,798.4473 164.348,810.8173 " fill="none" id="pago-to-*end*" style="stroke:#181818;stroke-width:1.0;"/><polygon fill="#181818" points="158.5,812.1594,168.1667,814.0449,163.3733,811.041,166.3772,806.2476,158.5,812.1594" style="stroke:#181818;stroke-width:1.0;"/></g><!--SRC=[bLIzJiCm4Dxz53U32di75iJ84o1KNUrhQf7wKji94c-362e69iGJvCKu9stYjeeAKeRuxllEzzsFeuqbmKE8Q3Y08NWa5x2q1Wsfy69TXHut4DRYVxMkW1MMWPHwkdg6sUmEQBF09Vd8C0VjBNhOP07Kw4vWYQKjbWAji401YdrlEqCMV0IpBbBXpt0DEMrDWdP_FROkeySAGv2SJ_0QdQOIEyR-l-TW7TdRjtF6ikHjJMXmKR5Vh4YlzumvP8TUj587XPc6RMsZb4NS4ZltZxbtFgZ86Gb6W5Nx7J91Hwo_ACZn_yl_aDEbRXtZfdgLewIgdXho0NcXsKNF8WA5rrlR3uRHd0fPNE1H4BsERmV-oFcVvadqXRIx8QazmdMcOUW2gWdgwTQKwDhTKBc4boYLvsO_YrCnya4OxrzP9ylNtQz6HCBBneuLIWVbM8RDss8TWLUJHLFtV10gpqEFiZ89xBDYAkb6-mw6TPtEAKVDcs5U06Fx2KttBBIxr2i95TbW0Fcu8f_CFnGWI5FQhuPik56o3v1o_0K0]--></g></svg>