<?xml version="1.0" encoding="us-ascii" standalone="no"?><svg xmlns="http://www.w3.org/2000/svg" xmlns:xlink="http://www.w3.org/1999/xlink" contentStyleType="text/css" height="1091px" preserveAspectRatio="none" style="width:789px;height:1091px;background:#FFFFFF;" version="1.1" viewBox="0 0 789 1091" width="789px" zoomAndPan="magnify"><defs/><g><text fill="#000000" font-family="sans-serif" font-size="14" font-weight="bold" lengthAdjust="spacing" textLength="253" x="261" y="24.5332">Estados de Sess&#227;o e Refresh Token</text><g id="sessao_ativa"><rect fill="#F1F1F1" height="50" rx="12.5" ry="12.5" style="stroke:#181818;stroke-width:0.5;" width="101" x="359.5" y="142.6094"/><line style="stroke:#181818;stroke-width:0.5;" x1="359.5" x2="460.5" y1="170.2188" y2="170.2188"/><text fill="#000000" font-family="sans-serif" font-size="14" lengthAdjust="spacing" textLength="81" x="369.5" y="162.1426">Sess&#227;o ativa</text></g><g id="access_expirado"><rect fill="#F1F1F1" height="50" rx="12.5" ry="12.5" style="stroke:#181818;stroke-width:0.5;" width="123" x="643.5" y="270.6094"/><line style="stroke:#181818;stroke-width:0.5;" x1="643.5" x2="766.5" y1="298.2188" y2="298.2188"/><text fill="#000000" font-family="sans-serif" font-size="14" lengthAdjust="spacing" textLength="103" x="653.5" y="290.1426">Access expirado</text></g><g id="refresh_ativo"><rect fill="#F1F1F1" height="50" rx="12.5" ry="12.5" style="stroke:#181818;stroke-width:0.5;" width="104" x="501" y="430.6094"/><line style="stroke:#181818;stroke-width:0.5;" x1="501" x2="605" y1="458.2188" y2="458.2188"/><text fill="#000000" font-family="sans-serif" font-size="14" lengthAdjust="spacing" textLength="84" x="511" y="450.1426">Refresh ativo</text></g><g id="refresh_rotacionado"><rect fill="#F1F1F1" height="50" rx="12.5" ry="12.5" style="stroke:#181818;stroke-width:0.5;" width="149" x="478.5" y="558.6094"/><line style="stroke:#181818;stroke-width:0.5;" x1="478.5" x2="627.5" y1="586.2188" y2="586.2188"/><text fill="#000000" font-family="sans-serif" font-size="14" lengthAdjust="spacing" textLength="129" x="488.5" y="578.1426">Refresh rotacionado</text></g><g id="refresh_reutilizado"><rect fill="#F1F1F1" height="50" rx="12.5" ry="12.5" style="stroke:#181818;stroke-width:0.5;" width="138" x="484" y="686.6094"/><line style="stroke:#181818;stroke-width:0.5;" x1="484" x2="622" y1="714.2188" y2="714.2188"/><text fill="#000000" font-family="sans-serif" font-size="14" lengthAdjust="spacing" textLength="118" x="494" y="706.1426">Refresh reutilizado</text></g><g id="familia_revogada"><rect fill="#F1F1F1" height="50" rx="12.5" ry="12.5" style="stroke:#181818;stroke-width:0.5;" width="129" x="178.5" y="814.6094"/><line style="stroke:#181818;stroke-width:0.5;" x1="178.5" x2="307.5" y1="842.2188" y2="842.2188"/><text fill="#000000" font-family="sans-serif" font-size="14" lengthAdjust="spacing" textLength="109" x="188.5" y="834.1426">Fam&#237;lia revogada</text></g><g id="logout"><rect fill="#F1F1F1" height="50" rx="12.5" ry="12.5" style="stroke:#181818;stroke-width:0.5;" width="64" x="7" y="686.6094"/><line style="stroke:#181818;stroke-width:0.5;" x1="7" x2="71" y1="714.2188" y2="714.2188"/><text fill="#000000" font-family="sans-serif" font-size="14" lengthAdjust="spacing" textLength="44" x="17" y="706.1426">Logout</text></g><g id="logout_all"><rect fill="#F1F1F1" height="50" rx="12.5" ry="12.5" style="stroke:#181818;stroke-width:0.5;" width="83" x="365.5" y="686.6094"/><line style="stroke:#181818;stroke-width:0.5;" x1="365.5" x2="448.5" y1="714.2188" y2="714.2188"/><text fill="#000000" font-family="sans-serif" font-size="14" lengthAdjust="spacing" textLength="63" x="375.5" y="706.1426">Logout-all</text></g><g id="usuario_bloqueado"><rect fill="#F1F1F1" height="50" rx="12.5" ry="12.5" style="stroke:#181818;stroke-width:0.5;" width="184" x="131" y="350.6094"/><line style="stroke:#181818;stroke-width:0.5;" x1="131" x2="315" y1="378.2188" y2="378.2188"/><text fill="#000000" font-family="sans-serif" font-size="14" lengthAdjust="spacing" textLength="164" x="141" y="370.1426">Usu&#225;rio bloqueado/inativo</text></g><ellipse cx="410" cy="54.6094" fill="#222222" rx="10" ry="10" style="stroke:#222222;stroke-width:1.0;"/><ellipse cx="243" cy="936.6094" fill="none" rx="11" ry="11" style="stroke:#222222;stroke-width:1.0;"/><ellipse cx="243" cy="936.6094" fill="#222222" rx="6" ry="6" style="stroke:#222222;stroke-width:1.0;"/><g id="elem_GMN29"><path d="M116.5,1008.6094 L116.5,1084.0156 A0,0 0 0 0 116.5,1084.0156 L369.5,1084.0156 A0,0 0 0 0 369.5,1084.0156 L369.5,1018.6094 L359.5,1008.6094 L247,1008.6094 L243,947.9194 L239,1008.6094 L116.5,1008.6094 A0,0 0 0 0 116.5,1008.6094 " fill="#FEFFDD" style="stroke:#181818;stroke-width:0.5;"/><path d="M359.5,1008.6094 L359.5,1018.6094 L369.5,1018.6094 L359.5,1008.6094 " fill="#FEFFDD" style="stroke:#181818;stroke-width:0.5;"/><text fill="#000000" font-family="sans-serif" font-size="13" lengthAdjust="spacing" textLength="194" x="122.5" y="1027.1045">Tokens s&#227;o opacos e server-side.</text><text fill="#000000" font-family="sans-serif" font-size="13" lengthAdjust="spacing" textLength="86" x="122.5" y="1043.4561">N&#227;o usar JWT.</text><text fill="#000000" font-family="sans-serif" font-size="13" lengthAdjust="spacing" textLength="232" x="122.5" y="1059.8076">Token cru n&#227;o deve ser salvo em banco,</text><text fill="#000000" font-family="sans-serif" font-size="13" lengthAdjust="spacing" textLength="94" x="122.5" y="1076.1592">log ou Auditoria.</text></g><!--link *start* to sessao_ativa--><g id="link_*start*_sessao_ativa"><path d="M410,64.6894 C410,81.4694 410,111.8294 410,136.2594 " fill="none" id="*start*-to-sessao_ativa" style="stroke:#181818;stroke-width:1.0;"/><polygon fill="#181818" points="410,142.2594,414,133.2594,410,137.2594,406,133.2594,410,142.2594" style="stroke:#181818;stroke-width:1.0;"/><text fill="#000000" font-family="sans-serif" font-size="13" lengthAdjust="spacing" textLength="27" x="411" y="109.1045">login</text></g><!--link sessao_ativa to access_expirado--><g id="link_sessao_ativa_access_expirado"><path d="M460.71,190.2694 C513.02,212.6094 588.8721,245.013 643.1521,268.193 " fill="none" id="sessao_ativa-to-access_expirado" style="stroke:#181818;stroke-width:1.0;"/><polygon fill="#181818" points="648.67,270.5494,641.9641,263.3362,644.0717,268.5857,638.8222,270.6934,648.67,270.5494" style="stroke:#181818;stroke-width:1.0;"/><text fill="#000000" font-family="sans-serif" font-size="13" lengthAdjust="spacing" textLength="85" x="577" y="237.1045">TTL do access</text></g><!--link sessao_ativa to logout--><g id="link_sessao_ativa_logout"><path d="M359.47,177.1794 C267.46,194.2394 82,235.8994 82,294.6094 C82,294.6094 82,294.6094 82,584.6094 C82,621.5894 67.9186,656.2206 55.3286,680.9906 " fill="none" id="sessao_ativa-to-logout" style="stroke:#181818;stroke-width:1.0;"/><polygon fill="#181818" points="52.61,686.3394,60.2538,680.1287,54.8755,681.8821,53.1221,676.5038,52.61,686.3394" style="stroke:#181818;stroke-width:1.0;"/><text fill="#000000" font-family="sans-serif" font-size="13" lengthAdjust="spacing" textLength="35" x="83" y="461.1045">logout</text></g><!--link sessao_ativa to logout_all--><g id="link_sessao_ativa_logout_all"><path d="M410,192.7694 C410,218.1294 410,259.1694 410,294.6094 C410,294.6094 410,294.6094 410,584.6094 C410,620.0594 409.0081,655.103 408.1281,680.463 " fill="none" id="sessao_ativa-to-logout_all" style="stroke:#181818;stroke-width:1.0;"/><polygon fill="#181818" points="407.92,686.4594,412.2297,677.6035,408.0934,681.4624,404.2345,677.3261,407.92,686.4594" style="stroke:#181818;stroke-width:1.0;"/><text fill="#000000" font-family="sans-serif" font-size="13" lengthAdjust="spacing" textLength="52" x="411" y="461.1045">logout-all</text></g><!--link sessao_ativa to usuario_bloqueado--><g id="link_sessao_ativa_usuario_bloqueado"><path d="M359.29,171.6394 C322.26,176.6694 273.86,189.6394 246,222.6094 C215.52,258.6994 215.5872,311.5797 218.9072,344.4597 " fill="none" id="sessao_ativa-to-usuario_bloqueado" style="stroke:#181818;stroke-width:1.0;"/><polygon fill="#181818" points="219.51,350.4294,222.5856,341.0731,219.0077,345.4547,214.6261,341.8768,219.51,350.4294" style="stroke:#181818;stroke-width:1.0;"/><text fill="#000000" font-family="sans-serif" font-size="13" lengthAdjust="spacing" textLength="136" x="247" y="237.1045">altera&#231;&#227;o administrativa</text></g><!--link access_expirado to refresh_ativo--><g id="link_access_expirado_refresh_ativo"><path d="M681.58,320.9494 C652.94,350.7294 608.9003,396.5059 580.3503,426.1759 " fill="none" id="access_expirado-to-refresh_ativo" style="stroke:#181818;stroke-width:1.0;"/><polygon fill="#181818" points="576.19,430.4994,585.3127,426.7877,579.6569,426.8965,579.5481,421.2407,576.19,430.4994" style="stroke:#181818;stroke-width:1.0;"/><text fill="#000000" font-family="sans-serif" font-size="13" lengthAdjust="spacing" textLength="129" x="652" y="381.1045">cookie HttpOnly v&#225;lido</text></g><!--link refresh_ativo to sessao_ativa--><g id="link_refresh_ativo_sessao_ativa"><path d="M540.84,430.2894 C513.85,376.3094 451.8933,252.3959 424.8733,198.3559 " fill="none" id="refresh_ativo-to-sessao_ativa" style="stroke:#181818;stroke-width:1.0;"/><polygon fill="#181818" points="422.19,192.9894,422.6372,202.8281,424.4261,197.4615,429.7926,199.2504,422.19,192.9894" style="stroke:#181818;stroke-width:1.0;"/><text fill="#000000" font-family="sans-serif" font-size="13" lengthAdjust="spacing" textLength="72" x="503" y="293.1045">/auth/refresh</text><text fill="#000000" font-family="sans-serif" font-size="13" lengthAdjust="spacing" textLength="108" x="485" y="309.4561">novo access token</text></g><!--link refresh_ativo to refresh_rotacionado--><g id="link_refresh_ativo_refresh_rotacionado"><path d="M553,480.8994 C553,503.2194 553,530.0994 553,552.3894 " fill="none" id="refresh_ativo-to-refresh_rotacionado" style="stroke:#181818;stroke-width:1.0;"/><polygon fill="#181818" points="553,558.3894,557,549.3894,553,553.3894,549,549.3894,553,558.3894" style="stroke:#181818;stroke-width:1.0;"/><text fill="#000000" font-family="sans-serif" font-size="13" lengthAdjust="spacing" textLength="106" x="554" y="525.1045">uso bem-sucedido</text></g><!--link refresh_rotacionado to refresh_reutilizado--><g id="link_refresh_rotacionado_refresh_reutilizado"><path d="M553,608.8994 C553,631.2194 553,658.0994 553,680.3894 " fill="none" id="refresh_rotacionado-to-refresh_reutilizado" style="stroke:#181818;stroke-width:1.0;"/><polygon fill="#181818" points="553,686.3894,557,677.3894,553,681.3894,549,677.3894,553,686.3894" style="stroke:#181818;stroke-width:1.0;"/><text fill="#000000" font-family="sans-serif" font-size="13" lengthAdjust="spacing" textLength="134" x="554" y="653.1045">token antigo reutilizado</text></g><!--link refresh_reutilizado to familia_revogada--><g id="link_refresh_reutilizado_familia_revogada"><path d="M511.97,736.6794 C485.23,751.7294 449.26,770.8094 416,784.6094 C380.98,799.1394 346.365,810.2867 313.425,819.7867 " fill="none" id="refresh_reutilizado-to-familia_revogada" style="stroke:#181818;stroke-width:1.0;"/><polygon fill="#181818" points="307.66,821.4494,317.416,822.7987,312.4642,820.0638,315.1991,815.112,307.66,821.4494" style="stroke:#181818;stroke-width:1.0;"/><text fill="#000000" font-family="sans-serif" font-size="13" lengthAdjust="spacing" textLength="83" x="456" y="781.1045">detectar reuso</text></g><!--link logout to familia_revogada--><g id="link_logout_familia_revogada"><path d="M30.7,736.6994 C27.07,751.9494 25.67,771.2394 36,784.6094 C53.43,807.1694 118.4501,821.175 172.4701,829.505 " fill="none" id="logout-to-familia_revogada" style="stroke:#181818;stroke-width:1.0;"/><polygon fill="#181818" points="178.4,830.4194,170.1147,825.0945,173.4584,829.6574,168.8955,833.001,178.4,830.4194" style="stroke:#181818;stroke-width:1.0;"/><text fill="#000000" font-family="sans-serif" font-size="13" lengthAdjust="spacing" textLength="150" x="37" y="781.1045">revoga refresh relacionado</text></g><!--link logout_all to familia_revogada--><g id="link_logout_all_familia_revogada"><path d="M365.39,719.4094 C335,726.3994 294.76,740.1594 269,766.6094 C256.39,779.5594 251.1187,793.2072 247.7487,808.6572 " fill="none" id="logout_all-to-familia_revogada" style="stroke:#181818;stroke-width:1.0;"/><polygon fill="#181818" points="246.47,814.5194,252.2961,806.5786,247.5356,809.6342,244.4799,804.8737,246.47,814.5194" style="stroke:#181818;stroke-width:1.0;"/><text fill="#000000" font-family="sans-serif" font-size="13" lengthAdjust="spacing" textLength="137" x="270" y="781.1045">revoga todos do usu&#225;rio</text></g><!--link usuario_bloqueado to familia_revogada--><g id="link_usuario_bloqueado_familia_revogada"><path d="M220.54,400.6994 C217.88,428.9194 214,477.1094 214,518.6094 C214,518.6094 214,518.6094 214,712.6094 C214,748.7494 223.5428,783.5873 232.0528,808.6773 " fill="none" id="usuario_bloqueado-to-familia_revogada" style="stroke:#181818;stroke-width:1.0;"/><polygon fill="#181818" points="233.98,814.3594,234.8772,804.5515,232.374,809.6243,227.3011,807.1211,233.98,814.3594" style="stroke:#181818;stroke-width:1.0;"/><text fill="#000000" font-family="sans-serif" font-size="13" lengthAdjust="spacing" textLength="141" x="215" y="589.1045">revoga&#231;&#227;o administrativa</text></g><!--link familia_revogada to *end*--><g id="link_familia_revogada_*end*"><path d="M243,865.0694 C243,884.6494 243,905.0994 243,919.4094 " fill="none" id="familia_revogada-to-*end*" style="stroke:#181818;stroke-width:1.0;"/><polygon fill="#181818" points="243,925.4094,247,916.4094,243,920.4094,239,916.4094,243,925.4094" style="stroke:#181818;stroke-width:1.0;"/></g><!--link logout to *end*--><g id="link_logout_*end*"><path d="M24.67,736.6694 C18,751.1894 13.1,769.6894 21,784.6094 C68.42,874.2194 189.7964,918.7277 226.9464,930.6377 " fill="none" id="logout-to-*end*" style="stroke:#181818;stroke-width:1.0;"/><polygon fill="#181818" points="232.66,932.4694,225.3108,925.9127,227.8987,930.9429,222.8685,933.5308,232.66,932.4694" style="stroke:#181818;stroke-width:1.0;"/></g><!--link logout_all to *end*--><g id="link_logout_all_*end*"><path d="M414.2,736.9294 C417.16,751.3594 418.55,769.6894 412,784.6094 C378.31,861.3494 289.0272,912.1781 258.1872,928.0181 " fill="none" id="logout_all-to-*end*" style="stroke:#181818;stroke-width:1.0;"/><polygon fill="#181818" points="252.85,930.7594,262.6833,930.2056,257.2976,928.475,259.0282,923.0894,252.85,930.7594" style="stroke:#181818;stroke-width:1.0;"/></g><!--SRC=[VPJDZjD03CVlynJM7X5fxnoGzW12QBL8KCG1KEKcRZlgP5pc8toypOe39vwYBuPdijCcJTXJK_ltztZiVn9qC0IlVC26FJG47yZxqsy6WlUqTUJtiE83MUKFsXxHOGj-B-ntRNUmHUD9AH47WfkYnA0xl07qu2M2lCw1GjtMjKI1VXorapgPmnnRbrX1ImD9tuEkZ-IA4ynnm5gpBLKBF8XF91I3DlhNH7A95ybhR4z_ZKPXEjvXqzzmYwrmk2x1Gj_nZcF8YCcFuqI5nWoIQ_bRW8y-dXwSPjWO_XP9EbXgUvb0z14bkpvdbVhyx2jKrSlHjE55AgsjB6SOJTZLi8LShUv07lh4LD3ts5VCDva7qYNEK9LlT0rEcXSUJI27fp_PEKshhVR1zOvHrwsc6YCBYBvcFcY2Do4Strdp4xhJWz4obZ4tCvybnh1VFc9VhEMkZ012TloqmeoZf53qiYngAnzhQeP73x6H_E8kaUV306tGEnuQKitXgSorvwH6Gu7gW2xflLZYSMN_eVl7qexyclFxCLZbq-B0-Nl1QQVPhsgwt2Shp6zyWgSQOl3XZIv_ptscaB8ixy-6G-1MvM-MV83I6Np4MdebCO3ho5LUDxHGzoaLlSpixQVLeXT0xIBOb6YeopnuDB9yQc63jkRdwM3W2BUnqO6TneKYsq0w-Xy0]--></g></svg>