<?xml version="1.0" encoding="us-ascii" standalone="no"?><svg xmlns="http://www.w3.org/2000/svg" xmlns:xlink="http://www.w3.org/1999/xlink" contentStyleType="text/css" height="784px" preserveAspectRatio="none" style="width:2243px;height:784px;background:#FFFFFF;" version="1.1" viewBox="0 0 2243 784" width="2243px" zoomAndPan="magnify"><defs/><g><text fill="#000000" font-family="sans-serif" font-size="14" font-weight="bold" lengthAdjust="spacing" textLength="373.4375" x="927.8573" y="24.5332">Componentes de Arquitetura &#8212; Sistema Academia SA</text><!--cluster Frontend--><g id="cluster_Frontend"><path d="M1174,44.6094 L1240,44.6094 A3.75,3.75 0 0 1 1242.5,47.1094 L1249.5,68.2188 L1322,68.2188 A2.5,2.5 0 0 1 1324.5,70.7188 L1324.5,148.1094 A2.5,2.5 0 0 1 1322,150.6094 L1174,150.6094 A2.5,2.5 0 0 1 1171.5,148.1094 L1171.5,47.1094 A2.5,2.5 0 0 1 1174,44.6094 " fill="none" style="stroke:#000000;stroke-width:1.5;"/><line style="stroke:#000000;stroke-width:1.5;" x1="1171.5" x2="1249.5" y1="68.2188" y2="68.2188"/><text fill="#000000" font-family="sans-serif" font-size="14" font-weight="bold" lengthAdjust="spacing" textLength="65" x="1175.5" y="61.1426">Frontend</text></g><!--cluster Backend--><g id="cluster_Backend"><path d="M951,208.6094 L1013,208.6094 A3.75,3.75 0 0 1 1015.5,211.1094 L1022.5,232.2188 L2037,232.2188 A2.5,2.5 0 0 1 2039.5,234.7188 L2039.5,533.1094 A2.5,2.5 0 0 1 2037,535.6094 L951,535.6094 A2.5,2.5 0 0 1 948.5,533.1094 L948.5,211.1094 A2.5,2.5 0 0 1 951,208.6094 " fill="none" style="stroke:#000000;stroke-width:1.5;"/><line style="stroke:#000000;stroke-width:1.5;" x1="948.5" x2="1022.5" y1="232.2188" y2="232.2188"/><text fill="#000000" font-family="sans-serif" font-size="14" font-weight="bold" lengthAdjust="spacing" textLength="61" x="952.5" y="225.1426">Backend</text></g><!--entity Frontend--><g id="elem_Frontend"><rect fill="#F1F1F1" height="37.6094" rx="2.5" ry="2.5" style="stroke:#181818;stroke-width:0.5;" width="85" x="1215" y="88.6094"/><text fill="#000000" font-family="sans-serif" font-size="14" lengthAdjust="spacing" textLength="65" x="1225" y="113.1426">React/Vite</text></g><!--entity API--><g id="elem_API"><rect fill="#F1F1F1" height="37.6094" rx="2.5" ry="2.5" style="stroke:#181818;stroke-width:0.5;" width="95" x="1132" y="244.6094"/><text fill="#000000" font-family="sans-serif" font-size="14" lengthAdjust="spacing" textLength="75" x="1142" y="269.1426">API Express</text></g><!--entity Auth--><g id="elem_Auth"><rect fill="#F1F1F1" height="37.6094" rx="2.5" ry="2.5" style="stroke:#181818;stroke-width:0.5;" width="96" x="999.5" y="360.6094"/><text fill="#000000" font-family="sans-serif" font-size="14" lengthAdjust="spacing" textLength="76" x="1009.5" y="385.1426">AuthService</text></g><!--entity Services--><g id="elem_Services"><rect fill="#F1F1F1" height="37.6094" rx="2.5" ry="2.5" style="stroke:#181818;stroke-width:0.5;" width="149" x="1239" y="360.6094"/><text fill="#000000" font-family="sans-serif" font-size="14" lengthAdjust="spacing" textLength="129" x="1249" y="385.1426">Services de Neg&#243;cio</text></g><!--entity Audit--><g id="elem_Audit"><rect fill="#F1F1F1" height="37.6094" rx="2.5" ry="2.5" style="stroke:#181818;stroke-width:0.5;" width="99" x="965" y="481.6094"/><text fill="#000000" font-family="sans-serif" font-size="14" lengthAdjust="spacing" textLength="79" x="975" y="506.1426">AuditService</text></g><!--entity Access--><g id="elem_Access"><rect fill="#F1F1F1" height="37.6094" rx="2.5" ry="2.5" style="stroke:#181818;stroke-width:0.5;" width="112" x="1099.5" y="481.6094"/><text fill="#000000" font-family="sans-serif" font-size="14" lengthAdjust="spacing" textLength="92" x="1109.5" y="506.1426">AccessService</text></g><!--entity Financeiro--><g id="elem_Financeiro"><rect fill="#F1F1F1" height="37.6094" rx="2.5" ry="2.5" style="stroke:#181818;stroke-width:0.5;" width="134" x="1246.5" y="481.6094"/><text fill="#000000" font-family="sans-serif" font-size="14" lengthAdjust="spacing" textLength="114" x="1256.5" y="506.1426">FinanceiroService</text></g><!--entity Mensalidade--><g id="elem_Mensalidade"><rect fill="#F1F1F1" height="37.6094" rx="2.5" ry="2.5" style="stroke:#181818;stroke-width:0.5;" width="147" x="1416" y="481.6094"/><text fill="#000000" font-family="sans-serif" font-size="14" lengthAdjust="spacing" textLength="127" x="1426" y="506.1426">MensalidadeService</text></g><!--entity Venda--><g id="elem_Venda"><rect fill="#F1F1F1" height="37.6094" rx="2.5" ry="2.5" style="stroke:#181818;stroke-width:0.5;" width="108" x="1598.5" y="481.6094"/><text fill="#000000" font-family="sans-serif" font-size="14" lengthAdjust="spacing" textLength="88" x="1608.5" y="506.1426">VendaService</text></g><!--entity Vinculo--><g id="elem_Vinculo"><rect fill="#F1F1F1" height="37.6094" rx="2.5" ry="2.5" style="stroke:#181818;stroke-width:0.5;" width="113" x="1742" y="481.6094"/><text fill="#000000" font-family="sans-serif" font-size="14" lengthAdjust="spacing" textLength="93" x="1752" y="506.1426">VinculoService</text></g><!--entity Onboarding--><g id="elem_Onboarding"><rect fill="#F1F1F1" height="37.6094" rx="2.5" ry="2.5" style="stroke:#181818;stroke-width:0.5;" width="133" x="1890" y="481.6094"/><text fill="#000000" font-family="sans-serif" font-size="14" lengthAdjust="spacing" textLength="113" x="1900" y="506.1426">Onboarding/Rede</text></g><!--entity SQLite--><g id="elem_SQLite"><path d="M297.5,616.6094 C297.5,606.6094 346.5,606.6094 346.5,606.6094 C346.5,606.6094 395.5,606.6094 395.5,616.6094 L395.5,643.2188 C395.5,653.2188 346.5,653.2188 346.5,653.2188 C346.5,653.2188 297.5,653.2188 297.5,643.2188 L297.5,616.6094 " fill="#F1F1F1" style="stroke:#181818;stroke-width:0.5;"/><path d="M297.5,616.6094 C297.5,626.6094 346.5,626.6094 346.5,626.6094 C346.5,626.6094 395.5,626.6094 395.5,616.6094 " fill="none" style="stroke:#181818;stroke-width:0.5;"/><text fill="#000000" font-family="sans-serif" font-size="14" lengthAdjust="spacing" textLength="78" x="307.5" y="645.1426">SQLite atual</text></g><!--entity Postgres--><g id="elem_Postgres"><path d="M590.5,487.1094 C590.5,477.1094 659.5,477.1094 659.5,477.1094 C659.5,477.1094 728.5,477.1094 728.5,487.1094 L728.5,513.7188 C728.5,523.7188 659.5,523.7188 659.5,523.7188 C659.5,523.7188 590.5,523.7188 590.5,513.7188 L590.5,487.1094 " fill="#F1F1F1" style="stroke:#181818;stroke-width:0.5;"/><path d="M590.5,487.1094 C590.5,497.1094 659.5,497.1094 659.5,497.1094 C659.5,497.1094 728.5,497.1094 728.5,487.1094 " fill="none" style="stroke:#181818;stroke-width:0.5;"/><text fill="#000000" font-family="sans-serif" font-size="14" lengthAdjust="spacing" textLength="118" x="600.5" y="515.6426">PostgreSQL futuro</text></g><!--entity Webcam--><g id="elem_Webcam"><rect fill="#F1F1F1" height="55.2188" rx="2.5" ry="2.5" style="stroke:#181818;stroke-width:0.5;" width="108" x="1037.5" y="602.6094"/><text fill="#000000" font-family="sans-serif" font-size="14" lengthAdjust="spacing" textLength="88" x="1047.5" y="627.1426">Webcam local</text><text fill="#000000" font-family="sans-serif" font-size="14" lengthAdjust="spacing" textLength="62" x="1047.5" y="644.752">fase atual</text></g><!--entity Hikvision--><g id="elem_Hikvision"><rect fill="#F1F1F1" height="55.2188" rx="2.5" ry="2.5" style="stroke:#181818;stroke-width:0.5;" width="132" x="1180.5" y="602.6094"/><text fill="#000000" font-family="sans-serif" font-size="14" lengthAdjust="spacing" textLength="112" x="1190.5" y="627.1426">Provider Hikvision</text><text fill="#000000" font-family="sans-serif" font-size="14" lengthAdjust="spacing" textLength="68" x="1190.5" y="644.752">fase futura</text></g><!--entity Storage--><g id="elem_Storage"><path d="M2067.0705,485.6626 C2070.8083,479.1626 2075.2448,479.8325 2079.326,485.3113 C2081.7683,478.9745 2086.4659,479.1733 2090.2035,484.0554 C2093.0106,478.9899 2097.7531,478.6889 2100.5717,484.0439 C2103.2026,477.2694 2107.9638,477.7988 2112.3898,482.1345 C2115.611,477.3861 2119.284,476.5153 2123.0529,481.5368 C2127.0469,475.3905 2131.1506,475.668 2134.8831,481.789 C2137.57,476.3688 2140.6871,476.9275 2144.5599,480.5148 C2149.067,475.7384 2152.9216,474.7448 2156.9241,481.0765 C2160.5299,476.5433 2164.8338,476.6442 2166.955,482.5086 C2170.4533,477.3103 2175.1406,476.419 2179.0836,482.0086 C2182.867,476.5379 2185.9233,478.066 2189.334,482.3983 C2193.2745,476.3854 2197.6639,478.0096 2200.9243,483.1077 C2205.3118,477.5817 2209.6403,478.616 2213.3918,483.845 C2216.8755,479.2628 2220.7183,480.9216 2222.5931,485.4669 C2231.1557,486.3738 2235.7551,493.2195 2229.2115,500.6928 C2236.1521,509.0501 2232.0839,514.2814 2223.3897,517.0863 C2220.7308,521.4536 2215.8785,522.3499 2213.3972,516.9055 C2211.3342,522.2487 2206.0126,522.9784 2202.2475,518.9252 C2198.7075,524.4849 2194.0025,525.4725 2189.813,519.6337 C2186.3873,524.0135 2183.3318,524.4926 2179.6832,519.8849 C2175.7027,525.42 2171.7345,525.2418 2167.4476,520.2407 C2163.9361,524.7325 2160.4412,525.8422 2156.9128,520.2584 C2154.0438,525.8853 2149.1945,526.9507 2145.4544,521.1303 C2142.054,526.5951 2137.5679,526.2512 2134.7374,520.5818 C2130.9045,526.213 2125.9317,526.2611 2122.3073,520.3571 C2118.5978,525.0313 2115.1972,524.9945 2111.791,520.0263 C2107.7586,525.315 2104.156,525.3456 2101.0406,519.1667 C2097.3718,524.9312 2092.6768,525.3924 2088.9308,519.2453 C2085.763,524.664 2080.8814,522.8563 2078.4755,518.4357 C2075.2536,522.4781 2070.2491,522.8279 2068.1679,517.2176 C2058.9824,513.6314 2058.3461,507.2513 2066.1489,501.485 C2058.8323,496.2279 2059.6876,490.0635 2067.0705,485.6626 " fill="#F1F1F1" style="stroke:#181818;stroke-width:0.5;"/><text fill="#000000" font-family="sans-serif" font-size="14" lengthAdjust="spacing" textLength="142" x="2073.5" y="506.1426">Backup/Storage futuro</text></g><!--entity Historico--><g id="elem_Historico"><rect fill="#F1F1F1" height="37.6094" rx="2.5" ry="2.5" style="stroke:#181818;stroke-width:0.5;" width="163" x="7" y="481.6094"/><text fill="#000000" font-family="sans-serif" font-size="14" lengthAdjust="spacing" textLength="143" x="17" y="506.1426">Hist&#243;rico de Atividades</text></g><g id="elem_GMN39"><path d="M763.5,479.1094 L763.5,496.6094 L728.53,500.6094 L763.5,504.6094 L763.5,521.8125 A0,0 0 0 0 763.5,521.8125 L929.5,521.8125 A0,0 0 0 0 929.5,521.8125 L929.5,489.1094 L919.5,479.1094 L763.5,479.1094 A0,0 0 0 0 763.5,479.1094 " fill="#FEFFDD" style="stroke:#181818;stroke-width:0.5;"/><path d="M919.5,479.1094 L919.5,489.1094 L929.5,489.1094 L919.5,479.1094 " fill="#FEFFDD" style="stroke:#181818;stroke-width:0.5;"/><text fill="#000000" font-family="sans-serif" font-size="13" lengthAdjust="spacing" textLength="145" x="769.5" y="497.6045">Alvo ap&#243;s schema-freeze</text><text fill="#000000" font-family="sans-serif" font-size="13" lengthAdjust="spacing" textLength="75" x="769.5" y="513.9561">e migrations.</text></g><g id="elem_GMN42"><path d="M1152.5,718.6094 L1152.5,777.6641 A0,0 0 0 0 1152.5,777.6641 L1340.5,777.6641 A0,0 0 0 0 1340.5,777.6641 L1340.5,728.6094 L1330.5,718.6094 L1250.5,718.6094 L1246.5,657.7194 L1242.5,718.6094 L1152.5,718.6094 A0,0 0 0 0 1152.5,718.6094 " fill="#FEFFDD" style="stroke:#181818;stroke-width:0.5;"/><path d="M1330.5,718.6094 L1330.5,728.6094 L1340.5,728.6094 L1330.5,718.6094 " fill="#FEFFDD" style="stroke:#181818;stroke-width:0.5;"/><text fill="#000000" font-family="sans-serif" font-size="13" lengthAdjust="spacing" textLength="100" x="1158.5" y="737.1045">Integra&#231;&#227;o futura.</text><text fill="#000000" font-family="sans-serif" font-size="13" lengthAdjust="spacing" textLength="167" x="1158.5" y="753.4561">A regra de neg&#243;cio deve ficar</text><text fill="#000000" font-family="sans-serif" font-size="13" lengthAdjust="spacing" textLength="143" x="1158.5" y="769.8076">desacoplada do provider.</text></g><!--link Frontend to API--><g id="link_Frontend_API"><path codeLine="33" d="M1179.5,150.7167 C1179.5,150.9259 1179.5,151.1357 1179.5,151.3458 C1179.5,151.7661 1179.5,152.1881 1179.5,152.6118 C1179.5,156.001 1179.5,159.4955 1179.5,163.0606 C1179.5,191.5819 1179.5,218.6294 1179.5,238.5594 " fill="none" id="Frontend-to-API" style="stroke:#181818;stroke-width:1.0;"/><polygon fill="#181818" points="1179.5,244.5594,1183.5,235.5594,1179.5,239.5594,1175.5,235.5594,1179.5,244.5594" style="stroke:#181818;stroke-width:1.0;"/><text fill="#000000" font-family="sans-serif" font-size="13" lengthAdjust="spacing" textLength="70" x="1180.5" y="189.1045">HTTP/JSON</text></g><!--link API to Auth--><g id="link_API_Auth"><path codeLine="35" d="M1158.58,282.6694 C1134.01,303.8894 1098.011,334.9877 1073.301,356.3277 " fill="none" id="API-to-Auth" style="stroke:#181818;stroke-width:1.0;"/><polygon fill="#181818" points="1068.76,360.2494,1078.1859,357.3942,1072.5441,356.9813,1072.957,351.3395,1068.76,360.2494" style="stroke:#181818;stroke-width:1.0;"/><text fill="#000000" font-family="sans-serif" font-size="13" lengthAdjust="spacing" textLength="120" x="1121.5" y="327.1045">autentica&#231;&#227;o/sess&#227;o</text></g><!--link API to Services--><g id="link_API_Services"><path codeLine="36" d="M1209.19,282.6494 C1222.32,291.1294 1237.66,301.7594 1250.5,312.6094 C1268.04,327.4294 1281.9673,342.1342 1294.1673,356.0042 " fill="none" id="API-to-Services" style="stroke:#181818;stroke-width:1.0;"/><polygon fill="#181818" points="1298.13,360.5094,1295.1893,351.1098,1294.8277,356.7551,1289.1824,356.3934,1298.13,360.5094" style="stroke:#181818;stroke-width:1.0;"/><text fill="#000000" font-family="sans-serif" font-size="13" lengthAdjust="spacing" textLength="93" x="1269.5" y="327.1045">rotas protegidas</text></g><!--link Services to Audit--><g id="link_Services_Audit"><path codeLine="38" d="M1238.8,386.5794 C1193.79,392.5694 1136.48,404.5794 1090.5,428.6094 C1065.54,441.6594 1046.6751,460.6056 1032.6951,476.9856 " fill="none" id="Services-to-Audit" style="stroke:#181818;stroke-width:1.0;"/><polygon fill="#181818" points="1028.8,481.5494,1037.6852,477.3004,1032.0459,477.7462,1031.6001,472.107,1028.8,481.5494" style="stroke:#181818;stroke-width:1.0;"/><text fill="#000000" font-family="sans-serif" font-size="13" lengthAdjust="spacing" textLength="95" x="1091.5" y="443.1045">registrar eventos</text></g><!--link Services to Access--><g id="link_Services_Access"><path codeLine="39" d="M1266.03,398.6694 C1248.86,406.4394 1229.91,416.5394 1214.5,428.6094 C1195.32,443.6294 1181.5455,460.9233 1170.7255,476.4833 " fill="none" id="Services-to-Access" style="stroke:#181818;stroke-width:1.0;"/><polygon fill="#181818" points="1167.3,481.4094,1175.7222,476.3039,1170.1545,477.3043,1169.1541,471.7366,1167.3,481.4094" style="stroke:#181818;stroke-width:1.0;"/><text fill="#000000" font-family="sans-serif" font-size="13" lengthAdjust="spacing" textLength="89" x="1215.5" y="443.1045">acesso/catraca</text></g><!--link Services to Financeiro--><g id="link_Services_Financeiro"><path codeLine="40" d="M1313.5,398.6794 C1313.5,421.0494 1313.5,452.9194 1313.5,475.3694 " fill="none" id="Services-to-Financeiro" style="stroke:#181818;stroke-width:1.0;"/><polygon fill="#181818" points="1313.5,481.3694,1317.5,472.3694,1313.5,476.3694,1309.5,472.3694,1313.5,481.3694" style="stroke:#181818;stroke-width:1.0;"/><text fill="#000000" font-family="sans-serif" font-size="13" lengthAdjust="spacing" textLength="99" x="1314.5" y="443.1045">financeiro restrito</text></g><!--link Services to Mensalidade--><g id="link_Services_Mensalidade"><path codeLine="41" d="M1365.67,398.6194 C1384.46,406.3594 1405.27,416.4494 1422.5,428.6094 C1443.55,443.4594 1459.4693,461.0262 1471.9793,476.6462 " fill="none" id="Services-to-Mensalidade" style="stroke:#181818;stroke-width:1.0;"/><polygon fill="#181818" points="1475.73,481.3294,1473.226,471.8041,1472.6044,477.4267,1466.9818,476.8051,1475.73,481.3294" style="stroke:#181818;stroke-width:1.0;"/><text fill="#000000" font-family="sans-serif" font-size="13" lengthAdjust="spacing" textLength="80" x="1443.5" y="443.1045">mensalidades</text></g><!--link Services to Venda--><g id="link_Services_Venda"><path codeLine="42" d="M1388.23,390.9194 C1431.39,398.3594 1486.14,410.3594 1532.5,428.6094 C1567.41,442.3494 1599.0932,462.0839 1622.5632,478.1939 " fill="none" id="Services-to-Venda" style="stroke:#181818;stroke-width:1.0;"/><polygon fill="#181818" points="1627.51,481.5894,1622.3535,473.1983,1623.3877,478.7598,1617.8262,479.794,1627.51,481.5894" style="stroke:#181818;stroke-width:1.0;"/><text fill="#000000" font-family="sans-serif" font-size="13" lengthAdjust="spacing" textLength="40" x="1571.5" y="443.1045">vendas</text></g><!--link Services to Vinculo--><g id="link_Services_Vinculo"><path codeLine="43" d="M1388.3,387.5594 C1451.08,394.5194 1542.71,407.3094 1620.5,428.6094 C1670.24,442.2294 1719.5394,462.9031 1755.0094,479.0531 " fill="none" id="Services-to-Vinculo" style="stroke:#181818;stroke-width:1.0;"/><polygon fill="#181818" points="1760.47,481.5394,1753.9366,474.1695,1755.9195,479.4675,1750.6215,481.4503,1760.47,481.5394" style="stroke:#181818;stroke-width:1.0;"/><text fill="#000000" font-family="sans-serif" font-size="13" lengthAdjust="spacing" textLength="46" x="1676.5" y="443.1045">v&#237;nculos</text></g><!--link Services to Onboarding--><g id="link_Services_Onboarding"><path codeLine="44" d="M1388.19,384.8594 C1472.36,390.6494 1612.91,403.3294 1731.5,428.6094 C1793.8,441.8894 1857.7869,463.191 1902.8569,479.471 " fill="none" id="Services-to-Onboarding" style="stroke:#181818;stroke-width:1.0;"/><polygon fill="#181818" points="1908.5,481.5094,1901.3942,474.6897,1903.7974,479.8107,1898.6764,482.2139,1908.5,481.5094" style="stroke:#181818;stroke-width:1.0;"/><text fill="#000000" font-family="sans-serif" font-size="13" lengthAdjust="spacing" textLength="63" x="1801.5" y="443.1045">onboarding</text></g><!--link Auth to SQLite--><g id="link_Auth_SQLite"><path codeLine="46" d="M999.29,382.4994 C871.03,387.7894 523.58,404.0394 411.5,428.6094 C351.74,441.7094 317.41,426.3694 282.5,476.6094 C253.5,518.3394 291.1513,570.8413 319.6413,602.0013 " fill="none" id="Auth-to-SQLite" style="stroke:#181818;stroke-width:1.0;"/><polygon fill="#181818" points="323.69,606.4294,320.5691,597.0881,320.3161,602.7393,314.6649,602.4863,323.69,606.4294" style="stroke:#181818;stroke-width:1.0;"/><text fill="#000000" font-family="sans-serif" font-size="13" lengthAdjust="spacing" textLength="77" x="300" y="498.1045">auth_session</text><text fill="#000000" font-family="sans-serif" font-size="13" lengthAdjust="spacing" textLength="110" x="283.5" y="514.4561">auth_refresh_token</text></g><!--link Services to SQLite--><g id="link_Services_SQLite"><path codeLine="47" d="M1238.86,387.2694 C1036.13,405.5894 488.12,456.6694 454.5,476.6094 C441.14,484.5294 390.5937,560.9047 364.3337,601.4147 " fill="none" id="Services-to-SQLite" style="stroke:#181818;stroke-width:1.0;"/><polygon fill="#181818" points="361.07,606.4494,369.322,601.0731,363.7897,602.2538,362.609,596.7215,361.07,606.4494" style="stroke:#181818;stroke-width:1.0;"/><text fill="#000000" font-family="sans-serif" font-size="13" lengthAdjust="spacing" textLength="116" x="455.5" y="506.1045">dados transacionais</text></g><!--link Audit to SQLite--><g id="link_Audit_SQLite"><path codeLine="48" d="M990.96,519.7894 C978.66,528.3694 962.97,537.9494 947.5,543.6094 C752.02,615.1094 506.4491,627.0669 401.6791,628.8569 " fill="none" id="Audit-to-SQLite" style="stroke:#181818;stroke-width:1.0;"/><polygon fill="#181818" points="395.68,628.9594,404.747,632.805,400.6793,628.874,404.6104,624.8062,395.68,628.9594" style="stroke:#181818;stroke-width:1.0;"/><text fill="#000000" font-family="sans-serif" font-size="13" lengthAdjust="spacing" textLength="52" x="902.5" y="569.1045">audit_log</text></g><!--link Historico to SQLite--><g id="link_Historico_SQLite"><path codeLine="49" d="M81.68,519.7094 C77.03,535.4294 73.65,557.9194 85.5,572.6094 C111.59,604.9494 223.1227,619.1782 291.2427,625.1182 " fill="none" id="Historico-to-SQLite" style="stroke:#181818;stroke-width:1.0;"/><polygon fill="#181818" points="297.22,625.6394,288.6015,620.8727,292.2389,625.205,287.9065,628.8424,297.22,625.6394" style="stroke:#181818;stroke-width:1.0;"/><text fill="#000000" font-family="sans-serif" font-size="13" lengthAdjust="spacing" textLength="142" x="86.5" y="569.1045">consulta somente leitura</text></g><!--link Access to Webcam--><g id="link_Access_Webcam"><path codeLine="51" d="M1131.37,519.7294 C1120.8,528.9794 1109.28,541.1194 1102.5,554.6094 C1095.1,569.3294 1092.693,581.611 1091.773,596.381 " fill="none" id="Access-to-Webcam" style="stroke:#181818;stroke-width:1.0;"/><polygon fill="#181818" points="1091.4,602.3694,1095.9518,593.6355,1091.7108,597.379,1087.9672,593.1381,1091.4,602.3694" style="stroke:#181818;stroke-width:1.0;"/><text fill="#000000" font-family="sans-serif" font-size="13" lengthAdjust="spacing" textLength="85" x="1103.5" y="569.1045">valida&#231;&#227;o atual</text></g><!--link Access to Hikvision--><g id="link_Access_Hikvision"><path codeLine="52" d="M1168.53,519.7494 C1175.87,529.9794 1185.21,542.9994 1193.5,554.6094 C1204.85,570.4994 1214.0533,583.4293 1224.1633,597.6493 " fill="none" id="Access-to-Hikvision" style="stroke:#181818;stroke-width:1.0;"/><polygon fill="#181818" points="1227.64,602.5394,1225.685,592.8865,1224.7428,598.4643,1219.1649,597.5221,1227.64,602.5394" style="stroke:#181818;stroke-width:1.0;"/><text fill="#000000" font-family="sans-serif" font-size="13" lengthAdjust="spacing" textLength="96" x="1205.5" y="569.1045">integra&#231;&#227;o futura</text></g><!--link Services to Postgres--><g id="link_Services_Postgres"><path codeLine="54" d="M1238.9,389.1994 C1168.26,397.7294 1059.32,411.9294 965.5,428.6094 C866.97,446.1294 842.76,453.0094 745.5,476.6094 C740.09,477.9194 740.3241,477.8374 734.7141,479.2674 " fill="none" id="Services-to-Postgres" style="stroke:#181818;stroke-width:1.0;stroke-dasharray:7.0,7.0;"/><polygon fill="#181818" points="728.9,480.7494,738.6091,482.4024,733.7451,479.5144,736.6331,474.6503,728.9,480.7494" style="stroke:#181818;stroke-width:1.0;"/><text fill="#000000" font-family="sans-serif" font-size="13" lengthAdjust="spacing" textLength="89" x="966.5" y="443.1045">migra&#231;&#227;o futura</text></g><!--link Services to Storage--><g id="link_Services_Storage"><path codeLine="55" d="M1388.3,382.9594 C1496.17,387.2794 1701.38,398.9094 1873.5,428.6094 C1941.08,440.2694 2010.6748,458.9331 2064.7248,474.8631 " fill="none" id="Services-to-Storage" style="stroke:#181818;stroke-width:1.0;stroke-dasharray:7.0,7.0;"/><polygon fill="#181818" points="2070.48,476.5594,2062.978,470.1782,2065.684,475.1459,2060.7163,477.8519,2070.48,476.5594" style="stroke:#181818;stroke-width:1.0;"/><text fill="#000000" font-family="sans-serif" font-size="13" lengthAdjust="spacing" textLength="127" x="1956.5" y="443.1045">uploads/backup futuro</text></g><!--SRC=[RPN1Rjim38RlUWgYzoRt7WfamufksDgiARhBW8AH5KUeB7gIx7OR1kmXzWOxxBHJ7o5liYSP9JksxEraY_n8AkHF1usXnqe_QLiA4NGm2bvILPDLDYWFXOAL-zJee4BZ4Fvy_m4RxOEg45OI2rLfXCrA2F-WROqEAv37w4tupCcSaW5jQLI6-3qMzCWLOOV6Ao5gb0zOAZYvSCHbRN42NmMCgU3aHg4Copk-nmcWXoCdlcN1B_ZbVx6hzMjuzLGxvNqAvlCCQC9-erohPPSzdgT4xqtzk5BbuLbgIkZHCKzOw33Do8OP8pdCJw1acL8NsgALIZlAoT4wfTyfwz7eWWUJuvbvojznkp0das76Q2iRCodVcwRSjTqIkeAdkhnHHGUEjZYe0WDkqVEaDk_VyYG1GuEcQsCoPCIQV2YTOZli6fPUr-tUweN82dzGMycYCYJHVBIx63ucxfmvldRKwa8vkDGFhVQQR1-Kwc2A6bn26cgAJbfDlTm4Sb5gsPLwKrxXaXVayEoqfBG-GRUfzRvFxJc2VK8SHGodf-THb706bxUtw-MRpVML4D6G72n6zc33QD0I3xyEFsdfMIdy7AX1e6VWA72TcX-gvCBShC7PvMCfHeozFZXqe5hEJ7w69J76ml59IudCIfn2emuPt8q77b5mEj2KpcJ8U3MUPgMJ29beutFkwwGNlOVVwNK6Z99ZXaRzYTJ7rAfEVAcb-_lOoAI1T79gntVVtmVYByaqyH36DoOFt0s-Fty6B6elkgREihFftb0fXf5F0KdMDoOWUAhYnnQCqb61VDMkzv7knSq_D_Kg3R-JTquDUcLGSwhIzMIdwKm1YyNvi4Ln27gEJiYZti-WgGrXuPVRj0Zz0WXXMMJWTBaFGBjnFLUcvLlMXsSFNkxvp-AKswg-AA6wYe6lwXSYQZzcwFDiAGIgOg9n_rx_-siMOXN5o_z6h2FRVupvlUMzvFrmWWM5acg3hAA2uYQaXS_g_GK0]--></g></svg>